<svg width="183" height="60" viewBox="0 0 183 60" fill="none" xmlns="http://www.w3.org/2000/svg">
<g clip-path="url(#clip0_2013_757)">
<path d="M81.2827 7.5301C83.2636 7.63169 84.6985 7.92375 85.6001 8.3809C86.5017 8.85074 86.9589 9.38407 86.9589 9.9682C86.9589 10.3238 86.7938 10.6793 86.4636 11.0349C86.1335 11.3904 85.6636 11.6952 85.0668 11.9492C84.47 12.2031 83.7462 12.3936 82.8827 12.5333C82.0192 12.673 81.0541 12.7238 79.9874 12.6603C78.8192 12.6095 77.6509 12.3936 76.47 11.9999C75.289 11.6063 74.2097 11.0476 73.2446 10.3111L73.2065 10.3491C74.1716 10.9333 74.87 11.6317 75.3017 12.4444C75.7335 13.2571 75.9493 14.1333 75.9493 15.073C75.9493 16.0634 75.7208 17.0793 75.2763 18.146C74.8319 19.2126 74.197 20.1904 73.3716 21.1174C72.5462 22.0444 71.5684 22.8698 70.4382 23.6063C69.3081 24.3428 68.0509 24.8888 66.6795 25.2444C67.0096 26.0825 67.1747 27.0222 67.1747 28.0634C67.1747 29.2825 66.9462 30.5523 66.4763 31.8603C66.0065 33.1682 65.3335 34.438 64.47 35.6698C63.6065 36.9015 62.5652 38.0571 61.3589 39.1619C60.1525 40.2539 58.8192 41.1936 57.3335 41.9936C55.8477 42.7936 54.2731 43.4158 52.5716 43.8603C50.87 44.3047 49.1049 44.4825 47.2763 44.4063C45.9049 44.4317 44.6731 44.3047 43.5684 44.038C42.4636 43.7714 41.4985 43.3904 40.6604 42.8698C39.7462 44.6476 38.9843 46.3999 38.3747 48.1269C37.7652 49.8539 37.4604 51.4539 37.4604 52.9269C37.4604 54.3999 37.8287 55.619 38.5652 56.6857C39.3017 57.7523 40.5589 58.4761 42.3366 58.8825C42.4128 58.9079 42.4382 58.946 42.3874 58.9968C42.3493 59.0476 42.2985 59.1111 42.235 59.2126C42.1715 59.3015 42.1208 59.3904 42.07 59.4793C42.0192 59.5682 42.0319 59.6571 42.1081 59.7587C40.0763 59.3523 38.6414 58.5777 37.8033 57.4222C36.9652 56.2666 36.5462 54.8825 36.5462 53.2952C36.5462 51.7079 36.8763 49.9682 37.5366 48.0888C38.1969 46.2222 39.0096 44.3428 39.9747 42.438C39.2128 41.9047 38.5525 41.2317 37.9938 40.419C36.8001 41.1555 35.5938 41.8031 34.4001 42.3619C33.1938 42.9206 31.9493 43.3777 30.6795 43.7333C29.8414 43.9365 28.9906 44.1015 28.1271 44.2285C27.2636 44.3555 26.4001 44.419 25.5366 44.419C24.2922 44.419 23.1112 44.2666 21.9938 43.9872C20.8763 43.6952 19.9239 43.2126 19.1366 42.565C18.1716 41.7269 17.4604 40.7745 17.0033 39.7079C16.5462 38.6412 16.3176 37.4857 16.3176 36.2412C16.3176 34.7936 16.5843 33.2698 17.1303 31.6698C17.6763 30.0698 18.4255 28.4444 19.3779 26.8063C20.3303 25.1682 21.4477 23.5428 22.7557 21.9301C24.0509 20.3174 25.4604 18.7809 26.9843 17.3206C28.5081 15.8603 30.1081 14.5015 31.797 13.2444C33.4858 11.9872 35.1874 10.8952 36.9271 9.9809C38.6541 9.06661 40.3557 8.3428 42.0446 7.82217C43.7335 7.30153 45.3462 7.04756 46.8573 7.04756C48.7112 7.04756 50.362 7.45391 51.8096 8.26661C53.0033 8.92693 53.8541 9.77772 54.3493 10.819C54.8446 11.8603 55.0858 13.0285 55.0858 14.3238C55.0858 15.7206 54.8446 17.2063 54.362 18.7682C53.8795 20.3301 53.27 21.892 52.5335 23.4285C54.0065 21.9047 55.4922 20.4317 57.0033 18.9841C58.5144 17.5492 60.0763 16.2031 61.6763 14.946C63.2763 13.6888 64.9144 12.5587 66.5906 11.5428C68.2668 10.5269 70.0065 9.68883 71.8096 9.02852C71.1239 8.24121 70.5779 7.33963 70.1715 6.32375C69.7652 5.30788 69.562 4.16502 69.562 2.89518C69.562 2.23486 69.6128 1.61264 69.7144 1.02851C69.7906 1.1301 69.8795 1.1809 69.9811 1.1555C70.0827 1.1555 70.1843 1.1174 70.2731 1.07931C70.362 1.04121 70.4382 1.01582 70.5017 1.00312C70.5652 0.99042 70.6033 1.01582 70.6033 1.09201C70.5271 1.62534 70.489 2.15867 70.489 2.69201C70.489 3.88566 70.6922 4.97772 71.0985 5.9682C71.5049 6.95867 72.089 7.84756 72.8509 8.63486C73.9938 8.27931 75.162 7.99994 76.3557 7.79677C77.5493 7.59359 78.7811 7.49201 80.0509 7.49201H80.6604C80.8636 7.49201 81.0668 7.50471 81.27 7.5301H81.2827ZM37.8541 37.892C40.0128 36.1904 42.1462 34.2476 44.2541 32.0761C46.362 29.9047 48.5081 27.6698 50.6922 25.3587C51.1747 24.4698 51.6319 23.5555 52.0509 22.6158C52.47 21.6761 52.8382 20.7492 53.1557 19.8349C53.4731 18.9206 53.7271 18.019 53.9176 17.1301C54.1081 16.2412 54.2096 15.3904 54.2096 14.5777C54.2096 13.3841 53.9811 12.3174 53.5239 11.3777C53.0668 10.438 52.3049 9.66344 51.2382 9.05391C50.0954 8.44439 48.8001 8.13963 47.3525 8.13963C45.9049 8.13963 44.4192 8.40629 42.8192 8.91423C41.2192 9.43486 39.5938 10.1587 37.943 11.0857C36.2922 12.0126 34.6287 13.1047 32.9652 14.3618C31.3017 15.619 29.7271 16.9777 28.2287 18.4253C26.7303 19.873 25.3208 21.3841 24.0128 22.9587C22.7049 24.5333 21.5747 26.1206 20.6223 27.6952C19.67 29.2825 18.9208 30.8444 18.3747 32.3555C17.8287 33.8793 17.5493 35.3015 17.5493 36.6222C17.5493 37.6634 17.7271 38.6285 18.0827 39.492C18.4382 40.3682 19.0223 41.1301 19.835 41.8031C20.5208 42.3872 21.2827 42.8063 22.1462 43.0603C22.997 43.3142 23.8985 43.4412 24.8636 43.4412C25.7525 43.4412 26.6668 43.3396 27.6192 43.1364C28.5716 42.9333 29.5239 42.6412 30.5017 42.2603C31.6446 41.8285 32.7493 41.2952 33.816 40.6603C34.8827 40.0253 35.9493 39.3015 37.016 38.4888C36.635 37.3968 36.4446 36.2158 36.4446 34.946C36.4446 32.8888 36.9144 30.7682 37.8287 28.5714C38.7557 26.3745 40.0636 24.292 41.7398 22.3365L42.3493 22.7936C40.7747 24.6222 39.543 26.5777 38.6668 28.6603C37.7906 30.7428 37.3462 32.7492 37.3462 34.6793C37.3462 35.8476 37.5112 36.9142 37.8414 37.8793L37.8541 37.892ZM40.4827 41.5492C40.9906 40.6095 41.5239 39.6952 42.07 38.7936C42.616 37.892 43.162 37.0158 43.6954 36.1777C42.9081 36.8634 42.1081 37.5111 41.2954 38.1206C40.4827 38.7301 39.67 39.3142 38.8573 39.873C39.0858 40.1777 39.3398 40.4698 39.5938 40.7492C39.8477 41.0285 40.1525 41.2952 40.4827 41.5492ZM47.5684 43.5301C49.0922 43.4285 50.5906 43.0603 52.0636 42.4253C53.5366 41.7904 54.9208 40.9904 56.2414 40.0253C57.562 39.0603 58.743 37.9682 59.835 36.7492C60.9271 35.5301 61.8414 34.273 62.5906 32.9777C63.3398 31.6825 63.8985 30.3999 64.2668 29.1301C64.635 27.8603 64.7493 26.692 64.6351 25.6253C64.4065 25.6507 64.1779 25.6761 63.962 25.6761C63.7462 25.6888 63.5303 25.6888 63.3017 25.6888C62.0319 25.6888 60.7747 25.5238 59.5303 25.1936C58.6922 24.965 58.07 24.6603 57.6636 24.2539C57.2573 23.8603 57.0287 23.4539 56.9779 23.0222C55.1493 24.9015 53.3208 26.7936 51.5176 28.6857C49.7017 30.5777 47.8604 32.3936 45.9684 34.146C45.1811 35.2888 44.3684 36.5206 43.5303 37.8412C42.6922 39.1619 41.8922 40.546 41.1303 41.9936C41.943 42.5015 42.8827 42.8952 43.9366 43.1618C44.9906 43.4285 46.197 43.5428 47.5684 43.5174V43.5301ZM57.9684 22.0063C57.7652 22.3872 57.8033 22.8063 58.0827 23.2634C58.362 23.7206 58.9843 24.0888 59.9493 24.3682C60.635 24.546 61.3716 24.6349 62.1589 24.6349C62.9462 24.6349 63.6827 24.546 64.3684 24.3682C63.9112 23.0984 62.9843 22.1587 61.5874 21.5492C60.9017 21.2698 60.3176 21.1301 59.835 21.1301C59.3271 21.1301 58.8954 21.2444 58.5398 21.473L57.9684 22.0063ZM65.9303 23.7587C66.997 23.2761 67.9747 22.6412 68.8509 21.8285C69.7271 21.0285 70.489 20.165 71.1366 19.238C71.7843 18.3111 72.2795 17.3587 72.635 16.3809C72.9906 15.4031 73.1684 14.5015 73.1684 13.6634C73.1684 13.0793 73.0795 12.546 72.9017 12.0761C72.7239 11.6063 72.4319 11.2253 72.0255 10.9079C69.8414 11.9999 67.7335 13.3587 65.7144 14.9841C63.6954 16.6095 61.7017 18.3745 59.7208 20.2793C60.4827 20.2031 61.2827 20.3428 62.1208 20.6984C63.0096 21.0793 63.7589 21.5365 64.3684 22.0571C64.9779 22.5777 65.4985 23.1365 65.9303 23.746V23.7587ZM80.2541 11.7968C82.1589 11.8984 83.5811 11.746 84.5462 11.3523C85.4985 10.9587 85.9684 10.5269 85.9684 10.0444C85.9684 9.61264 85.5747 9.21899 84.762 8.87613C83.962 8.53328 82.7557 8.39359 81.1303 8.43169C79.9366 8.48248 78.7811 8.63486 77.6636 8.87613C76.5462 9.1174 75.4414 9.46026 74.3493 9.87931C75.2382 10.4634 76.1906 10.9079 77.2065 11.2253C78.2223 11.5428 79.2382 11.7333 80.2541 11.7841V11.7968Z" fill="#71717F"/>
<path d="M76.1015 39.6823C76.5079 39.8347 77.1555 39.7204 78.0571 39.3141C78.9587 38.9204 80 38.3617 81.1809 37.6252C82.3619 36.8887 83.619 36.0379 84.9777 35.0728C86.3238 34.1077 87.6571 33.1046 88.9777 32.0633H90.0444C88.5968 33.2061 87.1111 34.3109 85.5873 35.3903C84.0634 36.4696 82.6412 37.422 81.2952 38.2474C79.9619 39.0728 78.7682 39.695 77.7142 40.1268C76.6603 40.5585 75.8603 40.6855 75.3269 40.5077C74.9714 40.4061 74.8063 40.1522 74.8317 39.7458C74.8571 39.3395 75.0349 38.8442 75.3523 38.2601C75.6698 37.676 76.0888 37.0157 76.6222 36.2792C77.1555 35.5426 77.765 34.768 78.4507 33.9553C77.4349 34.8442 76.4571 35.6696 75.5174 36.4315C74.5777 37.1934 73.7396 37.8157 73.0031 38.2982C71.3269 39.3395 69.9682 39.8601 68.9269 39.8601C67.8095 39.8601 67.2507 39.3522 67.2507 38.3363C67.2507 37.549 67.6317 36.5839 68.3936 35.4411C68.7746 34.8823 69.3206 34.1839 70.0317 33.3712C70.7428 32.5458 71.5174 31.6823 72.3555 30.7934C73.1936 29.9046 74.0444 29.0157 74.9079 28.1522C75.7714 27.276 76.5333 26.5014 77.1936 25.8157C77.4476 25.5617 77.6761 25.3966 77.892 25.3204C78.1079 25.2442 78.3492 25.2061 78.6031 25.2061C78.8571 25.2061 79.1111 25.2188 79.3777 25.2569C79.6444 25.295 79.9111 25.3077 80.2031 25.3077C80.6349 25.3077 81.0793 25.2188 81.5365 25.0411C80.6984 25.9299 79.8222 26.8442 78.9079 27.7839C77.9936 28.7236 77.0793 29.6633 76.165 30.603C75.2507 31.5426 74.3492 32.4823 73.4603 33.422C72.5714 34.3617 71.7333 35.276 70.946 36.1649C70.0317 37.2061 69.5746 37.9553 69.5746 38.4125C69.5746 38.768 69.8412 38.9077 70.4 38.8188C70.946 38.73 71.7206 38.349 72.7365 37.6887C73.5238 37.1807 74.438 36.5077 75.4793 35.6569C76.5206 34.8061 77.6 33.8665 78.692 32.8506C79.7968 31.8347 80.9015 30.8061 81.9936 29.7649C83.0857 28.7236 84.0761 27.7585 84.965 26.8696L85.9936 25.803C86.2476 25.549 86.4761 25.3839 86.7047 25.3077C86.9206 25.2315 87.1365 25.1934 87.365 25.1934C87.5682 25.1934 87.7841 25.2061 88.0126 25.2442C88.2412 25.2823 88.4825 25.295 88.7365 25.295C89.1682 25.295 89.6 25.1934 90.0317 24.9903L82.565 32.076C81.6 32.9903 80.673 33.8792 79.7841 34.7426C78.8952 35.6061 78.1333 36.3934 77.4984 37.1046C76.8634 37.8157 76.4063 38.3998 76.1269 38.8569C75.8476 39.3141 75.8349 39.5807 76.0888 39.6569L76.1015 39.6823Z" fill="#71717F"/>
<path d="M105.397 20.4825C106.26 20.0254 106.984 19.7968 107.568 19.7968C107.873 19.7968 108.089 19.873 108.216 20.0127C108.343 20.1524 108.33 20.3428 108.19 20.5841C108.051 20.8254 107.759 21.1174 107.314 21.4349C106.87 21.7651 106.235 22.1206 105.422 22.5016C104.914 22.7301 104.419 22.9714 103.937 23.2C103.454 23.4413 102.971 23.6952 102.489 23.9365C102.083 24.5714 101.816 25.1936 101.689 25.8032C101.562 26.4127 101.498 27.0222 101.498 27.6317C101.498 28.2413 101.524 28.8508 101.6 29.4603C101.663 30.0698 101.689 30.6794 101.689 31.2889C101.689 31.9492 101.613 32.6095 101.46 33.2444C101.308 33.892 101.016 34.5778 100.584 35.2889C100 36.2032 99.3143 37.0032 98.527 37.6762C97.7397 38.3492 96.9016 38.9079 96.0381 39.3651C95.1619 39.8222 94.273 40.1651 93.3968 40.3936C92.5079 40.6222 91.6825 40.7365 90.9206 40.7365C89.854 40.7365 88.9778 40.5206 88.3048 40.1016C87.6318 39.6825 87.3016 39.0476 87.3016 38.2095C87.3016 37.8286 87.3905 37.4095 87.5556 36.9397C87.7206 36.4698 87.9746 35.9619 88.3429 35.4032C88.7492 34.7682 89.2952 34.1206 89.981 33.4603C90.6667 32.8 91.4032 32.2032 92.1905 31.6698C92.9778 31.1365 93.7651 30.7047 94.5524 30.3746C95.3397 30.0444 96.0381 29.8794 96.6476 29.8794C97.181 29.8794 97.5873 30.019 97.8667 30.2984C98.1968 30.6032 98.2603 30.9587 98.0571 31.3651C97.854 31.7714 97.5492 32.127 97.1302 32.4444C96.7111 32.7619 96.2413 32.9905 95.7333 33.1301C95.2254 33.2698 94.8191 33.2317 94.5143 33.0032C94.1587 32.6984 93.7651 32.546 93.3333 32.546C92.6476 32.546 91.9111 32.8254 91.1238 33.3841C90.3365 33.9428 89.7016 34.6032 89.2191 35.3651C88.9143 35.8476 88.6984 36.2794 88.5714 36.6603C88.4444 37.0413 88.381 37.3968 88.381 37.727C88.381 38.3365 88.5968 38.7936 89.0159 39.1111C89.4349 39.4286 89.9683 39.5936 90.6413 39.5936C91.1238 39.5936 91.6444 39.5047 92.2286 39.327C92.8 39.1492 93.3714 38.8825 93.9683 38.527C94.5524 38.1714 95.1238 37.727 95.6825 37.1936C96.2413 36.6603 96.7492 36.0254 97.2064 35.2889C97.7651 34.3746 98.1841 33.4857 98.4762 32.6222C98.7683 31.7587 99.0222 30.8952 99.2635 30.0317C99.4921 29.1682 99.746 28.292 100.025 27.4032C100.305 26.5143 100.711 25.5873 101.244 24.6222C97.3333 26.7809 93.5746 29.2825 89.9683 32.127H88.9016C91.0603 30.4508 93.181 28.9143 95.2635 27.5174C97.346 26.1206 99.5683 24.7873 101.93 23.5174C102.362 22.9333 102.87 22.3746 103.454 21.8286C104.038 21.2825 104.698 20.8381 105.435 20.4825H105.397Z" fill="#71717F"/>
<path d="M114.197 25.0538C114.451 24.7745 114.692 24.5967 114.921 24.5078C115.15 24.4189 115.391 24.3681 115.645 24.3681C115.873 24.3681 116.127 24.3935 116.381 24.4443C116.635 24.4951 116.94 24.5205 117.232 24.5205C117.461 24.5205 117.702 24.5078 117.943 24.4697C118.184 24.4316 118.451 24.3554 118.756 24.2158L117.918 24.9777C117.74 25.13 117.372 25.4602 116.813 25.9427C116.254 26.438 115.581 27.0348 114.807 27.7332C114.032 28.4316 113.181 29.2062 112.254 30.0443C111.327 30.8824 110.413 31.7332 109.511 32.5967C108.61 33.4602 107.746 34.2983 106.921 35.111C106.096 35.9237 105.397 36.6475 104.826 37.3078C104.254 37.9554 103.848 38.4888 103.607 38.9205C103.365 39.3523 103.353 39.6062 103.594 39.6824C104 39.8348 104.648 39.7205 105.55 39.3142C106.451 38.9205 107.492 38.3618 108.673 37.6253C109.854 36.8888 111.111 36.038 112.458 35.0729C113.804 34.1078 115.137 33.1046 116.458 32.0634H117.524C116.077 33.2062 114.591 34.311 113.067 35.3904C111.543 36.4697 110.108 37.4221 108.775 38.2475C107.442 39.0729 106.248 39.6951 105.194 40.1269C104.14 40.5586 103.34 40.6856 102.807 40.5078C102.324 40.3554 102.197 39.9491 102.413 39.2888C102.629 38.6284 103.061 37.8158 103.708 36.8634C104.356 35.911 105.169 34.8697 106.134 33.7396C107.099 32.6094 108.077 31.5046 109.092 30.4126C110.096 29.3205 111.048 28.2919 111.962 27.3396C112.877 26.3872 113.613 25.6253 114.172 25.0284L114.197 25.0538ZM121.854 19.1491C122.058 19.4284 122.045 19.8094 121.816 20.2919C121.588 20.7745 121.181 21.2316 120.597 21.6634C120.038 22.0951 119.48 22.3618 118.921 22.4888C118.362 22.6031 117.981 22.5269 117.778 22.2348C117.55 21.9554 117.55 21.5745 117.791 21.0919C118.032 20.6094 118.438 20.1523 119.023 19.7205C119.581 19.2888 120.14 19.0221 120.686 18.9078C121.232 18.7935 121.613 18.8824 121.854 19.1618V19.1491Z" fill="#71717F"/>
<path d="M134.921 32.0636C133.473 33.2064 131.987 34.3112 130.464 35.3905C128.94 36.4699 127.505 37.4223 126.171 38.2477C124.838 39.0731 123.644 39.6953 122.591 40.127C121.537 40.5588 120.737 40.6858 120.203 40.508C119.67 40.3556 119.403 40.0382 119.403 39.5556C119.403 38.9969 119.733 38.2731 120.394 37.3842C121.054 36.4953 121.854 35.5429 122.794 34.527C123.733 33.5112 124.711 32.4953 125.74 31.4794C126.768 30.4636 127.644 29.5366 128.381 28.6985C129.27 27.708 129.714 26.9588 129.714 26.4509C129.714 26.0953 129.435 25.9683 128.889 26.0445C128.343 26.1334 127.568 26.5143 126.552 27.1747C125.613 27.7842 124.495 28.635 123.2 29.727C121.905 30.8191 120.597 31.9874 119.276 33.2191C117.956 34.4509 116.686 35.6699 115.492 36.8763C114.286 38.0826 113.283 39.0858 112.495 39.8604L108.914 39.8223C109.752 38.9334 110.629 38.0191 111.543 37.0794C112.457 36.1397 113.371 35.2001 114.286 34.2604C115.2 33.3207 116.102 32.381 116.991 31.4413C117.879 30.5016 118.73 29.5874 119.543 28.6985C120.432 27.708 120.876 26.9588 120.876 26.4509C120.876 25.8413 120.216 25.854 118.895 26.489C118.819 26.5397 118.781 26.5397 118.768 26.4636C118.756 26.4001 118.743 26.3366 118.743 26.2477C118.743 26.1588 118.73 26.108 118.692 26.0318C118.654 25.9683 118.591 25.9556 118.476 25.981C119.137 25.6255 119.733 25.3715 120.254 25.1937C120.775 25.0286 121.232 24.9524 121.638 24.9524C122.146 24.9524 122.54 25.0794 122.819 25.3461C123.098 25.6128 123.238 25.981 123.238 26.4382C123.238 27.2509 122.844 28.2413 122.057 29.4096C121.854 29.7651 121.575 30.1588 121.219 30.5905C122.133 29.7778 123.022 29.0159 123.911 28.3048C124.787 27.5937 125.587 27.0096 126.324 26.5524C127.162 26.0191 127.924 25.6255 128.61 25.3715C129.295 25.1175 129.892 24.9905 130.4 24.9905C131.517 24.9905 132.076 25.4985 132.076 26.5143C132.076 27.3016 131.695 28.2667 130.933 29.4096C130.451 30.1207 129.841 30.8572 129.117 31.6191C128.394 32.381 127.632 33.1302 126.857 33.8667C126.07 34.6032 125.283 35.3143 124.508 35.9874C123.733 36.6604 123.06 37.2572 122.476 37.7778C121.892 38.2985 121.448 38.7302 121.156 39.0731C120.864 39.4159 120.787 39.6064 120.94 39.6572C121.346 39.8096 121.994 39.6953 122.895 39.289C123.797 38.8953 124.838 38.3366 126.019 37.6001C127.2 36.8636 128.457 36.0128 129.816 35.0477C131.162 34.0826 132.495 33.0794 133.816 32.0382H134.883L134.921 32.0636Z" fill="#71717F"/>
<path d="M150.273 32.0634C149.181 32.9015 147.987 33.7904 146.692 34.7301C145.397 35.6698 144.076 36.5333 142.743 37.3079C141.41 38.0825 140.102 38.7301 138.819 39.2253C137.537 39.7333 136.368 39.9872 135.289 39.9872C133.943 39.9364 132.978 39.6571 132.381 39.1364C131.784 38.6158 131.479 37.9555 131.479 37.1301C131.479 36.2412 131.797 35.238 132.432 34.1206C133.067 33.0031 133.918 31.8984 134.971 30.8063C136.025 29.7142 137.244 28.711 138.629 27.7841C140.013 26.8571 141.473 26.146 142.997 25.6253C143.657 25.3968 144.368 25.2063 145.143 25.0539C145.918 24.9015 146.654 24.8253 147.34 24.8253C148.254 24.8253 148.978 24.9904 149.524 25.346C150.07 25.6888 150.21 26.273 149.968 27.111C149.816 27.619 149.524 28.165 149.105 28.7491C148.686 29.3333 148.152 29.9047 147.492 30.4634C146.832 31.0222 146.07 31.5555 145.206 32.0634C144.343 32.5714 143.403 32.9904 142.387 33.3206C140.914 33.8285 139.505 34.0825 138.159 34.0825C137.295 34.0825 136.571 33.9555 135.987 33.7015C135.378 34.5142 134.895 35.2888 134.54 35.9999C134.184 36.7237 134.006 37.346 134.006 37.8539C134.006 38.7936 134.629 39.2126 135.873 39.1111C136.787 39.1111 137.816 38.8825 138.959 38.4253C140.102 37.9682 141.283 37.3968 142.489 36.6857C143.695 35.9872 144.876 35.2253 146.045 34.3999C147.213 33.5745 148.279 32.7999 149.244 32.0634H150.273ZM143.111 27.2253C141.968 27.911 140.838 28.7491 139.708 29.7396C138.578 30.7301 137.562 31.7587 136.673 32.8253C136.952 32.9523 137.257 33.0539 137.613 33.1174C137.956 33.1809 138.311 33.2063 138.692 33.2063C139.276 33.2063 139.886 33.1428 140.521 32.9904C141.156 32.8507 141.803 32.6222 142.464 32.292C143.632 31.7333 144.66 31.0222 145.549 30.1587C146.438 29.2952 147.073 28.4952 147.454 27.7587C147.733 27.1999 147.873 26.7809 147.873 26.5015C147.873 26.2476 147.784 26.0698 147.619 25.9682C147.454 25.8666 147.238 25.8158 146.959 25.8158C146.476 25.8158 145.879 25.9555 145.168 26.2349C144.457 26.5142 143.771 26.8444 143.111 27.2253Z" fill="#71717F"/>
<path d="M180.102 20.4825C180.965 20.0254 181.689 19.7968 182.273 19.7968C182.578 19.7968 182.794 19.873 182.921 20.0127C183.048 20.1524 183.035 20.3428 182.908 20.5841C182.769 20.8254 182.489 21.1174 182.057 21.4349C181.626 21.7651 181.003 22.1206 180.191 22.5016C179.683 22.7301 179.188 22.9714 178.705 23.2C178.222 23.4286 177.727 23.6952 177.219 23.9365C176.838 24.5714 176.584 25.1936 176.445 25.8032C176.305 26.4127 176.229 27.0095 176.229 27.5936C176.229 28.1778 176.267 28.8127 176.343 29.4222C176.419 30.0317 176.457 30.654 176.457 31.2889C176.457 31.9238 176.381 32.6095 176.229 33.2698C176.076 33.9301 175.784 34.6032 175.353 35.2889C174.769 36.2032 174.083 37.0032 173.295 37.6762C172.508 38.3492 171.683 38.9079 170.807 39.3651C169.93 39.8222 169.054 40.1651 168.165 40.3936C167.276 40.6222 166.451 40.7365 165.689 40.7365C164.622 40.7365 163.746 40.5206 163.086 40.1016C162.413 39.6825 162.083 39.0476 162.083 38.2095C162.083 37.8286 162.159 37.4095 162.337 36.9397C162.502 36.4698 162.756 35.9619 163.111 35.4032C163.518 34.7682 164.064 34.1206 164.749 33.4603C165.435 32.8 166.172 32.2032 166.959 31.6698C167.746 31.1365 168.534 30.7047 169.321 30.3746C170.108 30.0444 170.807 29.8794 171.416 29.8794C171.949 29.8794 172.356 30.019 172.635 30.2984C172.965 30.6032 173.029 30.9587 172.826 31.3651C172.622 31.7714 172.305 32.127 171.886 32.4444C171.467 32.7619 170.997 32.9905 170.502 33.1301C169.994 33.2698 169.588 33.2317 169.283 33.0032C168.927 32.6984 168.534 32.546 168.102 32.546C167.746 32.546 167.378 32.6222 166.997 32.7746C166.616 32.927 166.235 33.1301 165.88 33.3841C165.511 33.6381 165.156 33.9301 164.826 34.2857C164.495 34.6286 164.203 34.9841 163.949 35.3651C163.391 36.3047 163.111 37.0921 163.111 37.727C163.111 38.3619 163.327 38.7936 163.759 39.1111C164.191 39.4286 164.737 39.5936 165.397 39.5936C165.88 39.5936 166.4 39.5047 166.972 39.327C167.543 39.1492 168.127 38.8825 168.711 38.527C169.295 38.1714 169.867 37.727 170.426 37.1936C170.984 36.6603 171.492 36.0254 171.949 35.2889C172.508 34.3746 172.94 33.4857 173.232 32.6222C173.524 31.7587 173.778 30.8952 174.007 30.0317C174.235 29.1682 174.489 28.292 174.769 27.4032C175.048 26.5143 175.454 25.5873 175.988 24.6222C174.845 25.2571 173.676 25.9936 172.483 26.819C171.289 27.6444 170.095 28.4317 168.902 29.2063C167.708 29.9682 166.527 30.6286 165.359 31.2127C164.191 31.7841 163.048 32.1397 161.93 32.292C161.803 33.5111 161.372 34.6413 160.635 35.6825C159.899 36.7238 158.997 37.6254 157.943 38.3873C156.889 39.1492 155.746 39.746 154.515 40.1651C153.283 40.5841 152.102 40.7746 150.984 40.7492C149.765 40.6984 148.889 40.4317 148.356 39.9619C147.822 39.4921 147.556 38.9079 147.556 38.1968C147.556 37.6127 147.721 36.9905 148.051 36.3301C148.381 35.6698 148.838 35.0476 149.435 34.4508C150.032 33.854 150.73 33.3079 151.53 32.8254C152.33 32.3428 153.194 32 154.134 31.7968C154.642 31.6698 155.149 31.5809 155.67 31.5428C156.191 31.5047 156.724 31.4921 157.257 31.4921C157.562 31.4921 157.867 31.4921 158.172 31.5047C158.476 31.5174 158.781 31.5301 159.086 31.5301C159.264 30.9714 159.416 30.4127 159.569 29.8667C159.708 29.3206 159.861 28.7619 160.026 28.1905C160.191 27.619 160.381 27.0349 160.597 26.4381C160.813 25.8413 161.092 25.2317 161.448 24.6222C159.467 25.7143 157.549 26.8825 155.695 28.127C153.842 29.3714 152 30.7047 150.172 32.127H149.143C151.302 30.4508 153.422 28.9143 155.505 27.5174C157.588 26.1206 159.81 24.7873 162.172 23.5174C162.603 22.9333 163.111 22.3746 163.683 21.8286C164.254 21.2825 164.902 20.8381 165.638 20.4825C166.502 20.0254 167.226 19.7968 167.81 19.7968C168.115 19.7968 168.33 19.873 168.457 20.0127C168.584 20.1524 168.572 20.3428 168.445 20.5841C168.305 20.8254 168.013 21.1174 167.569 21.4349C167.124 21.7651 166.502 22.1206 165.676 22.5016C165.169 22.7301 164.673 22.9714 164.216 23.2C163.746 23.4413 163.251 23.6952 162.743 23.9365C162.362 24.5714 162.108 25.1936 161.981 25.8032C161.854 26.4127 161.791 27.0095 161.791 27.5936C161.791 28.254 161.829 28.9016 161.905 29.5238C161.981 30.146 162.007 30.7936 161.981 31.4413C162.972 31.3397 164.127 30.9587 165.435 30.2984C166.743 29.6381 168.076 28.8889 169.435 28.0508C170.794 27.2127 172.102 26.3746 173.384 25.5365C174.654 24.6984 175.746 24.0254 176.661 23.5174C177.092 22.9333 177.588 22.3746 178.159 21.8286C178.73 21.2825 179.378 20.8381 180.115 20.4825H180.102ZM151.264 39.5682C152.203 39.492 153.067 39.2254 153.867 38.7682C154.667 38.3111 155.391 37.7524 156.026 37.0794C156.661 36.4063 157.207 35.6698 157.676 34.8571C158.146 34.0444 158.527 33.2317 158.807 32.419C158.476 32.419 158.146 32.419 157.829 32.4063C157.511 32.3936 157.194 32.3809 156.864 32.3809C156.407 32.3809 155.949 32.3936 155.492 32.419C155.035 32.4444 154.578 32.5079 154.121 32.6095C153.283 32.7873 152.521 33.0794 151.835 33.4603C151.149 33.854 150.565 34.2984 150.083 34.7936C149.6 35.2889 149.232 35.7968 148.978 36.3301C148.724 36.8635 148.597 37.3587 148.597 37.8159C148.597 38.4 148.813 38.8698 149.232 39.2127C149.651 39.5555 150.324 39.6825 151.264 39.5809V39.5682ZM165.702 21.1682C165.321 21.3714 164.965 21.6 164.622 21.8667C164.28 22.1333 163.962 22.4254 163.683 22.7174C164.013 22.5397 164.33 22.3746 164.648 22.2222C164.965 22.0698 165.295 21.9174 165.651 21.7651C166.311 21.4603 166.781 21.219 167.048 21.0413C167.315 20.8635 167.442 20.7492 167.442 20.6984C167.442 20.5968 167.251 20.5968 166.895 20.6857C166.527 20.7746 166.121 20.927 165.689 21.1682H165.702ZM180.14 21.7778C180.8 21.473 181.257 21.2317 181.524 21.054C181.791 20.8762 181.93 20.7619 181.93 20.7111C181.93 20.6095 181.753 20.6095 181.397 20.6984C181.042 20.7873 180.648 20.9397 180.216 21.1809C179.81 21.3841 179.442 21.6127 179.099 21.8794C178.756 22.146 178.451 22.4381 178.159 22.7301C178.489 22.5524 178.819 22.3873 179.149 22.2349C179.48 22.0825 179.81 21.9301 180.14 21.7778Z" fill="#71717F"/>
<path d="M27.3268 41.0792C28.8697 41.0792 30.1204 39.8284 30.1204 38.2855C30.1204 36.7426 28.8697 35.4919 27.3268 35.4919C25.7839 35.4919 24.5331 36.7426 24.5331 38.2855C24.5331 39.8284 25.7839 41.0792 27.3268 41.0792Z" fill="#71717F"/>
<path d="M26.2223 22.3238H30.235V29.0032H21.3207C21.4477 28.7873 21.5747 28.5587 21.7016 28.3428C22.6159 26.819 23.7207 25.2825 24.9778 23.7587C25.3842 23.2762 25.7905 22.7936 26.2223 22.3238Z" fill="#71717F"/>
<path d="M32.6603 11.0474V11.0728C32.127 11.4284 31.5937 11.8093 31.0603 12.203C29.3333 13.4728 27.6698 14.8824 26.1206 16.3808C25.6635 16.8252 25.2064 17.2697 24.7619 17.7268H7.30159V19.7712C7.30159 20.6347 7.39048 21.4855 7.55556 22.3236H20.8381C19.8857 23.5935 19.0349 24.876 18.2984 26.1458C17.7397 27.0982 17.2444 28.0506 16.8254 29.003H7.30159V36.0379C7.30159 37.7268 7.39048 39.403 7.55556 41.0792H0L0.253968 38.5649V11.7585C0.533333 11.4792 0.698413 11.3268 0.965079 11.0474H32.6603Z" fill="#71717F"/>
<path d="M30.8569 17.7269C31.441 17.2063 32.0378 16.6983 32.6601 16.2158V17.7269H30.8569Z" fill="#71717F"/>
</g>
<defs>
<clipPath id="clip0_2013_757">
<rect width="183" height="60" fill="white"/>
</clipPath>
</defs>
</svg>
