<svg width="225" height="60" viewBox="0 0 225 60" fill="none" xmlns="http://www.w3.org/2000/svg">
<g clip-path="url(#clip0_2013_756)">
<path d="M32.7695 21C34.6997 19.2476 36.7949 17.4571 39.068 15.6032C41.341 13.7492 43.6902 12.0857 46.1156 10.5746C48.541 9.06349 50.9918 7.81905 53.468 6.86667C55.9441 5.91429 58.3441 5.41905 60.6806 5.41905C61.6457 5.41905 62.4838 5.53333 63.1949 5.7619C63.906 5.99048 64.5029 6.29524 64.9854 6.67619C65.468 7.05714 65.8235 7.50159 66.0521 7.99683C66.2807 8.49206 66.3949 9 66.3949 9.53333C66.3949 10.8032 66.0013 11.946 65.2013 12.9492C64.4013 13.9524 63.3346 14.8413 62.0013 15.6159C60.668 16.3905 59.1441 17.0635 57.4553 17.6349C55.7664 18.2064 53.9886 18.7016 52.16 19.1206C50.3314 19.5397 48.5156 19.8952 46.7378 20.1873C44.9473 20.4794 43.2965 20.7333 41.7981 20.9238C40.2997 21.127 39.0299 21.3048 37.9886 21.4571C36.9473 21.6095 36.2616 21.7492 35.9314 21.8762C33.5695 24.1873 31.6394 26.4476 30.1283 28.6571C28.6172 30.8667 27.4108 32.9619 26.5346 34.9429C25.8235 36.5429 25.468 37.927 25.468 39.0952C25.468 40.6698 26.0521 41.8 27.2203 42.4984C28.3886 43.1968 29.887 43.5524 31.7156 43.5524C32.1219 43.5524 32.5283 43.5397 32.9473 43.5016C33.3664 43.4635 33.7981 43.4127 34.2679 43.3746C34.6997 41.0127 35.4489 38.6381 36.541 36.2508C37.6203 33.8635 38.9283 31.6413 40.4394 29.5841C41.2775 28.4413 42.1283 27.4635 43.0172 26.6254C43.8933 25.8 44.7568 25.1143 45.6076 24.5683C46.4584 24.0222 47.2838 23.6159 48.0965 23.3746C48.9092 23.1206 49.6584 22.9937 50.3441 22.9937C51.487 22.9937 52.414 23.3365 53.1251 23.9968C53.8362 24.6698 54.1918 25.6222 54.1918 26.8413C54.1918 27.9079 53.8743 29.1651 53.2394 30.6C52.6045 32.0349 51.5632 33.6476 50.1156 35.4127C49.1759 36.581 48.1219 37.6476 46.941 38.6127C45.76 39.5778 44.5156 40.4286 43.2076 41.1778C41.8997 41.927 40.541 42.5492 39.1441 43.0444C37.7473 43.5397 36.3632 43.9079 34.9918 44.1365C34.8394 45.127 34.7632 46.1048 34.7632 47.0698C34.7632 49.3048 35.233 51.3238 36.1473 53.127C37.0743 54.9302 38.5854 56.3016 40.6933 57.2413C40.7695 57.2667 40.7949 57.3048 40.7568 57.3556C40.7187 57.4064 40.668 57.4698 40.6045 57.546C40.541 57.6222 40.4775 57.7111 40.414 57.8127C40.3505 57.9143 40.3378 58.0159 40.4013 58.1175C39.233 57.6349 38.2299 57.0381 37.4045 56.3143C36.5791 55.5905 35.906 54.7651 35.3854 53.8381C34.8648 52.9111 34.4838 51.8952 34.2426 50.8159C34.0013 49.7238 33.887 48.581 33.887 47.3873C33.887 46.3968 33.9632 45.3683 34.1156 44.3016C33.3791 44.3778 32.6553 44.4159 31.9441 44.4159C30.7505 44.4159 29.6203 44.2889 28.5537 44.0349C27.487 43.781 26.56 43.3873 25.7727 42.854C24.9854 42.3206 24.3632 41.6476 23.906 40.8349C23.4489 40.0222 23.2203 39.0571 23.2203 37.9397C23.2203 37 23.3854 35.9841 23.7156 34.8921C24.3505 32.8857 25.3156 30.7778 26.6235 28.5937C27.9314 26.4095 29.6965 24.1492 31.9441 21.8254C29.76 21.8254 27.8806 21.5968 26.3314 21.1397C24.7695 20.6825 23.487 20.073 22.4838 19.3111C21.4806 18.5492 20.7314 17.673 20.2616 16.6698C19.7791 15.6667 19.5378 14.6127 19.5378 13.4952C19.5378 12.0476 19.9187 10.5873 20.6807 9.10159C21.4426 7.61587 22.5346 6.28254 23.9568 5.07619C25.3791 3.88254 27.0933 2.90476 29.1124 2.14286C31.1314 1.38095 33.4045 1 35.9187 1C37.2394 1 38.3568 1.15238 39.2838 1.45714C40.2108 1.7619 40.9727 2.16825 41.5695 2.67619C42.1664 3.18413 42.5981 3.75556 42.8902 4.41587C43.1695 5.06349 43.3092 5.73651 43.3092 6.44762C43.3092 7.28571 43.1314 8.12381 42.7759 8.93651C42.4203 9.76191 41.9251 10.5111 41.2902 11.1587C40.6553 11.819 39.8934 12.3524 39.0045 12.7587C38.1156 13.1651 37.1378 13.3683 36.0711 13.3683C34.8013 13.3683 33.8108 13.1016 33.1124 12.581C32.414 12.0603 32.0584 11.3746 32.0584 10.5111C32.0584 9.72381 32.3505 8.87302 32.9346 7.95873L33.3156 8.26349C32.9854 8.74603 32.8203 9.26667 32.8203 9.8254C32.8203 10.5111 33.1124 11.1333 33.6838 11.6794C34.2553 12.2254 35.106 12.5048 36.2489 12.5048C37.1632 12.5048 37.9886 12.327 38.7251 11.9841C39.4616 11.6413 40.0965 11.1968 40.6299 10.6254C41.1632 10.0667 41.5822 9.44444 41.8616 8.74603C42.1537 8.04762 42.306 7.33651 42.306 6.6254C42.306 6.01587 42.1791 5.41905 41.9378 4.84762C41.6965 4.27619 41.3156 3.76825 40.8203 3.32381C40.3124 2.87937 39.6648 2.52381 38.8775 2.25714C38.0902 1.99048 37.1378 1.86349 36.0203 1.86349C33.9124 1.86349 31.9695 2.21905 30.1918 2.93016C28.414 3.64127 26.8775 4.56825 25.5949 5.68571C24.3124 6.81587 23.3092 8.07302 22.5854 9.45714C21.8616 10.8413 21.506 12.2127 21.506 13.5587C21.506 14.5492 21.7219 15.5016 22.1283 16.3905C22.5473 17.2921 23.2203 18.0794 24.1346 18.7778C25.0489 19.4635 26.2172 20.0095 27.6394 20.4159C29.0616 20.8222 30.7759 21.0254 32.7822 21.0254L32.7695 21ZM41.1124 29.9143C39.6648 31.8952 38.4203 34.0413 37.3537 36.3397C36.2997 38.6381 35.5505 40.9365 35.1314 43.2476C36.3759 42.9937 37.6203 42.6 38.8648 42.0667C40.1092 41.5333 41.3156 40.8857 42.4838 40.1238C43.6521 39.3619 44.7568 38.5111 45.8108 37.5587C46.8648 36.6063 47.8299 35.5905 48.7187 34.4857C50.141 32.7333 51.1568 31.1841 51.7664 29.8508C52.3759 28.5175 52.6806 27.3873 52.6806 26.4476C52.6806 25.5587 52.4394 24.873 51.9441 24.3905C51.4489 23.9079 50.7886 23.6667 49.9886 23.6667C48.8203 23.6667 47.4489 24.1746 45.8743 25.1778C44.2997 26.181 42.7124 27.7683 41.1124 29.9143ZM36.9219 20.9238C37.2267 20.8222 37.8743 20.7079 38.8648 20.581C39.8553 20.454 41.0362 20.2889 42.4203 20.0857C43.8045 19.8825 45.341 19.6286 47.0299 19.3492C48.7187 19.0571 50.4203 18.7143 52.1092 18.2952C53.7981 17.8762 55.4616 17.4063 57.0616 16.873C58.6616 16.3397 60.0838 15.6921 61.3283 14.9683C62.5727 14.2444 63.5632 13.4317 64.3124 12.5302C65.0616 11.6286 65.4299 10.6254 65.4299 9.49524C65.4299 8.65714 65.1124 7.92063 64.4775 7.28571C63.8426 6.65079 62.7759 6.33333 61.2775 6.33333C60.033 6.33333 58.7378 6.54921 57.4172 6.99365C56.0838 7.4381 54.7251 8.03492 53.341 8.78413C51.9568 9.53333 50.5473 10.4095 49.1251 11.3873C47.7029 12.3778 46.2934 13.419 44.8965 14.4984C43.4997 15.5778 42.1283 16.6698 40.7822 17.7746C39.4362 18.8794 38.141 19.9333 36.8965 20.9111L36.9219 20.9238Z" fill="#FFFFFF"/>
<path d="M74.3693 32.3142C73.7852 32.7714 73.1884 33.2158 72.5915 33.6348C71.9947 34.0539 71.3979 34.4222 70.8011 34.7523C70.2042 35.0825 69.6074 35.3364 68.9979 35.4888C68.3884 35.6539 67.8042 35.7047 67.2455 35.6539C66.636 35.6285 66.1915 35.4253 65.9122 35.0444C65.0487 35.7047 64.1471 36.3396 63.2074 36.9618C62.2677 37.5841 61.3407 38.1301 60.4392 38.6126C59.5376 39.0952 58.6741 39.4888 57.8487 39.7809C57.0233 40.0729 56.2868 40.2126 55.6265 40.2126C54.6868 40.2126 54.0138 40.0348 53.5947 39.6666C53.1757 39.2983 52.9598 38.8158 52.9598 38.2444C52.9598 37.3555 53.3534 36.2888 54.1661 35.019C54.9661 33.7618 56.0328 32.5174 57.3661 31.2856C58.6995 30.0539 60.2106 28.911 61.8995 27.8571C63.5884 26.8031 65.328 26.0539 67.1312 25.5841C68.4011 25.2285 69.5439 25.0507 70.5598 25.0507C71.3471 25.0507 71.982 25.1777 72.4646 25.4317C72.9471 25.6856 73.1884 26.1174 73.1884 26.7269C73.1884 27.0825 73.0995 27.4888 72.9217 27.9587C72.7439 28.4285 72.4392 28.9618 72.0074 29.5841C71.7788 29.9396 71.4487 30.3333 71.0169 30.765C70.5852 31.1968 70.1153 31.6412 69.6328 32.0856C69.1503 32.5301 68.6423 32.9491 68.1471 33.3428C67.6519 33.7364 67.2201 34.0539 66.8773 34.3079C67.055 34.5618 67.3852 34.7269 67.8677 34.8031C68.7566 34.8793 69.6709 34.6507 70.5979 34.1174C71.5249 33.5841 72.4265 32.9745 73.3153 32.2888H74.382L74.3693 32.3142ZM65.6455 34.4856C65.5439 33.9523 65.6455 33.3301 65.963 32.619C66.2804 31.9079 66.763 31.1968 67.436 30.4856C68.3249 29.4698 69.2011 28.7714 70.0773 28.3904C70.9534 28.0095 71.5757 27.9079 71.9566 28.0856C72.236 27.3491 72.2614 26.8285 72.0074 26.5491C71.7661 26.2571 71.3725 26.1047 70.8138 26.1047C70.255 26.1047 69.6582 26.219 68.9598 26.4475C68.2614 26.6761 67.5757 26.9682 66.9153 27.3237C66.0519 27.7809 65.163 28.3269 64.2233 28.9618C63.2963 29.5968 62.3947 30.2698 61.5185 30.9809C60.6423 31.692 59.8169 32.4158 59.0296 33.1523C58.2423 33.8888 57.5566 34.5999 56.9725 35.2856C56.3884 35.9714 55.9185 36.6063 55.5884 37.1777C55.2455 37.7491 55.0677 38.2063 55.0677 38.5618C55.0677 39.0952 55.4233 39.3618 56.1344 39.3618C56.7185 39.3618 57.3915 39.2221 58.1407 38.9428C58.8899 38.6634 59.6773 38.2952 60.528 37.838C61.3788 37.3809 62.2169 36.8602 63.1058 36.2761C63.982 35.692 64.8201 35.0952 65.6455 34.4856Z" fill="#FFFFFF"/>
<path d="M100.541 32.3144C99.0932 33.4572 97.6075 34.562 96.0964 35.6414C94.5853 36.7207 93.1503 37.6731 91.8043 38.4985C90.4583 39.3239 89.2519 39.9461 88.2107 40.3779C87.1567 40.8096 86.3567 40.9366 85.8233 40.7588C85.29 40.6064 85.0234 40.289 85.0234 39.8064C85.0234 39.2477 85.3535 38.5239 86.0138 37.635C86.6742 36.7461 87.4742 35.7937 88.4138 34.7779C89.3535 33.762 90.344 32.7461 91.3853 31.7302C92.4265 30.7144 93.3154 29.7874 94.0519 28.9493C94.9408 27.9588 95.3853 27.2096 95.3853 26.7017C95.3853 26.3461 95.1059 26.2191 94.5599 26.2953C94.0138 26.3842 93.2392 26.7652 92.2234 27.4255C91.2837 28.035 90.1662 28.8858 88.871 29.9779C87.5757 31.0699 86.2678 32.2382 84.9345 33.4699C83.6011 34.7017 82.3313 35.9207 81.1249 37.1271C79.9186 38.3334 78.9154 39.3366 78.1281 40.1112L74.5853 40.0731C75.4234 39.1842 76.2995 38.2699 77.2138 37.3302C78.1281 36.3906 79.0424 35.4509 79.9567 34.5112C80.871 33.5715 81.7726 32.6318 82.6615 31.6922C83.5503 30.7525 84.3884 29.8382 85.1757 28.9493C86.0646 27.9588 86.5091 27.2096 86.5091 26.7017C86.5091 26.3461 86.2424 26.2191 85.6837 26.2953C85.1376 26.3842 84.363 26.7652 83.3472 27.4255C82.5091 27.9588 81.5186 28.6953 80.3884 29.635C79.2583 30.5747 78.1027 31.5906 76.9218 32.6826C75.7408 33.7747 74.5726 34.8795 73.4297 35.9969C72.2868 37.1144 71.2837 38.1048 70.4202 38.9683L69.3154 40.0731H65.7345C66.5726 39.1842 67.4488 38.2699 68.363 37.3302C69.2773 36.3906 70.1916 35.4509 71.1059 34.5112C72.0202 33.5715 72.9218 32.6318 73.8107 31.6922C74.6995 30.7525 75.5503 29.8382 76.363 28.9493C77.2519 27.9588 77.6964 27.2223 77.6964 26.7398C77.6964 26.1048 77.0234 26.1175 75.6773 26.7779C75.6011 26.8033 75.563 26.7779 75.5503 26.7271C75.5376 26.6636 75.5249 26.6001 75.5122 26.5112C75.5122 26.435 75.4742 26.3715 75.4615 26.2953C75.4361 26.2318 75.3726 26.2191 75.271 26.2445C75.9313 25.889 76.5281 25.635 77.0615 25.4572C77.5948 25.2922 78.0646 25.216 78.471 25.216C79.5376 25.216 80.071 25.7112 80.071 26.7017C80.071 27.5144 79.6773 28.5048 78.89 29.6731C78.7884 29.8509 78.6615 30.0414 78.5218 30.2191C78.3821 30.4096 78.217 30.6128 78.0392 30.816C78.9789 30.0033 79.8805 29.2414 80.744 28.5429C81.6075 27.8445 82.3948 27.2731 83.1059 26.8033C84.7821 25.762 86.1408 25.2414 87.1821 25.2414C88.2995 25.2414 88.8583 25.7493 88.8583 26.7652C88.8583 27.5525 88.4773 28.5175 87.7154 29.6604C87.5884 29.8636 87.4488 30.0668 87.3091 30.2445C87.1694 30.435 87.0043 30.6382 86.8265 30.8287C87.7662 30.016 88.6805 29.2541 89.5567 28.5429C90.4329 27.8318 91.2202 27.2477 91.944 26.7906C93.6202 25.7493 94.9789 25.2287 96.0202 25.2287C97.1376 25.2287 97.6964 25.7366 97.6964 26.7525C97.6964 27.5398 97.3154 28.5048 96.5535 29.6477C96.071 30.3588 95.4614 31.0953 94.7503 31.8572C94.0265 32.6191 93.2646 33.3683 92.4773 34.1048C91.69 34.8414 90.9027 35.5525 90.1408 36.2255C89.3662 36.8985 88.6805 37.4953 88.0964 38.016C87.5122 38.5366 87.0678 38.9683 86.7757 39.3112C86.4837 39.6541 86.4075 39.8445 86.5599 39.8953C86.9916 40.0477 87.6646 39.9334 88.5662 39.5271C89.4678 39.1334 90.5091 38.5747 91.69 37.8382C92.871 37.1017 94.1281 36.2509 95.4868 35.2858C96.8329 34.3207 98.1662 33.3175 99.4869 32.2763H100.515L100.541 32.3144Z" fill="#FFFFFF"/>
<path d="M126.751 32.3144C125.303 33.4572 123.817 34.562 122.306 35.6414C120.795 36.7207 119.36 37.6731 118.014 38.4985C116.668 39.3239 115.462 39.9461 114.42 40.3779C113.366 40.8096 112.566 40.9366 112.033 40.7588C111.5 40.6064 111.233 40.289 111.233 39.8064C111.233 39.2477 111.563 38.5239 112.224 37.635C112.884 36.7461 113.684 35.7937 114.624 34.7779C115.563 33.762 116.554 32.7461 117.595 31.7302C118.636 30.7144 119.525 29.7874 120.262 28.9493C121.151 27.9588 121.595 27.2096 121.595 26.7017C121.595 26.3461 121.316 26.2191 120.77 26.2953C120.224 26.3842 119.449 26.7652 118.433 27.4255C117.493 28.035 116.376 28.8858 115.081 29.9779C113.785 31.0699 112.478 32.2382 111.144 33.4699C109.811 34.7017 108.541 35.9207 107.335 37.1271C106.128 38.3334 105.125 39.3366 104.338 40.1112L100.795 40.0731C101.633 39.1842 102.509 38.2699 103.424 37.3302C104.338 36.3906 105.252 35.4509 106.166 34.5112C107.081 33.5715 107.982 32.6318 108.871 31.6922C109.76 30.7525 110.598 29.8382 111.385 28.9493C112.274 27.9588 112.719 27.2096 112.719 26.7017C112.719 26.3461 112.452 26.2191 111.893 26.2953C111.347 26.3842 110.573 26.7652 109.557 27.4255C108.719 27.9588 107.728 28.6953 106.598 29.635C105.468 30.5747 104.312 31.5906 103.131 32.6826C101.951 33.7747 100.782 34.8795 99.6394 35.9969C98.4966 37.1144 97.4934 38.1048 96.6299 38.9683L95.5251 40.0731H91.9442C92.7823 39.1842 93.6585 38.2699 94.5727 37.3302C95.487 36.3906 96.4013 35.4509 97.3156 34.5112C98.2299 33.5715 99.1315 32.6318 100.02 31.6922C100.909 30.7525 101.76 29.8382 102.573 28.9493C103.462 27.9588 103.906 27.2223 103.906 26.7398C103.906 26.1048 103.233 26.1175 101.887 26.7779C101.811 26.8033 101.773 26.7779 101.76 26.7271C101.747 26.6636 101.735 26.6001 101.722 26.5112C101.722 26.435 101.684 26.3715 101.671 26.2953C101.646 26.2318 101.582 26.2191 101.481 26.2445C102.141 25.889 102.738 25.635 103.271 25.4572C103.804 25.2922 104.274 25.216 104.681 25.216C105.747 25.216 106.281 25.7112 106.281 26.7017C106.281 27.5144 105.887 28.5048 105.1 29.6731C104.998 29.8509 104.871 30.0414 104.731 30.2191C104.592 30.4096 104.427 30.6128 104.249 30.816C105.189 30.0033 106.09 29.2414 106.954 28.5429C107.817 27.8445 108.604 27.2731 109.316 26.8033C110.992 25.762 112.351 25.2414 113.392 25.2414C114.509 25.2414 115.068 25.7493 115.068 26.7652C115.068 27.5525 114.687 28.5175 113.925 29.6604C113.798 29.8636 113.658 30.0668 113.519 30.2445C113.379 30.435 113.214 30.6382 113.036 30.8287C113.976 30.016 114.89 29.2541 115.766 28.5429C116.643 27.8318 117.43 27.2477 118.154 26.7906C119.83 25.7493 121.189 25.2287 122.23 25.2287C123.347 25.2287 123.906 25.7366 123.906 26.7525C123.906 27.5398 123.525 28.5048 122.763 29.6477C122.281 30.3588 121.671 31.0953 120.96 31.8572C120.236 32.6191 119.474 33.3683 118.687 34.1048C117.9 34.8414 117.112 35.5525 116.351 36.2255C115.576 36.8985 114.89 37.4953 114.306 38.016C113.722 38.5366 113.278 38.9683 112.985 39.3112C112.693 39.6541 112.617 39.8445 112.77 39.8953C113.201 40.0477 113.874 39.9334 114.776 39.5271C115.678 39.1334 116.719 38.5747 117.9 37.8382C119.081 37.1017 120.338 36.2509 121.697 35.2858C123.043 34.3207 124.376 33.3175 125.697 32.2763H126.725L126.751 32.3144Z" fill="#FFFFFF"/>
<path d="M142.141 32.3142C141.049 33.1523 139.855 34.0412 138.56 34.9809C137.265 35.9206 135.944 36.7841 134.611 37.5587C133.277 38.3333 131.97 38.9809 130.687 39.4761C129.404 39.9841 128.236 40.238 127.157 40.238C125.811 40.1873 124.846 39.9079 124.249 39.3873C123.652 38.8666 123.347 38.2063 123.347 37.3809C123.347 36.492 123.665 35.4888 124.3 34.3714C124.935 33.2539 125.785 32.1492 126.839 31.0571C127.893 29.965 129.112 28.9619 130.497 28.0349C131.881 27.1079 133.341 26.3968 134.865 25.8761C135.525 25.6476 136.236 25.4571 137.011 25.3047C137.785 25.1523 138.522 25.0761 139.208 25.0761C140.122 25.0761 140.846 25.2412 141.392 25.5968C141.938 25.9396 142.077 26.5238 141.836 27.3619C141.684 27.8698 141.392 28.4158 140.973 29C140.554 29.5841 140.02 30.1555 139.36 30.7142C138.7 31.273 137.938 31.8063 137.074 32.3142C136.211 32.8222 135.271 33.2412 134.255 33.5714C132.782 34.0793 131.373 34.3333 130.027 34.3333C129.163 34.3333 128.439 34.2063 127.855 33.9523C127.246 34.765 126.763 35.5396 126.408 36.2507C126.052 36.9746 125.874 37.5968 125.874 38.1047C125.874 39.0444 126.497 39.4634 127.741 39.3619C128.655 39.3619 129.684 39.1333 130.827 38.6761C131.97 38.219 133.15 37.6476 134.357 36.9365C135.563 36.238 136.744 35.4761 137.912 34.6507C139.081 33.8253 140.147 33.0507 141.112 32.3142H142.141ZM134.979 27.4761C133.836 28.1619 132.706 29 131.576 29.9904C130.446 30.9809 129.43 32.0095 128.541 33.0761C128.82 33.2031 129.125 33.3047 129.481 33.3682C129.824 33.4317 130.179 33.4571 130.56 33.4571C131.144 33.4571 131.754 33.3936 132.389 33.2412C133.024 33.1015 133.671 32.873 134.331 32.5428C135.5 31.9841 136.528 31.273 137.417 30.4095C138.306 29.546 138.941 28.746 139.322 28.0095C139.601 27.4507 139.741 27.0317 139.741 26.7523C139.741 26.4984 139.652 26.3206 139.487 26.219C139.322 26.1174 139.106 26.0666 138.827 26.0666C138.344 26.0666 137.747 26.2063 137.036 26.4857C136.325 26.765 135.639 27.0952 134.979 27.4761Z" fill="#FFFFFF"/>
<path d="M157.417 22.9808C157.697 22.9554 157.938 22.9427 158.116 22.93C158.306 22.93 158.484 22.9174 158.636 22.9174C159.297 22.9174 159.474 23.0697 159.17 23.3745C158.865 23.6793 158.192 24.3015 157.151 25.2412C156.973 25.3935 156.617 25.7237 156.071 26.2062C155.525 26.7015 154.852 27.2983 154.065 27.9967C153.278 28.6951 152.427 29.4697 151.513 30.3078C150.598 31.1459 149.684 31.9967 148.77 32.8602C147.855 33.7237 146.979 34.5618 146.154 35.3745C145.328 36.1872 144.63 36.911 144.059 37.5713C143.487 38.2189 143.081 38.7523 142.84 39.184C142.598 39.6158 142.586 39.8697 142.814 39.9459C143.246 40.0983 143.919 39.984 144.82 39.5777C145.722 39.184 146.763 38.6253 147.932 37.8888C149.1 37.1523 150.357 36.3015 151.703 35.3364C153.049 34.3713 154.395 33.3681 155.741 32.3269H156.77C155.322 33.4697 153.836 34.5745 152.313 35.6539C150.789 36.7332 149.354 37.6856 148.02 38.511C146.687 39.3364 145.493 39.9586 144.44 40.3904C143.386 40.8221 142.586 40.9491 142.052 40.7713C141.519 40.5935 141.405 40.1237 141.709 39.3491C142.014 38.5745 142.56 37.6348 143.36 36.5427C144.16 35.4507 145.113 34.2697 146.23 32.9999C147.347 31.73 148.452 30.511 149.519 29.3554C150.598 28.1999 151.576 27.184 152.44 26.2824C153.303 25.3935 153.887 24.784 154.192 24.4539C153.532 24.6062 152.897 24.7459 152.3 24.8602C151.703 24.9745 151.182 25.0634 150.713 25.1142C149.9 25.8507 148.719 26.8793 147.17 28.1999C145.62 29.5205 143.893 30.9174 141.989 32.3904H140.96C141.9 31.6539 142.814 30.9173 143.716 30.2062C144.617 29.4824 145.455 28.7967 146.23 28.1491C147.005 27.5015 147.69 26.9173 148.287 26.3967C148.884 25.8761 149.379 25.4443 149.76 25.1269C149.303 25.0507 149.074 24.8221 149.1 24.4412C149.1 24.0602 149.29 23.6158 149.646 23.1078C149.849 22.8285 150.141 22.4983 150.522 22.1174C150.903 21.7364 151.309 21.3935 151.741 21.0888C152.503 20.53 153.163 20.2507 153.722 20.2507C154.027 20.2507 154.205 20.365 154.268 20.5935C154.332 20.8221 154.217 21.1777 153.913 21.6602C153.709 21.9904 153.405 22.3586 153.011 22.7777C152.617 23.1967 152.16 23.6666 151.652 24.1745C152.389 24.0729 152.973 23.9586 153.43 23.857C153.874 23.7427 154.268 23.6285 154.624 23.5142C154.979 23.3999 155.36 23.2983 155.767 23.2094C156.173 23.1205 156.706 23.057 157.367 22.9935L157.417 22.9808Z" fill="#FFFFFF"/>
<path d="M172.084 32.3143C170.992 33.1524 169.798 34.0413 168.503 34.9809C167.208 35.9206 165.9 36.7841 164.567 37.5587C163.233 38.3333 161.925 38.9809 160.643 39.4762C159.36 39.9841 158.179 40.2381 157.113 40.2381C155.767 40.1873 154.801 39.9079 154.217 39.4C153.633 38.892 153.341 38.2317 153.341 37.419C153.341 36.6825 153.557 35.8571 154.001 34.9428C154.446 34.0286 155.055 33.1143 155.805 32.2C156.567 31.2857 157.468 30.3841 158.497 29.5079C159.525 28.6317 160.63 27.8698 161.824 27.1968C163.017 26.5365 164.249 26.0159 165.519 25.6349C166.789 25.254 168.059 25.0889 169.328 25.1397C170.09 25.1397 170.649 25.3174 171.005 25.6603C171.36 26.0032 171.538 26.4476 171.538 26.9809C171.538 27.5143 171.398 28.0476 171.119 28.6698C170.84 29.292 170.446 29.927 169.938 30.5619C169.43 31.1968 168.82 31.8063 168.109 32.3905C167.398 32.9746 166.611 33.4698 165.747 33.8762C165.468 34.0032 165.214 34.092 165.011 34.1428C164.795 34.1936 164.592 34.219 164.427 34.219C164.071 34.219 163.817 34.1428 163.69 33.9905C163.551 33.8381 163.474 33.6857 163.474 33.5333C163.449 33.3047 163.576 32.9619 163.843 32.5301C164.109 32.0984 164.643 31.6794 165.468 31.3238C166.078 31.0444 166.662 30.7143 167.22 30.3206C167.779 29.927 168.274 29.5333 168.719 29.1143C169.163 28.7079 169.519 28.3143 169.786 27.9206C170.052 27.527 170.192 27.1841 170.192 26.8667C170.192 26.3079 169.722 26.0286 168.782 26.0286C167.97 26.1047 167.081 26.3841 166.116 26.8667C165.151 27.3492 164.186 27.946 163.22 28.6571C162.255 29.3682 161.328 30.1555 160.44 31.0444C159.551 31.9206 158.763 32.7968 158.078 33.673C157.392 34.5492 156.846 35.3873 156.44 36.1619C156.033 36.9492 155.83 37.6095 155.83 38.1428C155.83 38.5746 155.97 38.8921 156.249 39.1079C156.528 39.3238 156.998 39.4127 157.659 39.3619C158.573 39.3619 159.614 39.1333 160.77 38.6762C161.925 38.219 163.106 37.6476 164.313 36.9365C165.519 36.2381 166.7 35.4762 167.868 34.6508C169.036 33.8254 170.103 33.0508 171.068 32.3143H172.097H172.084Z" fill="#FFFFFF"/>
<path d="M177.608 25.3047C177.862 25.0253 178.103 24.8475 178.332 24.7586C178.56 24.6697 178.801 24.6189 179.055 24.6189C179.284 24.6189 179.538 24.6443 179.792 24.6951C180.046 24.7459 180.351 24.7713 180.643 24.7713C180.871 24.7713 181.113 24.7586 181.354 24.7205C181.595 24.6824 181.862 24.6062 182.166 24.4666L181.328 25.2285C181.151 25.3808 180.782 25.711 180.224 26.1935C179.665 26.6888 178.992 27.2856 178.217 27.984C177.443 28.6824 176.592 29.457 175.665 30.2951C174.738 31.1332 173.824 31.984 172.922 32.8475C172.02 33.711 171.157 34.5491 170.332 35.3618C169.506 36.1745 168.808 36.8983 168.236 37.5586C167.665 38.2062 167.259 38.7396 167.017 39.1713C166.776 39.6031 166.763 39.857 167.005 39.9332C167.411 40.0856 168.059 39.9713 168.96 39.565C169.862 39.1713 170.903 38.6126 172.084 37.8761C173.265 37.1396 174.522 36.2888 175.868 35.3237C177.214 34.3586 178.547 33.3554 179.868 32.3142H180.935C179.487 33.457 178.001 34.5618 176.478 35.6412C174.954 36.7205 173.519 37.6729 172.186 38.4983C170.852 39.3237 169.659 39.9459 168.605 40.3777C167.551 40.8094 166.751 40.9364 166.217 40.7586C165.735 40.6062 165.608 40.1999 165.824 39.5396C166.039 38.8793 166.471 38.0666 167.119 37.1142C167.766 36.1618 168.579 35.1205 169.544 33.9904C170.509 32.8602 171.487 31.7554 172.503 30.6634C173.506 29.5713 174.459 28.5427 175.373 27.5904C176.287 26.638 177.024 25.8761 177.582 25.2793L177.608 25.3047ZM185.265 19.3999C185.468 19.6793 185.455 20.0602 185.227 20.5427C184.998 21.0253 184.592 21.4824 184.008 21.9142C183.449 22.3459 182.89 22.6126 182.332 22.7396C181.773 22.8539 181.392 22.7777 181.189 22.4856C180.96 22.2062 180.96 21.8253 181.201 21.3427C181.443 20.8602 181.849 20.4031 182.433 19.9713C182.992 19.5396 183.551 19.2729 184.097 19.1586C184.643 19.0443 185.024 19.1332 185.265 19.4126V19.3999Z" fill="#FFFFFF"/>
<path d="M202.598 25.2285C202.42 25.3809 202.052 25.7111 201.493 26.1936C200.935 26.6889 200.274 27.2857 199.487 27.9841C198.712 28.6825 197.862 29.4571 196.935 30.2952C196.008 31.1333 195.081 31.9841 194.179 32.8476C193.277 33.7111 192.401 34.5492 191.589 35.3619C190.776 36.1746 190.077 36.8984 189.493 37.5587C188.909 38.2063 188.49 38.7397 188.262 39.1714C188.02 39.6032 188.008 39.8571 188.249 39.9333C188.681 40.0857 189.341 39.9714 190.243 39.5651C191.144 39.1714 192.185 38.6127 193.366 37.8762C194.547 37.1397 195.804 36.2889 197.151 35.3238C198.497 34.3587 199.83 33.3555 201.151 32.3143H202.179C200.731 33.4571 199.258 34.5619 197.735 35.6412C196.224 36.7206 194.801 37.673 193.468 38.4984C192.135 39.3238 190.928 39.946 189.874 40.3778C188.808 40.8095 188.008 40.9365 187.474 40.7587C187.119 40.6571 186.966 40.4032 186.992 40.0222C187.03 39.6285 187.208 39.1333 187.512 38.5365C187.817 37.9397 188.236 37.2793 188.782 36.5555C189.328 35.8317 189.951 35.0698 190.636 34.2444C189.697 34.9555 188.706 35.6666 187.665 36.3778C186.624 37.0889 185.595 37.7238 184.579 38.2952C183.563 38.8666 182.585 39.3365 181.646 39.6793C180.706 40.0349 179.868 40.2127 179.131 40.2127C178.166 40.2127 177.468 40.0349 177.036 39.6793C176.604 39.3238 176.389 38.8539 176.389 38.2698C176.389 37.6857 176.579 37.0127 176.935 36.2508C177.303 35.4889 177.824 34.6889 178.471 33.8635C179.131 33.0381 179.906 32.2127 180.82 31.3873C181.722 30.5619 182.687 29.7746 183.728 29.0254C184.77 28.2762 185.862 27.6158 187.017 27.019C188.173 26.4349 189.341 25.9778 190.547 25.6476C191.131 25.4698 191.741 25.3301 192.401 25.2158C193.049 25.1016 193.658 25.0508 194.243 25.0508C195.106 25.0508 195.804 25.2158 196.338 25.546C196.871 25.8762 197.036 26.4857 196.833 27.3746L198.852 25.2793C199.106 25 199.347 24.8222 199.589 24.746C199.83 24.6698 200.071 24.6317 200.325 24.6317C200.579 24.6317 200.833 24.6444 201.1 24.6825C201.366 24.7206 201.658 24.7333 201.963 24.7333C202.166 24.7333 202.382 24.7333 202.624 24.6952C202.865 24.6698 203.106 24.5936 203.36 24.4666L202.56 25.1905L202.598 25.2285ZM179.665 39.3619C180.528 39.3619 181.557 39.0825 182.763 38.5238C183.97 37.9651 185.201 37.2666 186.484 36.4285C187.754 35.5905 188.985 34.7143 190.179 33.7873C191.373 32.8603 192.376 32.0476 193.189 31.3365C193.519 30.9555 193.849 30.5873 194.179 30.219C194.509 29.8508 194.852 29.4825 195.208 29.127C195.69 28.3143 195.931 27.6666 195.931 27.1841C195.931 26.473 195.462 26.1174 194.522 26.1174C193.989 26.1174 193.366 26.2317 192.643 26.4603C191.919 26.6889 191.157 27.0063 190.37 27.4127C189.049 28.0984 187.69 28.9746 186.306 30.0158C184.922 31.0698 183.665 32.1492 182.535 33.2412C181.404 34.3333 180.477 35.3746 179.754 36.3524C179.03 37.3301 178.674 38.0793 178.674 38.6254C178.674 39.1714 179.004 39.3873 179.665 39.3873V39.3619Z" fill="#FFFFFF"/>
<path d="M197.112 39.9333C197.544 40.0857 198.217 39.9714 199.106 39.5651C200.008 39.1714 201.049 38.6127 202.217 37.8762C203.385 37.1397 204.643 36.2889 205.989 35.3238C207.335 34.3587 208.681 33.3556 210.027 32.3143H211.055C209.608 33.4571 208.122 34.5619 206.598 35.6413C205.074 36.7206 203.639 37.673 202.306 38.4984C200.973 39.3238 199.779 39.946 198.725 40.3778C197.671 40.8095 196.871 40.9365 196.338 40.7587C195.906 40.6317 195.754 40.3016 195.855 39.7683C195.957 39.2349 196.274 38.5873 196.757 37.8127C197.239 37.0381 197.862 36.1746 198.624 35.2222C199.385 34.2698 200.211 33.3175 201.1 32.3397C202.37 30.9175 203.754 29.4317 205.252 27.8825C206.751 26.3333 208.3 24.7587 209.9 23.1587C211.5 21.5587 213.125 19.9587 214.776 18.3587C216.427 16.7587 218.052 15.1841 219.652 13.6349C219.855 13.4317 220.071 13.2921 220.325 13.2159C220.566 13.1397 220.808 13.1016 221.062 13.1016C221.493 13.1016 221.938 13.1397 222.395 13.2159C222.852 13.2921 223.297 13.2413 223.728 13.0635C221.925 14.7905 220.198 16.454 218.547 18.0413C216.897 19.6286 215.271 21.2032 213.658 22.7651C212.046 24.327 210.408 25.9016 208.744 27.4762C207.081 29.0508 205.354 30.6762 203.576 32.3524C202.611 33.2667 201.684 34.1556 200.795 35.019C199.906 35.8825 199.144 36.6698 198.509 37.381C197.874 38.0921 197.417 38.6762 197.138 39.1333C196.858 39.5905 196.846 39.8571 197.1 39.9333H197.112Z" fill="#FFFFFF"/>
<path d="M29.8996 41.33C31.4425 41.33 32.6933 40.0792 32.6933 38.5363C32.6933 36.9934 31.4425 35.7427 29.8996 35.7427C28.3568 35.7427 27.106 36.9934 27.106 38.5363C27.106 40.0792 28.3568 41.33 29.8996 41.33Z" fill="#FFFFFF"/>
<path d="M26.9919 22.5871C27.6776 22.7395 28.4015 22.8538 29.1761 22.9427C27.7157 24.6189 26.4967 26.2951 25.5316 27.9205C25.2649 28.3649 25.011 28.8221 24.7697 29.2665H7.34749V36.3014C7.34749 37.9903 7.42368 39.6665 7.58876 41.3427H0.0332031L0.287171 38.8284V12.0221C0.566536 11.7427 0.731616 11.5903 1.01098 11.311H18.484C18.3189 12.0348 18.2427 12.7459 18.2427 13.457C18.2427 14.7649 18.5348 16.0221 19.0935 17.1903C19.2205 17.4697 19.3729 17.7363 19.538 17.9903H7.34749V20.0348C7.34749 20.8983 7.42368 21.749 7.58876 22.5871H26.9919Z" fill="#FFFFFF"/>
<path d="M32.6937 13.8125V17.9903H25.2651C25.1382 17.9141 25.0112 17.8252 24.8842 17.7363C24.135 17.1776 23.6144 16.5554 23.2842 15.8443C22.9413 15.1078 22.7763 14.3332 22.7763 13.5332C22.7763 12.8094 22.9032 12.0729 23.1572 11.311H30.8651C31.0429 12.2252 31.5509 12.9998 32.3382 13.584C32.4525 13.6729 32.5667 13.749 32.6937 13.8125Z" fill="#FFFFFF"/>
</g>
<defs>
<clipPath id="clip0_2013_756">
<rect width="224" height="60" fill="white" transform="translate(0.0332031)"/>
</clipPath>
</defs>
</svg>
