<svg width="154" height="60" viewBox="0 0 154 60" fill="none" xmlns="http://www.w3.org/2000/svg">
<g clip-path="url(#clip0_2013_758)">
<path d="M26.9423 42.9007C27.4161 42.8009 27.8932 42.6819 28.3702 42.5371C27.8705 42.994 27.202 43.2739 26.4686 43.2739C26.1538 43.2739 25.8487 43.2224 25.5664 43.1259C26.0175 43.0744 26.475 43.0004 26.9423 42.9007Z" fill="#FFFFFF"/>
<path d="M29.2671 40.5011C29.2671 40.7617 29.2314 41.0127 29.1633 41.2507C28.352 41.5532 27.5342 41.7912 26.7359 41.9585C25.8954 42.1355 25.0712 42.232 24.2858 42.2417C23.8997 41.7655 23.666 41.1606 23.666 40.5011C23.666 38.9665 24.9186 37.7246 26.4666 37.7246C28.0145 37.7246 29.2671 38.9665 29.2671 40.5011Z" fill="#FFFFFF"/>
<path d="M19.9418 24.6592H21.8694C21.149 25.6211 20.5 26.5831 19.9126 27.5483C19.1467 28.8159 18.5107 30.061 18.0077 31.2867H16.502C17.0439 29.7553 17.774 28.2046 18.6924 26.6378C19.0786 25.975 19.4972 25.3187 19.9418 24.6592Z" fill="#FFFFFF"/>
<path d="M29.1478 13.4697C27.9341 14.4285 26.7594 15.4483 25.6366 16.5133C24.4359 17.6586 23.2904 18.8586 22.2259 20.0973H7.32103V22.1274C7.32103 22.9832 7.39891 23.8293 7.5774 24.6594H18.7796C18.4519 25.1581 18.1436 25.6567 17.8515 26.1554C16.8682 27.8284 16.0829 29.511 15.515 31.155C15.4988 31.2001 15.4858 31.2419 15.4728 31.287H7.32103V38.2684C7.32103 39.9446 7.39891 41.6079 7.5774 43.2713H0L0.256366 40.7779V14.1743C0.535448 13.8976 0.70095 13.7464 0.980032 13.4697H29.1478Z" fill="#FFFFFF"/>
<path d="M30.2784 24.6592V31.2867H19.0664C19.524 30.2218 20.0886 29.1376 20.7506 28.0437C21.4321 26.9177 22.2142 25.7852 23.0871 24.6592H30.2784Z" fill="#FFFFFF"/>
<path d="M32.7046 13.7561V13.9877C32.565 14.0874 32.4287 14.1904 32.2892 14.2933C30.6212 15.5449 29.0376 16.8897 27.5351 18.3278C26.9282 18.9069 26.3408 19.4957 25.7632 20.0973H23.5176C24.4003 19.1032 25.3316 18.1412 26.3116 17.2114C27.7135 15.8762 29.1836 14.6312 30.725 13.4697H31.7116C32.7727 13.4762 32.7046 13.5469 32.7046 13.7561Z" fill="#FFFFFF"/>
<path d="M28.2088 19.0226C29.6237 17.6649 31.136 16.378 32.7034 15.1973V20.0972H27.1152C27.4754 19.7336 27.8389 19.3765 28.2088 19.0226Z" fill="#FFFFFF"/>
<path d="M85.0742 8.34779C84.1688 7.8845 82.7247 7.59816 80.7387 7.49843C80.5342 7.47269 80.3298 7.45982 80.1286 7.45982H79.5185C78.2432 7.45982 77.0068 7.55956 75.8125 7.76225C74.6151 7.96493 73.4436 8.24162 72.2981 8.59552C71.5322 7.81372 70.9481 6.92897 70.5392 5.94449C70.1336 4.96001 69.9291 3.87579 69.9291 2.68862C69.9291 2.15777 69.968 1.62692 70.0427 1.09607C70.0427 1.02207 70.0102 0.989898 69.9486 1.00277C69.8837 1.01564 69.809 1.04137 69.7182 1.07998C69.6306 1.11859 69.5332 1.14111 69.4326 1.15398C69.332 1.16685 69.2411 1.12181 69.1665 1.02207C69.0627 1.60118 69.014 2.22211 69.014 2.87843C69.014 4.1396 69.2152 5.2753 69.6241 6.28552C70.0297 7.29574 70.5781 8.19336 71.2661 8.97516C71.2142 8.97516 71.1752 8.98159 71.1525 8.99124C71.1266 9.00733 71.1006 9.01376 71.0746 9.01376C69.981 8.30596 68.7252 7.79442 67.3135 7.47913C65.8986 7.16383 64.4059 7.00619 62.8255 7.00619C61.0699 7.00619 59.2915 7.18314 57.497 7.53704C55.7024 7.88772 53.963 8.37031 52.282 8.97516C51.977 8.72099 51.62 8.47004 51.2144 8.21588C49.7638 7.40835 48.1056 7.00619 46.2493 7.00619C44.7209 7.00619 43.1113 7.26357 41.4173 7.78155C39.7234 8.29953 38.0099 9.01376 36.2803 9.92103C34.5474 10.8283 32.8339 11.9093 31.1432 13.1576C31.0037 13.2606 30.8641 13.3635 30.7246 13.4697C29.1832 14.6311 27.7131 15.8762 26.3112 17.2114C25.3312 18.1411 24.3998 19.1031 23.5171 20.0972C23.0174 20.6538 22.5371 21.2169 22.0731 21.7927C21.3007 22.7451 20.59 23.7006 19.941 24.6593C19.4964 25.3189 19.0778 25.9752 18.6916 26.638C17.7733 28.2048 17.0431 29.7555 16.5012 31.2869C16.4784 31.348 16.4557 31.4059 16.4363 31.4671C15.8911 33.0564 15.6152 34.5717 15.6152 36.0099C15.6152 37.2485 15.8456 38.3971 16.3032 39.4588C16.764 40.5172 17.4747 41.4631 18.4418 42.2964C19.2336 42.9527 20.1876 43.4256 21.3072 43.7184C22.4268 44.008 23.6113 44.1528 24.8606 44.1528C25.7238 44.1528 26.5903 44.0884 27.4567 43.9629C28.3232 43.8375 29.1767 43.6734 30.0139 43.4707C32.3342 42.8658 34.5668 41.9007 36.7184 40.5752C38.8699 39.2496 40.9792 37.715 43.0399 35.9712C42.1734 37.3096 41.3135 38.7124 40.4633 40.1762C39.6098 41.6401 38.8439 43.1168 38.1689 44.6064C37.494 46.096 36.9488 47.5534 36.5269 48.9819C36.1083 50.4071 35.8973 51.7391 35.8973 52.9745C35.8973 54.567 36.3192 55.928 37.1597 57.0669C38.0002 58.1993 39.4378 58.9844 41.4725 59.4122C41.3979 59.3125 41.3849 59.216 41.4368 59.1291C41.4887 59.039 41.5439 58.9522 41.6088 58.8653C41.6704 58.7752 41.7224 58.7077 41.7613 58.6562C41.8003 58.6047 41.7808 58.5661 41.7029 58.5436C39.9213 58.1382 38.659 57.4175 37.9223 56.3848C37.1824 55.3488 36.8157 54.1102 36.8157 52.6721C36.8157 51.308 37.0883 49.8151 37.6367 48.184C38.1819 46.5561 38.8764 44.9088 39.7169 43.2423C40.5574 41.5789 41.4725 39.9414 42.4688 38.3392C43.4618 36.737 44.4158 35.2795 45.331 33.9669C46.4019 32.9824 47.4533 31.9722 48.4852 30.9362C49.5139 29.9003 50.5654 28.8418 51.633 27.7543C52.4476 28.5876 53.4373 29.2085 54.5958 29.6107C55.7511 30.0161 57.02 30.2188 58.3926 30.2188C59.4895 30.2188 60.6091 30.0901 61.7546 29.8391C62.9001 29.585 64.023 29.215 65.1166 28.7227C66.2102 28.2305 67.2681 27.6128 68.2871 26.8664C69.306 26.12 70.2212 25.2706 71.0389 24.3119C72.1812 22.9992 73.0672 21.5836 73.6935 20.0683C74.3165 18.553 74.6281 17.0762 74.6281 15.6381C74.6281 14.6279 74.4691 13.6691 74.151 12.7619C73.8298 11.8514 73.3138 11.031 72.6031 10.2975C72.655 10.2975 72.681 10.2878 72.681 10.2621C73.648 10.9956 74.7222 11.5554 75.9067 11.9479C77.0911 12.3372 78.2691 12.5592 79.4406 12.6074C80.5083 12.6621 81.4753 12.6171 82.3418 12.4755C83.2082 12.3372 83.9416 12.1442 84.5387 11.89C85.1358 11.6391 85.6031 11.3334 85.9341 10.9795C86.2619 10.6288 86.4306 10.2749 86.4306 9.92103C86.4306 9.33871 85.9763 8.81751 85.0742 8.34779ZM50.7925 23.855C50.7439 23.6523 50.7179 23.4593 50.7179 23.2695V22.6807C50.7179 21.7734 50.8445 20.863 51.1008 19.9557C51.1235 19.8785 51.1008 19.8495 51.0229 19.8592C50.9483 19.8753 50.8574 19.8913 50.7568 19.9171C50.653 19.9428 50.5524 19.9557 50.4518 19.9557C50.3512 19.9557 50.283 19.9042 50.2603 19.8045C50.1078 20.3353 49.9845 20.8565 49.8969 21.3745C49.806 21.8925 49.7638 22.404 49.7638 22.9091C49.7638 23.7167 49.8774 24.4759 50.1078 25.1805L50.0689 25.2191C48.3879 26.9854 46.7199 28.7292 45.0649 30.444C43.4098 32.162 41.7483 33.7642 40.0803 35.2538C38.4123 36.7434 36.7313 38.0753 35.0374 39.2496C33.3434 40.4239 31.6073 41.3505 29.8257 42.0326C29.3357 42.2224 28.8522 42.3929 28.3686 42.5377C27.8916 42.6825 27.4146 42.8015 26.9408 42.9012C26.4735 43.001 26.0159 43.075 25.5648 43.1264C25.0943 43.1811 24.6302 43.2069 24.1759 43.2069C23.2089 43.2069 22.297 43.0782 21.4435 42.8272C20.59 42.5731 19.8209 42.158 19.133 41.5789C18.3184 40.9194 17.7343 40.1569 17.3773 39.285C17.0204 38.4164 16.8419 37.4641 16.8419 36.4281C16.8419 35.1155 17.1145 33.6999 17.6629 32.1845C17.77 31.8885 17.8868 31.5893 18.0101 31.2869C18.5131 30.0611 19.1492 28.816 19.915 27.5484C20.5024 26.5833 21.1514 25.6213 21.8719 24.6593C22.3262 24.0513 22.8065 23.4432 23.3159 22.8351C24.098 21.8989 24.9158 20.9884 25.766 20.0972C26.3437 19.4956 26.931 18.9069 27.5379 18.3278C29.0404 16.8896 30.624 15.5448 32.292 14.2933C32.4315 14.1903 32.5678 14.0874 32.7074 13.9877C34.2358 12.8648 35.7578 11.8836 37.2765 11.0374C38.9316 10.1173 40.5606 9.39662 42.1637 8.87864C43.7701 8.36387 45.2855 8.10328 46.7101 8.10328C48.1348 8.10328 49.462 8.4057 50.6076 9.01376C50.8347 9.13924 51.0392 9.26471 51.2176 9.39018C48.2905 10.5774 45.4867 12.1602 42.816 14.1421C40.142 16.1239 37.8217 18.4017 35.8649 20.9788C35.4041 21.5836 34.94 22.2657 34.4695 23.0217C33.9957 23.781 33.5641 24.5757 33.1714 25.409C32.7755 26.2422 32.4575 27.0691 32.2141 27.8895C31.974 28.7099 31.8539 29.4724 31.8539 30.1802C31.8539 31.1132 32.1135 31.8853 32.636 32.4902C33.1552 33.095 34.0671 33.4232 35.3651 33.4746C36.3095 33.5229 37.309 33.3653 38.3637 33.0017C39.4216 32.6349 40.4341 32.2231 41.4011 31.7695C41.2745 31.7438 41.1967 31.6826 41.1739 31.5797C41.148 31.4799 41.135 31.3899 41.135 31.3159C41.135 31.2419 41.1285 31.1775 41.1155 31.126C41.1025 31.0778 41.0571 31.0617 40.9825 31.0874C40.142 31.5185 39.2431 31.8853 38.289 32.1845C37.3317 32.4902 36.449 32.6285 35.6345 32.6028C34.5636 32.5545 33.814 32.281 33.3791 31.7888C32.9475 31.2966 32.7301 30.6595 32.7301 29.8777C32.7301 29.2214 32.8534 28.5072 33.0935 27.7383C33.3369 26.9661 33.6485 26.1908 34.0281 25.409C34.4111 24.6272 34.8265 23.8808 35.271 23.173C35.7156 22.4684 36.144 21.8603 36.5496 21.3584C38.5097 18.8071 40.8235 16.555 43.4812 14.5957C46.1423 12.6396 48.9396 11.0953 51.8667 9.95964C52.4768 10.5387 52.9181 11.2208 53.1842 12.0026C53.4503 12.7876 53.5866 13.6305 53.5866 14.541C53.5866 15.9534 53.3172 17.4623 52.785 19.0645C52.2464 20.6699 51.5876 22.2657 50.7958 23.855H50.7925ZM53.7716 18.6302C54.2551 17.0923 54.4985 15.6252 54.4985 14.2386C54.4985 13.3281 54.3784 12.482 54.135 11.7002C53.8949 10.9184 53.4925 10.2106 52.9311 9.58C54.3849 9.07489 55.9555 8.65986 57.6495 8.3317C59.3435 8.00354 61.005 7.83946 62.634 7.83946C64.01 7.83946 65.2951 7.9778 66.4925 8.25449C67.6867 8.53117 68.7187 8.98802 69.5851 9.61861C67.9561 10.3264 66.3789 11.1758 64.8505 12.1731C63.322 13.1705 61.826 14.2643 60.3624 15.4483C58.8989 16.6355 57.4645 17.8934 56.0626 19.2157C54.664 20.5412 53.288 21.8989 51.9413 23.2888C52.678 21.722 53.288 20.1712 53.7716 18.6302ZM70.9805 18.7042C70.3315 20.1712 69.4715 21.5836 68.4006 22.9477C67.638 23.9065 66.817 24.7655 65.9376 25.5216C65.0582 26.2776 64.1495 26.9372 63.2084 27.4905C62.2641 28.0471 61.3035 28.4686 60.3235 28.7581C59.3435 29.0509 58.3926 29.1957 57.4775 29.1957C56.5105 29.1957 55.5856 29.0187 54.7094 28.6648C53.83 28.3109 53.0349 27.7704 52.321 27.0369C53.8235 25.499 55.3325 23.9644 56.848 22.4362C58.3634 20.908 59.8887 19.4441 61.4301 18.0446C62.9715 16.6419 64.5389 15.3486 66.1291 14.1614C67.7192 12.9742 69.3417 11.9543 71 11.0953C71.636 12.0541 71.9541 13.1769 71.9541 14.4638C71.9541 15.8279 71.6296 17.2435 70.9805 18.7042ZM84.0033 11.3012C83.0492 11.6937 81.6181 11.8385 79.7067 11.7388C78.6877 11.6873 77.6688 11.5071 76.653 11.1886C75.6341 10.8733 74.6767 10.4261 73.7876 9.84382C74.8812 9.41592 75.991 9.08132 77.1106 8.84325C78.2302 8.60195 79.3887 8.45717 80.5861 8.4057C82.2152 8.35744 83.4321 8.50222 84.2337 8.84325C85.0352 9.18106 85.4376 9.56713 85.4376 9.99825C85.4376 10.4776 84.9606 10.9119 84.0033 11.3012Z" fill="#FFFFFF"/>
<path d="M86.2778 22.5299C86.1253 22.5299 85.9533 22.5364 85.7618 22.5492C85.5704 22.5621 85.3335 22.5814 85.0544 22.6071C84.3924 22.6586 83.8569 22.7262 83.4513 22.8131C83.0424 22.9031 82.6595 23.0029 82.3058 23.1187C81.9488 23.2313 81.5464 23.3439 81.1018 23.4597C80.654 23.5723 80.0634 23.6785 79.3267 23.7814C79.8362 23.2763 80.2873 22.8131 80.6832 22.398C81.0758 21.9798 81.3744 21.6098 81.5788 21.2816C81.8839 20.8023 82.004 20.4484 81.9423 20.2199C81.8774 19.9947 81.6924 19.8789 81.3874 19.8789C80.826 19.8789 80.1672 20.1588 79.4014 20.7122C78.9697 21.0146 78.5609 21.3588 78.1812 21.7353C77.7983 22.1149 77.5062 22.4431 77.3018 22.7198C76.9448 23.2249 76.7598 23.6656 76.7468 24.0453C76.7338 24.4249 76.9578 24.6501 77.4153 24.7273C77.0324 25.0555 76.5424 25.477 75.9453 25.9949C75.3482 26.5129 74.6602 27.0952 73.8846 27.7387C73.1058 28.3821 72.2653 29.0642 71.3631 29.7817C70.4578 30.5023 69.5329 31.2262 68.5918 31.9597H69.6238C71.5319 30.4959 73.2648 29.106 74.8192 27.7934C76.3704 26.4807 77.5549 25.4609 78.3694 24.7273C78.8302 24.6759 79.3559 24.5954 79.9563 24.4796C80.5534 24.367 81.1829 24.2351 81.8482 24.0839C81.5399 24.412 80.9558 25.0169 80.0893 25.9016C79.2229 26.7864 78.2493 27.7998 77.1655 28.9484C76.0848 30.0969 74.9847 31.3034 73.8619 32.5646C72.7423 33.829 71.7818 35.0001 70.9802 36.0875C70.1787 37.1717 69.6238 38.1015 69.3187 38.8704C69.0137 39.6426 69.1272 40.1155 69.6627 40.2925C70.1981 40.4662 70.9932 40.3407 72.0479 39.9128C73.1058 39.4817 74.3032 38.8576 75.6402 38.0372C76.6138 37.4387 77.6328 36.7728 78.7101 36.0489C78.7101 36.0457 78.7134 36.0457 78.7134 36.0457C78.7134 36.0425 78.7134 36.0425 78.7134 36.0425C79.1125 35.769 79.5182 35.4859 79.9336 35.1963C80.4203 34.8553 80.9038 34.5078 81.3841 34.1571C82.4096 33.4172 83.4156 32.6579 84.4021 31.8857H83.3702C83.3702 31.8857 83.3409 31.9083 83.3247 31.9179C82.1727 32.7994 81.0239 33.652 79.8751 34.4756C79.8751 34.4789 79.8751 34.4789 79.8751 34.4789C79.6934 34.614 79.5084 34.7459 79.3267 34.8746C77.9735 35.8333 76.7144 36.6795 75.5429 37.413C74.3746 38.1433 73.3362 38.7064 72.4308 39.0989C71.5286 39.4881 70.8569 39.6104 70.4253 39.4592C70.1981 39.382 70.2014 39.131 70.4448 38.6999C70.6882 38.272 71.0938 37.7347 71.6682 37.0913C72.2393 36.4478 72.9403 35.7207 73.7678 34.9132C74.5953 34.1057 75.4682 33.2724 76.3834 32.4134C77.3018 31.5576 78.2169 30.7082 79.1353 29.8782C80.0504 29.0449 80.9039 28.2824 81.6924 27.5875C82.481 26.8925 83.1495 26.3006 83.6979 25.8051C84.2463 25.3129 84.6098 24.9911 84.7883 24.8399C85.83 23.9069 86.5082 23.2892 86.81 22.9868C87.1183 22.6811 86.9398 22.5299 86.2778 22.5299Z" fill="#FFFFFF"/>
<path d="M80.5664 37.0912C81.1407 36.4478 81.8385 35.7207 82.666 34.9131C83.4448 34.1539 84.2528 33.3753 85.0998 32.571H85.1031C85.155 32.5163 85.2101 32.4648 85.2653 32.4133C85.7943 31.9114 86.3265 31.416 86.8652 30.9205C87.2448 30.5698 87.6278 30.2224 88.0139 29.8781C88.9421 29.0448 89.7955 28.2823 90.5744 27.5874C91.3499 26.8925 92.0185 26.3005 92.5799 25.805C93.138 25.3128 93.508 24.9911 93.6865 24.8399L94.5269 24.0838C94.2187 24.2093 93.9461 24.2897 93.7059 24.3283C93.4625 24.3669 93.2289 24.3862 92.9985 24.3862C92.6934 24.3862 92.4046 24.3605 92.1385 24.3122C91.8724 24.2608 91.6225 24.235 91.3954 24.235C91.139 24.235 90.8989 24.2801 90.6685 24.3669C90.4381 24.457 90.1979 24.6372 89.9416 24.9171C89.3834 25.4994 88.6435 26.2619 87.7284 27.2078C86.81 28.1537 85.8494 29.1703 84.8435 30.2545C84.639 30.4765 84.4346 30.6985 84.2334 30.9205C83.9283 31.2519 83.6298 31.5833 83.328 31.9179C82.8444 32.4648 82.3609 33.0149 81.8839 33.5683C81.7119 33.7678 81.5464 33.964 81.3874 34.1571C80.6345 35.0547 79.9952 35.8944 79.4598 36.673C79.4468 36.6923 79.4306 36.7148 79.4176 36.7341C78.7913 37.6575 78.3726 38.436 78.1617 39.0795C77.9443 39.7358 78.0773 40.138 78.5609 40.2924C79.0963 40.4661 79.8914 40.3407 80.9493 39.9128C82.004 39.4816 83.2014 38.8575 84.5384 38.0371C85.6125 37.3776 86.7451 36.6376 87.9426 35.814C88.2346 35.6145 88.5332 35.4086 88.835 35.1963C89.2893 34.8777 89.7371 34.5592 90.1817 34.2343C91.2429 33.4654 92.2813 32.6836 93.3035 31.8857H92.2359C91.0839 32.7833 89.9253 33.6552 88.7538 34.4917C88.5786 34.6236 88.4034 34.7491 88.2249 34.8745C86.8749 35.8333 85.6093 36.6794 84.4248 37.4129C83.2404 38.1433 82.1954 38.7063 81.2933 39.0988C80.3879 39.4881 79.7324 39.6103 79.3267 39.4591C79.0963 39.3819 79.1028 39.131 79.3429 38.6999C79.5863 38.272 79.992 37.7347 80.5664 37.0912ZM97.6196 19.0488C97.3892 18.7689 97.003 18.6885 96.4546 18.8011C95.9061 18.9137 95.3544 19.1871 94.793 19.615C94.2089 20.0461 93.7935 20.4998 93.5534 20.9791C93.31 21.4585 93.3035 21.8382 93.5339 22.1148C93.7351 22.3915 94.1181 22.4752 94.6795 22.3594C95.2376 22.2468 95.799 21.9765 96.3604 21.5454C96.9446 21.1175 97.3535 20.6639 97.5806 20.1813C97.811 19.7019 97.824 19.3255 97.6196 19.0488Z" fill="#FFFFFF"/>
<path d="M107.019 31.8846C106.152 32.5409 105.221 33.1458 104.228 33.6992C104.215 33.7056 104.199 33.7152 104.186 33.7217C103.209 34.2654 102.294 34.5453 101.44 34.571C100.548 34.571 100.029 34.1946 99.8761 33.4353C100.691 32.7275 101.492 32.0101 102.281 31.2766C103.069 30.543 103.832 29.7998 104.572 29.0438C105.87 27.6796 106.61 26.663 106.788 25.9938C106.967 25.3246 106.801 24.99 106.292 24.99C105.782 24.99 105.127 25.2699 104.247 25.8233C103.371 26.3799 102.459 27.2131 101.518 28.3231C100.6 29.4105 99.9312 30.3854 99.5126 31.2573C99.0907 32.1291 98.8701 32.8788 98.8441 33.5126C98.0555 34.1657 97.2313 34.8542 96.3811 35.5748C95.5276 36.2955 94.6546 36.9325 93.7622 37.4859C92.7432 38.1422 91.9612 38.5154 91.416 38.6055C90.8676 38.6924 90.5917 38.5604 90.5917 38.2065C90.5917 37.7529 91.0525 37.0065 91.9677 35.9705C92.7595 35.089 93.5967 34.1817 94.4891 33.2455C95.3816 32.3125 96.2837 31.3763 97.2021 30.4433C98.1172 29.5103 99.0356 28.5773 99.9507 27.641C100.869 26.708 101.745 25.7975 102.586 24.916C102.128 25.093 101.671 25.1798 101.21 25.1798C100.931 25.1798 100.658 25.1605 100.392 25.1219C100.123 25.0865 99.8761 25.0672 99.6457 25.0672C99.4153 25.0672 99.1881 25.1058 98.9577 25.1798C98.7273 25.257 98.5001 25.4211 98.2697 25.6721C97.6077 26.3541 96.8451 27.1295 95.9787 28.0014C95.1122 28.8733 94.2587 29.7484 93.4182 30.6331C93.3274 30.7296 93.2365 30.8229 93.1489 30.9194C92.8406 31.2444 92.5388 31.5661 92.25 31.8846C91.8411 32.3286 91.4484 32.7629 91.072 33.1908C90.7378 33.564 90.4424 33.9115 90.1828 34.2332C89.8745 34.6129 89.6149 34.9539 89.4105 35.2531C89.1217 35.6842 88.888 36.0864 88.7063 36.466C88.411 37.0902 88.2617 37.6435 88.2617 38.1325C88.2617 39.1396 88.8231 39.6447 89.9427 39.6447C90.9876 39.6447 92.3506 39.1299 94.0316 38.0939C94.6936 37.6628 95.4497 37.1223 96.3032 36.466C97.1566 35.8097 98.0296 35.0761 98.9188 34.2686C99.1492 35.0504 99.7852 35.4429 100.83 35.4429C101.388 35.4429 101.982 35.3432 102.605 35.1405C102.904 35.044 103.199 34.9314 103.494 34.8027C103.819 34.6643 104.14 34.5035 104.458 34.3265C104.747 34.1657 105.033 33.9951 105.321 33.815C105.646 33.6123 105.967 33.3967 106.292 33.1715C106.902 32.7404 107.489 32.3125 108.047 31.8846H107.019Z" fill="#FFFFFF"/>
<path d="M116.638 37.0909C117.226 36.4474 117.923 35.7203 118.741 34.9128C119.556 34.1052 120.422 33.272 121.337 32.413C122.252 31.5572 123.177 30.7078 124.105 29.8778C125.037 29.0445 125.887 28.282 126.666 27.5871C127.441 26.8921 128.11 26.3002 128.671 25.8047C129.229 25.3125 129.599 24.9907 129.778 24.8395L130.579 24.1221C130.326 24.2475 130.076 24.3215 129.836 24.3473C129.593 24.373 129.369 24.3859 129.168 24.3859C128.863 24.3859 128.574 24.3666 128.308 24.328C128.038 24.2894 127.779 24.2733 127.526 24.2733C127.273 24.2733 127.023 24.3119 126.779 24.3859C126.539 24.4631 126.289 24.6368 126.036 24.9167L124.011 26.9983C124.216 26.1136 124.05 25.5087 123.515 25.1806C122.979 24.8524 122.278 24.6883 121.412 24.6883C120.828 24.6883 120.211 24.7462 119.562 24.8588C118.91 24.9714 118.293 25.1194 117.709 25.2932C116.512 25.6245 115.334 26.0782 114.175 26.6573C113.017 27.2396 111.917 27.9024 110.872 28.6455C109.859 29.3662 108.912 30.1255 108.032 30.9202C108.006 30.9459 107.977 30.9684 107.951 30.9942C107.623 31.2901 107.312 31.5893 107.016 31.8853C106.494 32.4097 106.023 32.9309 105.602 33.4554C105.504 33.5776 105.41 33.6967 105.319 33.8157C104.865 34.4109 104.492 34.9868 104.193 35.5466C104.144 35.6399 104.099 35.73 104.054 35.8233C103.687 36.5793 103.502 37.2485 103.502 37.8276C103.502 38.4067 103.716 38.8765 104.151 39.2304C104.583 39.5843 105.284 39.758 106.251 39.758C106.99 39.758 107.828 39.5843 108.772 39.2304C109.713 38.8765 110.693 38.4164 111.712 37.8469C112.731 37.2807 113.763 36.6405 114.805 35.9359C115.85 35.2281 116.843 34.5203 117.784 33.8157C117.099 34.6232 116.479 35.3857 115.934 36.1064C115.386 36.8271 114.961 37.4802 114.652 38.0754C114.347 38.6673 114.175 39.1596 114.136 39.5521C114.101 39.9414 114.256 40.1891 114.613 40.2921C115.149 40.4658 115.95 40.3403 117.021 39.9124C118.092 39.4813 119.293 38.8572 120.63 38.0367C121.574 37.4576 122.564 36.8142 123.596 36.1096C124.024 35.8168 124.462 35.5112 124.907 35.1959C125.368 34.871 125.825 34.5428 126.28 34.205C127.321 33.4489 128.347 32.6736 129.359 31.8853H128.327C128.327 31.8853 128.311 31.8982 128.305 31.9014C127.123 32.8248 125.932 33.716 124.728 34.5782C124.592 34.6779 124.453 34.7777 124.316 34.8742C122.966 35.8329 121.701 36.6791 120.516 37.4126C119.332 38.1429 118.287 38.7059 117.385 39.0984C116.479 39.4877 115.811 39.61 115.379 39.4588C115.149 39.3816 115.155 39.1306 115.399 38.6995C115.639 38.2716 116.054 37.7343 116.638 37.0909ZM117.326 33.3395C116.129 34.2629 114.896 35.1412 113.624 35.9713C112.348 36.8045 111.109 37.4995 109.898 38.0561C108.688 38.6126 107.649 38.8893 106.786 38.8893C106.124 38.8893 105.793 38.6352 105.793 38.1333C105.793 37.6024 106.156 36.8496 106.88 35.878C107.607 34.9063 108.535 33.8768 109.668 32.7926C110.8 31.7084 112.063 30.6403 113.448 29.5914C114.837 28.5458 116.194 27.6804 117.518 26.9983C118.306 26.5961 119.066 26.2776 119.789 26.0524C120.516 25.824 121.146 25.7114 121.681 25.7114C122.622 25.7114 123.093 26.0653 123.093 26.7731C123.093 27.2525 122.853 27.8959 122.369 28.7035C122.012 29.0574 121.668 29.4177 121.337 29.7812C121.006 30.148 120.675 30.5212 120.344 30.8976C119.53 31.6054 118.524 32.4194 117.326 33.3395Z" fill="#FFFFFF"/>
<path d="M143.532 19.8789C143.123 20.0559 142.691 20.1073 142.23 20.0301C141.773 19.9561 141.328 19.9175 140.893 19.9175C140.64 19.9175 140.403 19.9497 140.189 20.014C139.972 20.0752 139.761 20.2103 139.556 20.4098L135.393 24.4989H132.339L131.804 25.3708H134.517C133.371 26.5322 132.281 27.655 131.249 28.7425C130.548 29.4792 129.87 30.2063 129.211 30.9206C128.903 31.2519 128.604 31.5769 128.306 31.9018C128.306 31.9083 128.296 31.9147 128.289 31.9211C127.579 32.6868 126.91 33.4493 126.281 34.2054C126.118 34.3984 125.963 34.5882 125.807 34.7813C125.223 35.5052 124.72 36.1808 124.298 36.8017C124.168 36.9915 124.048 37.1749 123.934 37.3551C123.451 38.1272 123.152 38.7771 123.039 39.3048C122.922 39.8356 123.084 40.1638 123.516 40.2925C124.051 40.4662 124.846 40.3407 125.901 39.9128C126.959 39.4817 128.156 38.8576 129.493 38.0372C130.83 37.2168 132.261 36.2709 133.79 35.1963C133.946 35.0869 134.101 34.9775 134.257 34.8649C134.825 34.4628 135.39 34.0542 135.948 33.6424C136.727 33.0665 137.499 32.4777 138.258 31.8857H137.191C136.396 32.5067 135.594 33.1147 134.789 33.7067C134.254 34.1024 133.718 34.4917 133.18 34.8746C131.83 35.8333 130.567 36.6795 129.396 37.413C128.228 38.1433 127.189 38.7064 126.284 39.0989C125.382 39.4881 124.713 39.6104 124.278 39.4592C124.025 39.382 124.038 39.1149 124.317 38.6613C124.6 38.2077 125.057 37.6286 125.693 36.9208C126.329 36.213 127.095 35.4312 127.984 34.5722C128.714 33.8708 129.467 33.1534 130.246 32.4198C130.421 32.2525 130.597 32.0884 130.772 31.9211C131.132 31.5833 131.492 31.2519 131.846 30.9206C133.916 28.987 135.876 27.1371 137.723 25.3708H142.192L142.766 24.5375H138.641L143.532 19.8789Z" fill="#FFFFFF"/>
<path d="M152.622 31.8845C151.652 32.6148 150.584 33.3902 149.412 34.2106C148.241 35.031 147.05 35.7903 145.84 36.482C144.632 37.1769 143.454 37.7528 142.309 38.2065C141.163 38.6601 140.131 38.8885 139.213 38.8885C137.967 38.9883 137.344 38.5732 137.344 37.637C137.344 37.1351 137.519 36.5206 137.876 35.8032C138.233 35.0825 138.716 34.32 139.33 33.5125C139.914 33.7634 140.641 33.8889 141.504 33.8889C142.854 33.8889 144.269 33.6379 145.745 33.1328C146.764 32.8047 147.705 32.3896 148.572 31.8845C149.438 31.3762 150.201 30.8486 150.863 30.292C151.525 29.7386 152.067 29.1692 152.486 28.5868C152.907 28.0077 153.193 27.464 153.346 26.9589C153.602 26.1256 153.453 25.5401 152.907 25.199C152.359 24.858 151.629 24.6875 150.71 24.6875C150.022 24.6875 149.292 24.7647 148.514 24.9159C147.738 25.0671 147.017 25.257 146.355 25.4822C144.83 25.9873 143.37 26.7015 141.984 27.6216C140.595 28.545 139.372 29.5488 138.317 30.633C138.223 30.7295 138.132 30.8228 138.048 30.9193C137.743 31.2411 137.461 31.5596 137.198 31.8845C136.721 32.4669 136.302 33.0524 135.948 33.6412C135.887 33.7377 135.832 33.831 135.776 33.9275C135.465 34.4712 135.231 34.9828 135.075 35.4686C134.907 35.9833 134.822 36.4659 134.822 36.9195C134.822 37.7271 135.121 38.3898 135.718 38.9078C136.318 39.4258 137.292 39.7089 138.642 39.7572C139.713 39.7572 140.887 39.5062 142.176 39.0011C143.461 38.496 144.772 37.859 146.109 37.0901C147.446 36.3179 148.763 35.4686 150.061 34.5323C151.359 33.5993 152.557 32.7178 153.651 31.8845H152.622ZM143.052 29.5745C144.184 28.5868 145.324 27.7536 146.472 27.0747C147.131 26.6951 147.819 26.3669 148.533 26.0902C149.247 25.8103 149.844 25.672 150.331 25.672C150.61 25.672 150.831 25.7235 150.996 25.8232C151.162 25.9261 151.246 26.1031 151.246 26.354C151.246 26.6307 151.106 27.049 150.824 27.6023C150.444 28.3359 149.808 29.1305 148.916 29.9896C148.023 30.8486 146.992 31.5564 145.823 32.1097C145.158 32.4379 144.509 32.6728 143.873 32.8111C143.237 32.9494 142.627 33.017 142.039 33.017C141.66 33.017 141.296 32.9881 140.952 32.9237C140.608 32.8626 140.297 32.7661 140.014 32.6406C140.907 31.5789 141.919 30.559 143.052 29.5745Z" fill="#FFFFFF"/>
</g>
<defs>
<clipPath id="clip0_2013_758">
<rect width="153.651" height="58.4127" fill="white" transform="translate(0 1)"/>
</clipPath>
</defs>
</svg>
