<svg width="228" height="60" viewBox="0 0 228 60" fill="none" xmlns="http://www.w3.org/2000/svg">
<g clip-path="url(#clip0_2013_755)">
<path d="M58.8319 51.8507C56.9525 51.7492 55.6446 51.4571 54.9081 50.9745C54.1716 50.492 53.8033 49.8825 53.8033 49.146C53.8033 48.5618 53.9684 47.9142 54.3113 47.2031C54.6541 46.492 55.0859 45.7428 55.6065 44.9555C56.1271 44.1682 56.6859 43.3682 57.2954 42.5301C57.9049 41.7047 58.4763 40.8793 59.0097 40.0539C59.543 39.2285 59.9875 38.4158 60.343 37.6285C60.6986 36.8412 60.889 36.092 60.9144 35.3809C60.4827 35.3301 59.924 35.2412 59.2382 35.1269C58.5525 35.0126 57.9811 34.8857 57.524 34.7333C56.3557 34.3523 55.6065 33.9079 55.2763 33.3999C54.9462 32.892 54.8954 32.4095 55.124 31.9523C53.6002 33.5269 52.0763 35.0888 50.5779 36.6634C49.0668 38.2253 47.5303 39.7365 45.9811 41.1714L43.6954 43.1904C41.6382 44.9428 39.5303 46.492 37.397 47.8253C35.2509 49.1587 33.016 50.1365 30.7049 50.7333C29.8668 50.9365 29.016 51.1015 28.1525 51.2285C27.289 51.3555 26.4255 51.419 25.5621 51.419C24.3176 51.419 23.1367 51.2666 22.0192 50.9872C20.9017 50.6952 19.9494 50.2126 19.1621 49.565C18.197 48.7269 17.4859 47.7745 17.0287 46.7079C16.5716 45.6412 16.343 44.4857 16.343 43.2412C16.343 41.7936 16.6097 40.2698 17.1557 38.6698C17.7017 37.0698 18.4509 35.4444 19.4033 33.8063C20.3557 32.1682 21.4732 30.5428 22.7811 28.9301C24.0763 27.3174 25.4859 25.7809 27.0097 24.3206C28.5335 22.8603 30.1335 21.5015 31.8224 20.2444C33.5113 18.9872 35.2128 17.8952 36.9525 16.9809C38.6795 16.0666 40.3811 15.3428 42.07 14.8222C43.7589 14.3015 45.3716 14.0476 46.8827 14.0476C48.7367 14.0476 50.3875 14.4539 51.8351 15.2666L52.2922 15.5714C54.1208 14.8349 56.0129 14.2761 57.9684 13.8952C59.924 13.5142 61.9303 13.3618 63.9875 13.438C65.5113 13.5142 66.87 13.7047 68.0763 14.0095C69.2827 14.3142 70.324 14.7206 71.2255 15.2285C70.7176 14.492 70.3113 13.692 70.0192 12.8031C69.7271 11.9269 69.5875 10.9492 69.5875 9.89518C69.5875 9.61582 69.5875 9.32375 69.6256 8.99359C69.6509 8.67613 69.689 8.35867 69.7398 8.02851C69.816 8.1301 69.9049 8.1809 70.0065 8.1555C70.1081 8.1555 70.2097 8.1174 70.2986 8.07931C70.3875 8.04121 70.4636 8.01582 70.5271 8.00312C70.5906 7.99042 70.6287 8.01582 70.6287 8.09201C70.5525 8.62534 70.5144 9.15867 70.5144 9.69201C70.5144 10.8857 70.7176 11.9777 71.124 12.9682C71.5303 13.9587 72.1144 14.8476 72.8763 15.6349C74.0192 15.2793 75.1875 14.9999 76.3811 14.7968C77.5748 14.5936 78.8065 14.492 80.0763 14.492H80.6859C80.889 14.492 81.0922 14.5047 81.2954 14.5301C83.2763 14.6317 84.7113 14.9238 85.6129 15.3809C86.5144 15.8507 86.9716 16.3841 86.9716 16.9682C86.9716 17.3238 86.8065 17.6793 86.4763 18.0349C86.1462 18.3904 85.6763 18.6952 85.0795 18.9492C84.4827 19.2031 83.7589 19.3936 82.8954 19.5333C82.0319 19.673 81.0668 19.7238 80.0002 19.6603C78.0192 19.5841 76.1271 19.038 74.324 18.0222C74.7557 18.6825 75.0605 19.3809 75.2509 20.1047C75.4414 20.8285 75.543 21.565 75.543 22.3269C75.543 23.7999 75.2128 25.273 74.5525 26.7714C73.8922 28.2571 72.9779 29.6158 71.8097 30.8476C70.6414 32.0793 69.27 33.1079 67.6827 33.9333C66.0954 34.7587 64.3938 35.2412 62.5525 35.3555C62.6541 36.2444 62.5906 37.1587 62.3367 38.0984C62.0954 39.038 61.7652 39.9777 61.3462 40.9174C60.9271 41.8571 60.4573 42.7714 59.9367 43.6349C59.416 44.5111 58.9335 45.3492 58.4636 46.1365C58.0065 46.9238 57.6128 47.6476 57.2954 48.3079C56.9779 48.9682 56.8129 49.5269 56.8129 49.9841C56.8129 50.4158 56.9652 50.746 57.2954 50.9745C57.6255 51.2031 58.1462 51.3301 58.8827 51.3555L58.8065 51.8126L58.8319 51.8507ZM30.5271 49.2984C32.3049 48.6126 34.0319 47.673 35.7208 46.492C37.4097 45.3111 39.0859 43.965 40.7494 42.4666C42.4129 40.9682 44.0763 39.3555 45.7271 37.6285C47.3779 35.9015 49.0414 34.1492 50.7176 32.3714C51.6827 30.5682 52.5081 28.7269 53.1938 26.8476C53.8795 24.9682 54.2224 23.2158 54.2224 21.5904C54.2224 20.5492 54.0573 19.6095 53.7271 18.7587C53.397 17.9079 52.8255 17.1714 52.0128 16.5618C50.2097 17.3238 48.5081 18.2253 46.9081 19.2539C45.3081 20.2825 43.8351 21.3872 42.4763 22.5682C41.1176 23.7492 39.8859 24.9682 38.7938 26.2253C37.7017 27.4825 36.7748 28.7142 36.0129 29.9206C35.2509 31.1269 34.6668 32.2698 34.2605 33.3618C33.8541 34.4539 33.6509 35.419 33.6509 36.2571C33.6509 37.0952 33.8795 37.819 34.3494 38.3396C34.8192 38.8603 35.5557 39.1396 36.5462 39.1904C37.3335 39.2158 38.1716 39.0888 39.0732 38.7841C39.9748 38.492 40.8255 38.1492 41.6509 37.7809C41.8033 37.7047 41.8922 37.6793 41.9176 37.7301C41.943 37.7682 41.9557 37.8317 41.9557 37.8952C41.9557 37.9587 41.9684 38.0603 42.0065 38.1491C42.0446 38.238 42.1335 38.3015 42.2859 38.3142C41.3208 38.7968 40.3176 39.2158 39.2636 39.5714C38.2097 39.9269 37.2065 40.092 36.2414 40.0666C35.0224 40.0158 34.1335 39.6857 33.5748 39.0634C33.016 38.4412 32.7367 37.6158 32.7367 36.5745C32.7367 35.6857 32.9398 34.6698 33.3462 33.5269C33.7525 32.3841 34.3494 31.1777 35.124 29.9333C35.8986 28.6761 36.8255 27.3936 37.9303 26.0984C39.0224 24.8031 40.2414 23.546 41.6001 22.3269C42.9589 21.1079 44.4573 19.9523 46.0827 18.8857C47.7081 17.8063 49.4224 16.8666 51.2255 16.0412C50.1335 15.4571 48.8509 15.165 47.3779 15.165C45.4986 15.165 43.4541 15.6222 41.2446 16.5365C39.0351 17.4507 36.8255 18.6698 34.616 20.1936C32.4065 21.7174 30.2732 23.4698 28.2287 25.4253C26.1843 27.3809 24.3684 29.438 22.8065 31.5587C21.2319 33.6793 19.9621 35.7872 19.0097 37.8825C18.0573 39.9777 17.5875 41.9079 17.5875 43.6476C17.5875 44.6888 17.7652 45.6539 18.1208 46.5174C18.4763 47.3936 19.0605 48.1555 19.8732 48.8285C20.5589 49.4126 21.3208 49.8317 22.1843 50.0857C23.0351 50.3396 23.9367 50.4666 24.9017 50.4666C25.7906 50.4666 26.7049 50.365 27.6573 50.1618C28.6097 49.9587 29.5621 49.6666 30.5398 49.2857L30.5271 49.2984ZM52.5843 30.4412C53.9811 28.9936 55.3906 27.5841 56.8255 26.2126C58.2605 24.8412 59.7335 23.546 61.2446 22.3269C62.7557 21.1079 64.3049 19.9904 65.8922 18.9745C67.4795 17.9587 69.1176 17.1079 70.7938 16.4222C70.0573 15.7872 69.1049 15.292 67.9494 14.9238C66.7938 14.5555 65.3843 14.3396 63.7081 14.2888C61.8287 14.238 60.0002 14.3777 58.2224 14.7079C56.4446 15.038 54.7176 15.5206 53.0414 16.1555C53.7779 16.8158 54.3113 17.5777 54.6287 18.4666C54.9462 19.3428 55.1113 20.3206 55.1113 21.3745C55.1113 22.746 54.8827 24.2063 54.4128 25.7555C53.943 27.3047 53.3335 28.8666 52.6097 30.4412H52.5843ZM61.1049 34.1745C61.1557 33.3618 60.9017 32.7396 60.343 32.2825C59.7843 31.838 59.0986 31.5587 58.2859 31.4317C57.6256 31.3301 57.0414 31.3809 56.5462 31.5841C56.0509 31.7872 55.8097 32.0666 55.8097 32.4222C55.8097 32.6761 55.9748 32.9301 56.3303 33.1968C56.6732 33.4634 57.2446 33.7047 58.0573 33.9079C58.4382 34.0095 58.9462 34.0857 59.5811 34.1365C60.216 34.1872 60.724 34.1999 61.1049 34.1745ZM62.4002 33.8698C63.797 33.5142 65.1303 32.892 66.3875 32.0031C67.6446 31.1142 68.7494 30.073 69.7017 28.8793C70.6541 27.6857 71.4033 26.4158 71.9748 25.0698C72.5335 23.7238 72.8129 22.4158 72.8129 21.146C72.8129 19.9777 72.5462 18.9111 72.0128 17.946C70.5906 18.6571 69.1938 19.4952 67.8351 20.4603C66.4763 21.4253 65.1303 22.4793 63.797 23.6222C62.4636 24.765 61.1557 25.9714 59.8478 27.2158C58.5525 28.473 57.2573 29.7682 55.9621 31.0888C56.3176 30.8857 56.7367 30.7333 57.2192 30.6317C57.7017 30.5301 58.197 30.5174 58.7049 30.5936C59.6446 30.7206 60.4446 31.0761 61.1049 31.6603C61.7652 32.2444 62.197 32.9809 62.4002 33.8698ZM80.2668 18.8222C82.1716 18.9238 83.5938 18.7714 84.5589 18.3777C85.5113 17.9841 85.9811 17.5523 85.9811 17.0698C85.9811 16.638 85.5875 16.2444 84.7748 15.9015C83.9748 15.5587 82.7684 15.419 81.143 15.4571C79.9494 15.5079 78.7938 15.6603 77.6763 15.9015C76.5589 16.1428 75.4541 16.4857 74.3621 16.9047C75.2509 17.4888 76.2033 17.9333 77.2192 18.2507C78.2351 18.5682 79.2509 18.7587 80.2668 18.8095V18.8222Z" fill="#71717F"/>
<path d="M86.0952 39.0889C85.0032 39.9269 83.8095 40.8158 82.5143 41.7555C81.2191 42.6952 79.8984 43.5587 78.5651 44.3333C77.2317 45.1079 75.9238 45.7555 74.6413 46.2508C73.3587 46.7587 72.1905 47.0127 71.1111 47.0127C69.7651 46.9619 68.8 46.6825 68.2032 46.1619C67.6064 45.6412 67.3016 44.9809 67.3016 44.1555C67.3016 43.2666 67.619 42.2635 68.254 41.146C68.8889 40.0285 69.7397 38.9238 70.7937 37.8317C71.8476 36.7396 73.0667 35.7365 74.4508 34.8095C75.8349 33.8825 77.2952 33.1714 78.819 32.6508C79.4794 32.4222 80.1905 32.2317 80.9651 32.0793C81.7397 31.9269 82.4762 31.8508 83.1619 31.8508C84.0762 31.8508 84.8 32.0158 85.346 32.3714C85.8921 32.7142 86.0317 33.2984 85.7905 34.1365C85.6381 34.6444 85.346 35.1904 84.927 35.7746C84.5079 36.3587 83.9746 36.9301 83.3143 37.4889C82.654 38.0476 81.8921 38.5809 81.0286 39.0889C80.1651 39.5968 79.2254 40.0158 78.2095 40.346C76.7365 40.8539 75.327 41.1079 73.981 41.1079C73.1175 41.1079 72.3937 40.9809 71.8095 40.7269C71.2 41.5396 70.7175 42.3142 70.3619 43.0254C70.0064 43.7492 69.8286 44.3714 69.8286 44.8793C69.8286 45.819 70.4508 46.2381 71.6952 46.1365C72.6095 46.1365 73.6381 45.9079 74.781 45.4508C75.9238 44.9936 77.1048 44.4222 78.3111 43.7111C79.5175 43.0127 80.6984 42.2508 81.8667 41.4254C83.0349 40.6 84.1016 39.8254 85.0667 39.0889H86.0952ZM78.946 34.2508C77.8032 34.9365 76.673 35.7746 75.5429 36.765C74.4127 37.7555 73.3968 38.7841 72.5079 39.8508C72.7873 39.9777 73.0921 40.0793 73.4476 40.1428C73.7905 40.2063 74.146 40.2317 74.527 40.2317C75.1111 40.2317 75.7206 40.1682 76.3556 40.0158C76.9905 39.8762 77.6381 39.6476 78.2984 39.3174C79.4667 38.7587 80.4952 38.0476 81.3841 37.1841C82.273 36.3206 82.9079 35.5206 83.2889 34.7841C83.5683 34.2254 83.7079 33.8063 83.7079 33.5269C83.7079 33.273 83.6191 33.0952 83.454 32.9936C83.2889 32.892 83.073 32.8412 82.7936 32.8412C82.3111 32.8412 81.7143 32.9809 81.0032 33.2603C80.2921 33.5396 79.6063 33.8698 78.946 34.2508Z" fill="#71717F"/>
<path d="M101.486 27.5079C102.349 27.0508 103.073 26.8222 103.657 26.8222C103.962 26.8222 104.178 26.8984 104.305 27.0381C104.432 27.1778 104.419 27.3683 104.279 27.6095C104.14 27.8508 103.848 28.1429 103.403 28.4603C102.959 28.7905 102.324 29.146 101.511 29.527C101.003 29.7556 100.508 29.9968 100.025 30.2254C99.5428 30.4667 99.0602 30.7206 98.5777 30.9619C98.1713 31.5968 97.9047 32.2191 97.7777 32.8286C97.6507 33.4381 97.5872 34.0476 97.5872 34.6572C97.5872 35.2667 97.6126 35.8762 97.6888 36.4857C97.7523 37.0952 97.7777 37.7048 97.7777 38.3143C97.7777 38.9746 97.7015 39.6349 97.5491 40.2699C97.3967 40.9175 97.1047 41.6032 96.6729 42.3143C96.0888 43.2286 95.4031 44.0286 94.6158 44.7016C93.8285 45.3746 92.9904 45.9333 92.1269 46.3905C91.2507 46.8476 90.3618 47.1905 89.4856 47.4191C88.5967 47.6476 87.7713 47.7619 87.0094 47.7619C85.9428 47.7619 85.0666 47.546 84.3936 47.127C83.7205 46.7079 83.3904 46.073 83.3904 45.2349C83.3904 44.854 83.4793 44.4349 83.6444 43.9651C83.8094 43.4952 84.0634 42.9873 84.4316 42.4286C84.838 41.7937 85.384 41.146 86.0697 40.4857C86.7555 39.8254 87.492 39.2286 88.2793 38.6952C89.0666 38.1619 89.8539 37.7302 90.6412 37.4C91.4285 37.0699 92.1269 36.9048 92.7364 36.9048C93.2697 36.9048 93.6761 37.0445 93.9555 37.3238C94.2856 37.6286 94.3491 37.9841 94.1459 38.3905C93.9428 38.7968 93.638 39.1524 93.219 39.4699C92.7999 39.7873 92.3301 40.0159 91.8221 40.1556C91.3142 40.2952 90.9078 40.2572 90.6031 40.0286C90.2475 39.7238 89.8539 39.5714 89.4221 39.5714C88.7364 39.5714 87.9999 39.8508 87.2126 40.4095C86.4253 40.9683 85.7904 41.6286 85.3078 42.3905C85.0031 42.873 84.7872 43.3048 84.6602 43.6857C84.5332 44.0667 84.4697 44.4222 84.4697 44.7524C84.4697 45.3619 84.6856 45.8191 85.1047 46.1365C85.5237 46.454 86.0571 46.6191 86.7301 46.6191C87.2126 46.6191 87.7332 46.5302 88.3174 46.3524C88.8888 46.1746 89.4602 45.9079 90.057 45.5524C90.6412 45.1968 91.2126 44.7524 91.7713 44.2191C92.3301 43.6857 92.838 43.0508 93.2951 42.3143C93.8539 41.4 94.2729 40.5111 94.565 39.6476C94.8571 38.7841 95.111 37.9206 95.3523 37.0572C95.5809 36.1937 95.8348 35.3175 96.1142 34.4286C96.3936 33.5397 96.7999 32.6127 97.3332 31.6476C93.4221 33.8064 89.6634 36.3079 86.057 39.1524H84.9904C87.1491 37.4762 89.2698 35.9397 91.3523 34.5429C93.4348 33.146 95.6571 31.8127 98.019 30.5429C98.4507 29.9587 98.9586 29.4 99.5428 28.854C100.127 28.3079 100.787 27.8635 101.524 27.5079H101.486Z" fill="#71717F"/>
<path d="M110.286 32.0793C110.54 31.7999 110.781 31.6221 111.01 31.5332C111.238 31.4443 111.48 31.3936 111.734 31.3936C111.962 31.3936 112.216 31.4189 112.47 31.4697C112.724 31.5205 113.029 31.5459 113.321 31.5459C113.549 31.5459 113.791 31.5332 114.032 31.4951C114.273 31.457 114.54 31.3809 114.845 31.2412L114.007 32.0031C113.829 32.1555 113.461 32.4856 112.902 32.9682C112.343 33.4634 111.67 34.0602 110.896 34.7586C110.121 35.457 109.27 36.2316 108.343 37.0697C107.416 37.9078 106.502 38.7586 105.6 39.6221C104.699 40.4856 103.835 41.3237 103.01 42.1364C102.184 42.9491 101.486 43.6729 100.915 44.3332C100.343 44.9809 99.9368 45.5142 99.6955 45.9459C99.4542 46.3777 99.4415 46.6316 99.6828 46.7078C100.089 46.8602 100.737 46.7459 101.638 46.3396C102.54 45.9459 103.581 45.3872 104.762 44.6507C105.943 43.9142 107.2 43.0634 108.546 42.0983C109.892 41.1332 111.226 40.1301 112.546 39.0888H113.613C112.165 40.2316 110.68 41.3364 109.156 42.4158C107.632 43.4951 106.197 44.4475 104.864 45.2729C103.53 46.0983 102.337 46.7205 101.283 47.1523C100.229 47.584 99.4288 47.711 98.8955 47.5332C98.413 47.3809 98.286 46.9745 98.5019 46.3142C98.7177 45.6539 99.1495 44.8412 99.7971 43.8888C100.445 42.9364 101.257 41.8951 102.222 40.765C103.188 39.6348 104.165 38.5301 105.181 37.438C106.184 36.3459 107.137 35.3174 108.051 34.365C108.965 33.4126 109.702 32.6507 110.261 32.0539L110.286 32.0793ZM117.943 26.1745C118.146 26.4539 118.134 26.8348 117.905 27.3174C117.676 27.7999 117.27 28.257 116.686 28.6888C116.127 29.1205 115.569 29.3872 115.01 29.5142C114.451 29.6285 114.07 29.5523 113.867 29.2602C113.638 28.9809 113.638 28.5999 113.88 28.1174C114.121 27.6348 114.527 27.1777 115.111 26.7459C115.67 26.3142 116.229 26.0475 116.775 25.9332C117.321 25.8189 117.702 25.9078 117.943 26.1872V26.1745Z" fill="#71717F"/>
<path d="M120.876 46.708C121.308 46.8603 121.981 46.746 122.883 46.3397C123.784 45.946 124.813 45.3873 125.981 44.6508C127.149 43.9143 128.406 43.0635 129.753 42.0984C131.099 41.1333 132.445 40.1302 133.791 39.0889H134.819C133.372 40.2318 131.899 41.3365 130.387 42.4159C128.876 43.4953 127.441 44.4476 126.095 45.273C124.749 46.0984 123.543 46.7206 122.502 47.1524C121.448 47.5841 120.648 47.7111 120.114 47.5333C119.759 47.4318 119.594 47.1778 119.619 46.7968C119.645 46.4032 119.81 45.9079 120.114 45.3238C120.419 44.7397 120.838 44.0794 121.372 43.3683C121.905 42.6445 122.502 41.8826 123.162 41.0952C122.248 41.8064 121.283 42.5175 120.254 43.2286C119.226 43.9397 118.197 44.5746 117.181 45.1333C116.165 45.6921 115.187 46.1365 114.273 46.4921C113.346 46.8349 112.521 47 111.784 47C110.819 47 110.121 46.8222 109.689 46.4667C109.257 46.1111 109.041 45.6413 109.041 45.0572C109.041 44.473 109.232 43.8 109.587 43.0381C109.956 42.2762 110.476 41.4762 111.137 40.6508C111.797 39.8254 112.572 39 113.473 38.1746C114.375 37.3492 115.353 36.5619 116.406 35.8127C117.46 35.0635 118.565 34.4032 119.721 33.8064C120.876 33.2222 122.045 32.7651 123.251 32.4349C123.835 32.2572 124.432 32.1175 125.054 32.0032C125.676 31.8889 126.273 31.8381 126.857 31.8381C127.746 31.8381 128.457 32.0159 128.991 32.3714C129.524 32.727 129.676 33.3492 129.448 34.2381C131.632 31.9778 133.93 29.6794 136.33 27.3302C138.73 24.981 141.092 22.6699 143.429 20.4095C143.632 20.2064 143.848 20.0667 144.102 19.9905C144.343 19.9143 144.584 19.8762 144.838 19.8762C145.27 19.8762 145.714 19.9143 146.172 19.9905C146.629 20.0667 147.073 20.0159 147.505 19.8381C145.702 21.5651 143.975 23.2286 142.324 24.8159C140.673 26.4032 139.048 27.9778 137.435 29.5397C135.822 31.1016 134.184 32.6762 132.521 34.2508C130.857 35.8254 129.13 37.4508 127.353 39.127C126.387 40.0413 125.46 40.9302 124.572 41.7937C123.683 42.6572 122.933 43.4445 122.299 44.1556C121.676 44.8667 121.219 45.4508 120.927 45.9079C120.635 46.3651 120.61 46.6318 120.876 46.708ZM112.305 46.1365C113.168 46.1365 114.21 45.8572 115.416 45.2984C116.622 44.7397 117.854 44.0413 119.124 43.2032C120.394 42.3651 121.626 41.4889 122.819 40.5619C124.013 39.6349 125.016 38.8222 125.829 38.1111L127.772 35.9778C128.305 35.1143 128.572 34.4413 128.572 33.9587C128.572 33.5778 128.445 33.2984 128.178 33.1206C127.911 32.9429 127.556 32.854 127.124 32.854C126.616 32.854 126.007 32.9683 125.321 33.1968C124.622 33.4254 123.899 33.7429 123.124 34.1492C121.803 34.8349 120.445 35.7111 119.048 36.7524C117.651 37.8064 116.381 38.8857 115.238 39.9778C114.095 41.0699 113.156 42.1111 112.419 43.1016C111.683 44.0921 111.314 44.854 111.314 45.3873C111.314 45.9206 111.645 46.1492 112.305 46.1492V46.1365Z" fill="#71717F"/>
<path d="M150.21 39.0889C149.118 39.9269 147.924 40.8158 146.629 41.7555C145.334 42.6952 144.013 43.5587 142.68 44.3333C141.346 45.1079 140.038 45.7555 138.756 46.2508C137.473 46.7587 136.305 47.0127 135.226 47.0127C133.88 46.9619 132.915 46.6825 132.318 46.1619C131.721 45.6412 131.416 44.9809 131.416 44.1555C131.416 43.2666 131.734 42.2635 132.369 41.146C133.003 40.0285 133.854 38.9238 134.908 37.8317C135.962 36.7396 137.181 35.7365 138.565 34.8095C139.95 33.8825 141.41 33.1714 142.934 32.6508C143.594 32.4222 144.305 32.2317 145.08 32.0793C145.854 31.9269 146.591 31.8508 147.277 31.8508C148.191 31.8508 148.915 32.0158 149.461 32.3714C150.007 32.7142 150.146 33.2984 149.905 34.1365C149.753 34.6444 149.461 35.1904 149.042 35.7746C148.623 36.3587 148.089 36.9301 147.429 37.4889C146.769 38.0476 146.007 38.5809 145.143 39.0889C144.28 39.5968 143.34 40.0158 142.324 40.346C140.851 40.8539 139.442 41.1079 138.096 41.1079C137.232 41.1079 136.508 40.9809 135.924 40.7269C135.315 41.5396 134.832 42.3142 134.476 43.0254C134.121 43.7492 133.943 44.3714 133.943 44.8793C133.943 45.819 134.565 46.2381 135.81 46.1365C136.724 46.1365 137.753 45.9079 138.896 45.4508C140.038 44.9936 141.219 44.4222 142.426 43.7111C143.632 43.0127 144.813 42.2508 145.981 41.4254C147.15 40.6 148.216 39.8254 149.181 39.0889H150.21ZM143.048 34.2508C141.905 34.9365 140.775 35.7746 139.645 36.765C138.515 37.7555 137.499 38.7841 136.61 39.8508C136.889 39.9777 137.194 40.0793 137.55 40.1428C137.892 40.2063 138.248 40.2317 138.629 40.2317C139.213 40.2317 139.823 40.1682 140.457 40.0158C141.092 39.8762 141.74 39.6476 142.4 39.3174C143.569 38.7587 144.597 38.0476 145.486 37.1841C146.375 36.3206 147.01 35.5206 147.391 34.7841C147.67 34.2254 147.81 33.8063 147.81 33.5269C147.81 33.273 147.721 33.0952 147.556 32.9936C147.391 32.892 147.175 32.8412 146.896 32.8412C146.413 32.8412 145.816 32.9809 145.105 33.2603C144.394 33.5396 143.708 33.8698 143.048 34.2508Z" fill="#71717F"/>
<path d="M167.619 39.089C166.171 40.2318 164.686 41.3366 163.162 42.416C161.638 43.4953 160.203 44.4477 158.87 45.2731C157.537 46.0985 156.343 46.7207 155.289 47.1525C154.235 47.5842 153.435 47.7112 152.902 47.5334C152.368 47.381 152.102 47.0636 152.102 46.581C152.102 46.0223 152.432 45.2985 153.092 44.4096C153.752 43.5207 154.552 42.5683 155.492 41.5525C156.432 40.5366 157.41 39.5207 158.438 38.5048C159.467 37.489 160.343 36.562 161.079 35.7239C161.968 34.7334 162.413 33.9842 162.413 33.4763C162.413 33.1207 162.133 32.9937 161.587 33.0699C161.041 33.1588 160.267 33.5398 159.251 34.2001C158.311 34.8096 157.194 35.6604 155.898 36.7525C154.603 37.8445 153.295 39.0128 151.975 40.2445C150.654 41.4763 149.384 42.6953 148.191 43.9017C146.984 45.108 145.981 46.1112 145.194 46.8858L141.613 46.8477C142.451 45.9588 143.327 45.0445 144.241 44.1048C145.156 43.1652 146.07 42.2255 146.984 41.2858C147.898 40.3461 148.8 39.4064 149.689 38.4668C150.578 37.5271 151.429 36.6128 152.241 35.7239C153.13 34.7334 153.575 33.9842 153.575 33.4763C153.575 32.8668 152.914 32.8795 151.594 33.5144C151.517 33.5652 151.479 33.5652 151.467 33.489C151.454 33.4255 151.441 33.362 151.441 33.2731C151.441 33.1842 151.429 33.1334 151.391 33.0572C151.352 32.9937 151.289 32.981 151.175 33.0064C151.835 32.6509 152.432 32.3969 152.952 32.2191C153.473 32.0541 153.93 31.9779 154.337 31.9779C154.844 31.9779 155.238 32.1048 155.517 32.3715C155.797 32.6382 155.937 33.0064 155.937 33.4636C155.937 34.2763 155.543 35.2668 154.756 36.435C154.552 36.7906 154.273 37.1842 153.917 37.616C154.832 36.8033 155.721 36.0414 156.61 35.3302C157.486 34.6191 158.286 34.035 159.022 33.5779C159.86 33.0445 160.622 32.6509 161.308 32.3969C161.994 32.1429 162.591 32.016 163.098 32.016C164.216 32.016 164.775 32.5239 164.775 33.5398C164.775 34.3271 164.394 35.2921 163.632 36.435C163.149 37.1461 162.54 37.8826 161.816 38.6445C161.092 39.4064 160.33 40.1556 159.556 40.8921C158.768 41.6287 157.981 42.3398 157.206 43.0128C156.432 43.6858 155.759 44.2826 155.175 44.8033C154.591 45.3239 154.146 45.7556 153.854 46.0985C153.562 46.4414 153.486 46.6318 153.638 46.6826C154.044 46.835 154.692 46.7207 155.594 46.3144C156.495 45.9207 157.537 45.362 158.717 44.6255C159.898 43.889 161.156 43.0382 162.514 42.0731C163.86 41.108 165.194 40.1048 166.514 39.0636H167.581L167.619 39.089Z" fill="#71717F"/>
<path d="M176.838 31.6983H180.953L180.381 32.5364H175.924C173.765 34.6189 171.454 36.8157 168.991 39.1268C168.026 40.0411 167.099 40.93 166.21 41.7935C165.321 42.657 164.559 43.4443 163.924 44.1554C163.289 44.8665 162.832 45.4507 162.553 45.9078C162.273 46.3649 162.261 46.6316 162.514 46.7078C162.946 46.8602 163.619 46.7459 164.508 46.3395C165.41 45.9459 166.451 45.3872 167.619 44.6507C168.788 43.9142 170.045 43.0634 171.391 42.0983C172.737 41.1332 174.07 40.13 175.391 39.0888H176.457C175.01 40.2316 173.524 41.3364 172 42.4157C170.476 43.4951 169.041 44.4475 167.708 45.2729C166.375 46.0983 165.181 46.7205 164.127 47.1522C163.073 47.584 162.273 47.711 161.74 47.5332C161.308 47.4062 161.156 47.0761 161.257 46.5427C161.359 46.0094 161.676 45.3618 162.159 44.5872C162.641 43.8126 163.264 42.9491 164.026 41.9967C164.787 41.0443 165.613 40.0919 166.502 39.1141C167.441 38.0729 168.432 37.0062 169.461 35.9141C170.489 34.8221 171.581 33.6919 172.724 32.5237H170.019L170.553 31.6475H173.6L177.753 27.5332C177.956 27.33 178.159 27.1903 178.387 27.1268C178.603 27.0634 178.832 27.0253 179.086 27.0253C179.518 27.0253 179.962 27.0634 180.419 27.1395C180.876 27.2157 181.308 27.1649 181.714 26.9872L176.838 31.6729V31.6983Z" fill="#71717F"/>
<path d="M181.943 32.0793C182.197 31.7999 182.438 31.6221 182.667 31.5332C182.895 31.4443 183.136 31.3936 183.39 31.3936C183.619 31.3936 183.873 31.4189 184.127 31.4697C184.381 31.5205 184.686 31.5459 184.978 31.5459C185.206 31.5459 185.447 31.5332 185.689 31.4951C185.93 31.457 186.197 31.3809 186.501 31.2412L185.663 32.0031C185.486 32.1555 185.117 32.4856 184.559 32.9682C184 33.4634 183.327 34.0602 182.552 34.7586C181.778 35.457 180.927 36.2316 180 37.0697C179.073 37.9078 178.159 38.7586 177.257 39.6221C176.355 40.4856 175.492 41.3237 174.667 42.1364C173.841 42.9491 173.143 43.6729 172.571 44.3332C172 44.9809 171.594 45.5142 171.352 45.9459C171.111 46.3777 171.098 46.6316 171.34 46.7078C171.746 46.8602 172.394 46.7459 173.295 46.3396C174.197 45.9459 175.238 45.3872 176.419 44.6507C177.6 43.9142 178.857 43.0634 180.203 42.0983C181.549 41.1332 182.882 40.1301 184.203 39.0888H185.27C183.822 40.2316 182.336 41.3364 180.813 42.4158C179.289 43.4951 177.854 44.4475 176.52 45.2729C175.187 46.0983 173.994 46.7205 172.94 47.1523C171.886 47.584 171.086 47.711 170.552 47.5332C170.07 47.3809 169.943 46.9745 170.159 46.3142C170.374 45.6539 170.806 44.8412 171.454 43.8888C172.101 42.9364 172.914 41.8951 173.879 40.765C174.844 39.6348 175.822 38.5301 176.838 37.438C177.841 36.3459 178.794 35.3174 179.708 34.365C180.622 33.4126 181.359 32.6507 181.917 32.0539L181.943 32.0793ZM189.6 26.1745C189.803 26.4539 189.79 26.8348 189.562 27.3174C189.333 27.7999 188.927 28.257 188.343 28.6888C187.784 29.1205 187.225 29.3872 186.667 29.5142C186.108 29.6285 185.727 29.5523 185.524 29.2602C185.295 28.9809 185.295 28.5999 185.536 28.1174C185.778 27.6348 186.184 27.1777 186.768 26.7459C187.327 26.3142 187.886 26.0475 188.432 25.9332C188.978 25.8189 189.359 25.9078 189.6 26.1872V26.1745Z" fill="#71717F"/>
<path d="M206.934 32.0032C206.756 32.1555 206.388 32.4857 205.829 32.9682C205.27 33.4635 204.61 34.0603 203.823 34.7587C203.048 35.4571 202.197 36.2317 201.27 37.0698C200.343 37.9079 199.416 38.7587 198.515 39.6222C197.613 40.4857 196.737 41.3238 195.924 42.1365C195.111 42.9492 194.413 43.673 193.829 44.3333C193.245 44.9809 192.826 45.5143 192.597 45.946C192.356 46.3778 192.343 46.6317 192.585 46.7079C193.016 46.8603 193.677 46.746 194.578 46.3397C195.48 45.946 196.521 45.3873 197.702 44.6508C198.883 43.9143 200.14 43.0635 201.486 42.0984C202.832 41.1333 204.165 40.1301 205.486 39.0889H206.515C205.067 40.2317 203.594 41.3365 202.07 42.4159C200.559 43.4952 199.137 44.4476 197.804 45.273C196.47 46.0984 195.264 46.7206 194.21 47.1524C193.143 47.5841 192.343 47.7111 191.81 47.5333C191.454 47.4317 191.302 47.1778 191.327 46.7968C191.365 46.4032 191.543 45.9079 191.848 45.3111C192.153 44.7143 192.572 44.054 193.118 43.3301C193.664 42.6063 194.286 41.8444 194.972 41.019C194.032 41.7301 193.042 42.4413 192 43.1524C190.959 43.8635 189.931 44.4984 188.915 45.0698C187.899 45.6413 186.921 46.1111 185.981 46.454C185.042 46.8095 184.204 46.9873 183.467 46.9873C182.502 46.9873 181.804 46.8095 181.372 46.454C180.94 46.0984 180.724 45.6286 180.724 45.0444C180.724 44.4603 180.915 43.7873 181.27 43.0254C181.638 42.2635 182.159 41.4635 182.807 40.6381C183.467 39.8127 184.242 38.9873 185.156 38.1619C186.058 37.3365 187.023 36.5492 188.064 35.8C189.105 35.0508 190.197 34.3905 191.353 33.7936C192.508 33.2095 193.677 32.7524 194.883 32.4222C195.467 32.2444 196.077 32.1047 196.737 31.9905C197.385 31.8762 197.994 31.8254 198.578 31.8254C199.442 31.8254 200.14 31.9905 200.673 32.3206C201.207 32.6508 201.372 33.2603 201.169 34.1492L203.188 32.054C203.442 31.7746 203.683 31.5968 203.924 31.5206C204.165 31.4444 204.407 31.4063 204.661 31.4063C204.915 31.4063 205.169 31.419 205.435 31.4571C205.702 31.4952 205.994 31.5079 206.299 31.5079C206.502 31.5079 206.718 31.5079 206.959 31.4698C207.2 31.4444 207.442 31.3682 207.696 31.2413L206.896 31.9651L206.934 32.0032ZM184 46.1365C184.864 46.1365 185.892 45.8571 187.099 45.2984C188.305 44.7397 189.537 44.0413 190.819 43.2032C192.089 42.3651 193.321 41.4889 194.515 40.5619C195.708 39.6349 196.712 38.8222 197.524 38.1111C197.854 37.7301 198.185 37.3619 198.515 36.9936C198.845 36.6254 199.188 36.2571 199.543 35.9016C200.026 35.0889 200.267 34.4413 200.267 33.9587C200.267 33.2476 199.797 32.8921 198.858 32.8921C198.324 32.8921 197.702 33.0063 196.978 33.2349C196.254 33.4635 195.492 33.7809 194.705 34.1873C193.385 34.873 192.026 35.7492 190.642 36.7905C189.258 37.8444 188 38.9238 186.87 40.0159C185.74 41.1079 184.813 42.1492 184.089 43.127C183.365 44.1047 183.01 44.854 183.01 45.4C183.01 45.946 183.34 46.1619 184 46.1619V46.1365Z" fill="#71717F"/>
<path d="M201.448 46.708C201.88 46.8603 202.553 46.746 203.442 46.3397C204.343 45.946 205.385 45.3873 206.553 44.6508C207.721 43.9143 208.978 43.0635 210.324 42.0984C211.67 41.1333 213.016 40.1302 214.362 39.0889H215.391C213.943 40.2318 212.458 41.3365 210.934 42.4159C209.41 43.4953 207.975 44.4476 206.642 45.273C205.308 46.0984 204.115 46.7206 203.061 47.1524C202.007 47.5841 201.207 47.7111 200.673 47.5333C200.242 47.4064 200.089 47.0762 200.191 46.5429C200.292 46.0095 200.61 45.3619 201.092 44.5873C201.575 43.8127 202.197 42.9492 202.959 41.9968C203.721 41.0445 204.546 40.0921 205.435 39.1143C206.705 37.6921 208.089 36.2064 209.588 34.6572C211.086 33.1079 212.635 31.5333 214.235 29.9333C215.835 28.3333 217.461 26.7333 219.112 25.1333C220.762 23.5333 222.388 21.9587 223.988 20.4095C224.191 20.2064 224.407 20.0667 224.661 19.9905C224.902 19.9143 225.143 19.8762 225.397 19.8762C225.829 19.8762 226.273 19.9143 226.731 19.9905C227.188 20.0667 227.632 20.0159 228.064 19.8381C226.261 21.5651 224.534 23.2286 222.883 24.8159C221.232 26.4032 219.607 27.9778 217.994 29.5397C216.381 31.1016 214.743 32.6762 213.08 34.2508C211.416 35.8254 209.689 37.4508 207.912 39.127C206.946 40.0413 206.019 40.9302 205.131 41.7937C204.242 42.6572 203.48 43.4445 202.845 44.1556C202.21 44.8667 201.753 45.4508 201.473 45.9079C201.194 46.3651 201.181 46.6318 201.435 46.708H201.448Z" fill="#71717F"/>
<path d="M26.235 29.3238H30.2731V36.0158H21.3715C22.0699 34.7841 22.8826 33.5524 23.8096 32.3079C24.5588 31.3047 25.3588 30.3016 26.235 29.3238Z" fill="#71717F"/>
<path d="M32.6984 18.0347V18.0728C32.1524 18.4411 31.6063 18.822 31.073 19.2284C29.3587 20.4982 27.6952 21.9077 26.1333 23.4062C25.6889 23.8379 25.2444 24.2823 24.8127 24.7268H7.31429V26.7839C7.31429 27.6347 7.39048 28.4855 7.56825 29.3236H20.8889C19.9238 30.5935 19.073 31.8887 18.3238 33.1712C17.7651 34.1109 17.2698 35.0633 16.8635 36.0157H7.31429V43.0633C7.31429 44.7522 7.40317 46.4284 7.56825 48.1046H0L0.253968 45.5903V18.7585L0.977778 18.0347H32.6984Z" fill="#71717F"/>
<path d="M30.8569 24.7269C31.4664 24.1808 32.0759 23.6729 32.6982 23.1904V24.7269H30.8569Z" fill="#71717F"/>
<path d="M27.4793 48.1046C29.0222 48.1046 30.2729 46.8538 30.2729 45.311C30.2729 43.7681 29.0222 42.5173 27.4793 42.5173C25.9364 42.5173 24.6856 43.7681 24.6856 45.311C24.6856 46.8538 25.9364 48.1046 27.4793 48.1046Z" fill="#71717F"/>
</g>
<defs>
<clipPath id="clip0_2013_755">
<rect width="228" height="60" fill="white"/>
</clipPath>
</defs>
</svg>
