<svg width="574" height="38" viewBox="0 0 574 38" fill="none" xmlns="http://www.w3.org/2000/svg">
<path d="M39.4001 0.320035V0.430021C39.3301 0.300021 39.3201 0.230035 39.4001 0.320035Z" fill="#b2aea7"/>
<path d="M9.32004 9.29999V11.73C9.32004 12.74 9.42003 13.76 9.62003 14.75H36.53V22.67H9.32004V31.02C9.32004 33.02 9.42003 35.01 9.62003 37H0.650024L0.960037 34.02V2.21997L1.81003 1.37H39.41V9.28998H9.33002L9.32004 9.29999Z" fill="#b2aea7"/>
<path d="M71.4999 24.81C79.2999 24.26 83.5899 20.19 83.5899 13.21C83.5899 5.47002 78.7499 1.37 69.5899 1.37H41.9799V34.02L41.6799 37H49.5099C49.8299 36.67 50.0199 36.47 50.3499 36.15V25.05C53.2499 25.05 56.1099 25.55 58.8099 26.51C61.4899 27.48 64.0199 28.9 66.2699 30.72L67.5699 31.78C69.3699 33.26 70.9199 35.01 72.1499 36.99H86.0799C86.1533 36.7833 86.2266 36.58 86.2999 36.38L71.5099 24.79L71.4999 24.81ZM50.9399 17.09C50.5499 16.1 50.3399 15.05 50.3399 13.99V9.29999H69.7799C74.5399 9.29999 75.0799 11.54 75.0799 13.21C75.0799 15.01 74.4799 17.09 69.7499 17.09H50.9399Z" fill="#b2aea7"/>
<path d="M108.49 0.650024C93.9599 0.650024 84.9399 7.74998 84.9399 19.17C84.9399 30.59 93.9599 37.72 108.49 37.72C123.02 37.72 132.02 30.62 132.02 19.17C132.02 7.71998 123.01 0.650024 108.49 0.650024ZM108.49 29.74C98.8899 29.74 93.39 25.89 93.39 19.17C93.39 12.45 98.8899 8.58002 108.49 8.58002C118.09 8.58002 123.54 12.44 123.54 19.17C123.54 25.9 118.06 29.74 108.49 29.74Z" fill="#b2aea7"/>
<path d="M177.07 1.37V37H167.88C166.73 35.02 165.3 33.23 163.62 31.67L143.27 12.84L143.33 15.23V36.99H134.38C134.78 35.01 134.98 32.99 134.98 30.96V5.88C134.98 4.86 134.93 3.84001 134.83 2.82001L134.68 1.35999H142.67L168.75 25.6L168.7 23.01V6.96997C168.7 5.21997 168.53 3.48001 168.18 1.76001C168.32 1.59001 168.38 1.51999 168.51 1.35999H177.06L177.07 1.37Z" fill="#b2aea7"/>
<path d="M219.95 1.37V9.59998L219.58 9.56C217.84 9.39 216.09 9.29999 214.34 9.29999H203.65V37H195.35L195.01 36.64C195.19 33.9 195.28 31.15 195.28 28.4V9.29999H184.66C182.91 9.29999 181.16 9.39 179.42 9.56C179.27 9.43 179.2 9.35997 179.05 9.21997V1.37H219.94H219.95Z" fill="#b2aea7"/>
<path d="M386.79 36.5V37H387.09L386.79 36.5Z" fill="#b2aea7"/>
<path d="M282.59 1.37H290.93V37H282.29L282.59 32.52V1.37Z" fill="#b2aea7"/>
<path d="M386.79 36.5V37H387.09L386.79 36.5Z" fill="#b2aea7"/>
<path d="M361.86 10.1L368.53 21.92H355.2L361.87 10.1H361.86ZM366.14 1.59998L366 1.37H357.34L357.02 1.59003C356.3 3.43003 355.43 5.21998 354.43 6.91998L336.67 37.01H346.34L350.59 29.84H373.14L374.26 31.71C375.17 33.23 375.74 34.94 375.92 36.71C376.05 36.83 376.13 36.9 376.26 37.01H386.8V36.51L366.16 1.60999L366.14 1.59998Z" fill="#b2aea7"/>
<path d="M473.59 27.13C473.75 27.23 473.84 27.28 474 27.37L475.87 34.65L474.9 34.97C472.86 35.65 466.68 37.71 457.55 37.71C441.19 37.71 431.8 30.96 431.8 19.17C431.8 7.37998 441.19 0.650024 457.55 0.650024C466.68 0.650024 472.86 2.7 474.89 3.37L475.87 3.70001L474.01 10.97L473.6 11.21C469.42 10.04 463.17 8.57001 457.55 8.57001C449.66 8.57001 440.27 10.41 440.27 19.17C440.27 27.93 449.66 29.73 457.55 29.73C463.15 29.73 469.55 28.24 473.59 27.12V27.13Z" fill="#b2aea7"/>
<path d="M544.69 29.03V1.37H536.41L536.07 1.73999C536.24 3.47999 536.33 5.22998 536.33 6.97998V37H573.36V29.09L573 28.75C570.26 28.93 567.51 29.02 564.76 29.02H544.68L544.69 29.03ZM478.12 37H486.48V1.37H478.12V37Z" fill="#b2aea7"/>
<path d="M250.53 9.29999V11.73C250.53 12.74 250.63 13.76 250.83 14.75H277.74V22.67H250.53V31.02C250.53 33.02 250.63 35.01 250.83 37H241.86L242.17 34.02V2.21997C242.5 1.88997 242.69 1.7 243.02 1.37H280.62V9.28998H250.54L250.53 9.29999Z" fill="#b2aea7"/>
<path d="M337.02 1.37V37H327.83C326.68 35.02 325.25 33.23 323.57 31.67L303.22 12.84L303.28 15.23V36.99H294.33C294.73 35.01 294.93 32.99 294.93 30.96V5.88C294.93 4.86 294.88 3.84001 294.78 2.82001L294.63 1.35999H302.62L328.7 25.6L328.65 23.01V6.96997C328.65 5.21997 328.48 3.48001 328.13 1.76001C328.27 1.59001 328.33 1.51999 328.46 1.35999H337.01L337.02 1.37Z" fill="#b2aea7"/>
<path d="M428.87 1.37V37H419.68C418.53 35.02 417.1 33.23 415.42 31.67L395.07 12.84L395.13 15.23V36.99H386.18C386.58 35.01 386.78 32.99 386.78 30.96V5.88C386.78 4.86 386.73 3.84001 386.63 2.82001L386.48 1.35999H394.47L420.55 25.6L420.5 23.01V6.96997C420.5 5.21997 420.33 3.48001 419.98 1.76001C420.12 1.59001 420.18 1.51999 420.31 1.35999H428.86L428.87 1.37Z" fill="#b2aea7"/>
<path d="M511.42 10.1L518.09 21.92H504.76L511.43 10.1H511.42ZM515.7 1.59998L515.56 1.37H506.9L506.58 1.59003C505.86 3.43003 504.99 5.21998 503.99 6.91998L486.23 37.01H495.9L500.15 29.84H522.7L523.82 31.71C524.73 33.23 525.3 34.94 525.48 36.71C525.61 36.83 525.69 36.9 525.82 37.01H536.36V36.51L515.72 1.60999L515.7 1.59998Z" fill="#b2aea7"/>
</svg>
