<svg width="636" height="102" viewBox="0 0 636 102" fill="none" xmlns="http://www.w3.org/2000/svg">
<path d="M51.9836 0.790771C55.1636 0.790771 58.2936 1.16078 61.3636 1.92078C64.4336 2.68078 67.4336 3.71075 70.3636 5.02075C73.2936 6.33075 76.1536 7.84077 78.9436 9.54077C81.7336 11.2408 84.4436 13.0108 87.0636 14.8608C90.3536 17.1508 94.0936 19.1708 98.2836 20.9308C102.474 22.6908 106.824 24.2108 111.344 25.4908C119.434 21.4208 127.474 19.3807 135.454 19.3807C136.404 19.3807 137.334 19.4108 138.264 19.4608C139.184 19.5208 140.114 19.6008 141.064 19.7108C143.854 20.0408 145.944 20.7008 147.344 21.6808C148.744 22.6608 149.434 23.7007 149.434 24.8207C149.434 26.2207 148.344 27.5307 146.164 28.7607C143.984 29.9907 140.694 30.6608 136.284 30.7708C132.994 30.8808 129.544 30.7408 125.944 30.3508C122.344 29.9608 118.704 29.3507 115.014 28.5107C112.614 29.9607 110.144 31.6808 107.604 33.6608C105.064 35.6408 102.524 37.7608 99.9836 40.0208C97.4436 42.2808 94.9436 44.6107 92.4936 47.0107C90.0336 49.4107 87.6936 51.7508 85.4636 54.0408C86.4636 54.3208 87.4636 54.6308 88.4336 54.9608C89.4136 55.3008 90.4036 55.5808 91.4036 55.8008C92.5236 54.6808 93.6636 53.6408 94.8336 52.6608C96.0036 51.6808 97.1536 50.8908 98.2636 50.2708C100.444 48.9908 102.284 48.3408 103.794 48.3408C105.464 48.3408 106.304 48.9608 106.304 50.1808C106.304 50.9608 105.874 51.9008 105.004 52.9808C104.134 54.0708 102.704 55.2008 100.694 56.3708C99.0236 57.3208 97.3336 57.9907 95.6336 58.3807C93.9336 58.7707 92.2436 58.9407 90.5736 58.8807C89.3436 60.1107 88.1536 61.3408 87.0136 62.5608C85.8636 63.7908 84.7136 65.0407 83.5436 66.3307C83.2636 66.6107 83.0836 66.7108 82.9936 66.6208C82.9036 66.5308 82.8136 66.4208 82.7036 66.2908C82.5936 66.1608 82.4636 66.0208 82.3336 65.9108C82.1936 65.8008 81.9536 65.8308 81.6236 65.9908L88.3236 58.7108C87.3736 58.6008 86.3936 58.4608 85.3936 58.2908C84.3936 58.1208 83.4136 57.9008 82.4636 57.6208C82.4036 57.5708 82.2936 57.5408 82.1236 57.5408C79.2236 60.5608 76.3136 63.5808 73.4236 66.6208C70.5236 69.6608 67.6336 72.6308 64.7536 75.5408C61.8836 78.4408 58.9936 81.2007 56.0936 83.8307C53.1936 86.4507 50.2636 88.8508 47.3036 91.0308L44.8736 92.7908C40.7936 95.5808 36.6836 97.8007 32.5236 99.4507C28.3636 101.101 24.1136 101.921 19.7536 101.921C18.9136 101.921 18.0836 101.881 17.2436 101.801C16.4036 101.721 15.5736 101.621 14.7336 101.511C12.1636 101.171 9.9736 100.551 8.1636 99.6307C6.3536 98.7107 4.87362 97.5607 3.72362 96.2007C2.58362 94.8307 1.74361 93.2608 1.21361 91.4708C0.683608 89.6908 0.413605 87.7608 0.413605 85.6908C0.413605 82.5708 0.973618 79.2308 2.08362 75.6908C3.20362 72.1508 4.72362 68.6508 6.64362 65.1808C8.56362 61.7208 10.8336 58.3908 13.4236 55.1808C16.0236 51.9708 18.8236 49.1408 21.8336 46.6808C20.6036 44.5608 19.7136 42.4008 19.1536 40.1908C18.5936 37.9908 18.3136 35.8008 18.3136 33.6208C18.3136 29.5508 19.1636 25.5408 20.8636 21.6108C22.5636 17.6708 24.9236 14.1708 27.9336 11.1008C30.9436 8.03077 34.5036 5.55076 38.6036 3.65076C42.7036 1.75076 47.1536 0.810791 51.9536 0.810791L51.9836 0.790771ZM50.2236 81.5008C54.2436 77.6508 58.2836 73.5208 62.3636 69.1108C66.4336 64.7008 70.6236 60.2608 74.9236 55.8008C73.1936 55.5808 71.4936 55.6907 69.8136 56.1307C68.1436 56.5807 66.4936 57.6708 64.8736 59.4008C64.6536 59.6208 64.4836 59.7208 64.3736 59.6908C64.2636 59.6608 64.1536 59.5808 64.0436 59.4408C63.9336 59.3008 63.7936 59.1807 63.6236 59.0707C63.4536 58.9607 63.2336 58.9308 62.9536 58.9908C65.3536 56.2508 67.8236 54.4707 70.3636 53.6307C72.9036 52.7907 75.4536 52.4607 78.0236 52.6307C80.2536 50.3407 82.6236 47.9808 85.1436 45.5508C87.6536 43.1208 90.2236 40.7808 92.8436 38.5208C95.4636 36.2608 98.1136 34.1308 100.794 32.1208C103.474 30.1108 106.094 28.3808 108.664 26.9308C104.424 25.6508 100.344 24.1408 96.4436 22.4108C92.5336 20.6808 88.9936 18.7507 85.8136 16.6307C80.7936 13.2307 75.6636 10.5908 70.4536 8.72076C65.2336 6.85076 59.5036 5.92078 53.2436 5.92078C48.7236 5.92078 44.4836 6.66075 40.5236 8.14075C36.5536 9.62075 33.1036 11.6107 30.1436 14.1307C27.1836 16.6407 24.8436 19.5708 23.1136 22.9208C21.3836 26.2708 20.5236 29.8407 20.5236 33.6407C20.5236 35.5907 20.7636 37.5508 21.2336 39.5008C21.7036 41.4508 22.5036 43.4108 23.6236 45.3608C26.4136 43.2408 29.2836 41.5807 32.2436 40.3807C35.2036 39.1807 38.1536 38.5807 41.1236 38.5807C41.8436 38.5807 42.5436 38.6108 43.2136 38.6608C43.8836 38.7208 44.5536 38.8308 45.2236 39.0008C47.2336 39.4508 48.9036 40.1708 50.2436 41.1808C51.5836 42.1808 52.6536 43.4007 53.4636 44.8207C54.2736 46.2407 54.8436 47.8208 55.1836 49.5508C55.5236 51.2808 55.6836 53.1207 55.6836 55.0807C55.6836 56.7007 55.5836 58.3508 55.3936 60.0208C55.1936 61.6908 54.9336 63.4007 54.5936 65.1307L52.7536 64.6307C53.3636 61.3907 53.6736 58.3808 53.6736 55.5908C53.6736 53.8008 53.5236 52.1008 53.2136 50.4808C52.9036 48.8608 52.3936 47.4107 51.6636 46.1307C50.9336 44.8507 49.9736 43.7407 48.7736 42.8207C47.5736 41.9007 46.0836 41.2508 44.2936 40.8508C43.3936 40.6308 42.3936 40.5208 41.2736 40.5208C38.5936 40.5208 35.9036 41.1808 33.1936 42.4908C30.4836 43.8008 27.7936 45.5708 25.1136 47.8108C26.8436 50.3208 29.0536 52.6407 31.7236 54.7607L30.3836 56.4308C28.9336 55.3108 27.6536 54.1607 26.5336 52.9507C25.4136 51.7507 24.3836 50.5108 23.4336 49.2308C20.7536 51.6908 18.2536 54.4808 15.9436 57.6008C13.6236 60.7308 11.5936 63.9508 9.83362 67.2708C8.07362 70.5908 6.69362 73.9108 5.69362 77.2308C4.69362 80.5508 4.18361 83.6408 4.18361 86.4808C4.18361 90.0008 5.06361 92.9508 6.82361 95.3508C8.58361 97.7508 11.4636 99.1708 15.4836 99.6208C18.2136 99.8408 20.9236 99.6207 23.6036 98.9507C26.2836 98.2807 28.9636 97.2508 31.6436 95.8508C34.3236 94.4508 36.9736 92.7508 39.5936 90.7408C42.2136 88.7308 44.8736 86.5008 47.5536 84.0408L50.2336 81.5308L50.2236 81.5008ZM98.9536 51.8608C97.2836 52.8608 95.4336 54.2907 93.4236 56.1307C94.5436 56.2407 95.6536 56.2108 96.7736 56.0508C97.8936 55.8908 99.0036 55.4608 100.124 54.7908C100.964 54.3408 101.544 53.9007 101.884 53.4507C102.214 53.0007 102.384 52.6108 102.384 52.2808C102.384 51.7208 102.034 51.3608 101.334 51.1908C100.634 51.0208 99.8436 51.2508 98.9436 51.8608H98.9536ZM136.794 28.9208C140.474 28.8108 143.174 28.3808 144.874 27.6208C146.574 26.8708 147.424 26.0508 147.424 25.1508C147.424 24.3708 146.834 23.6608 145.664 23.0208C144.494 22.3808 142.764 21.9207 140.474 21.6407C140.024 21.5907 139.564 21.5408 139.094 21.5208C138.624 21.5008 138.134 21.4808 137.624 21.4808C134.444 21.4808 131.124 22.0008 127.664 23.0308C124.204 24.0608 120.884 25.4208 117.704 27.0908C121.054 27.7608 124.334 28.2608 127.544 28.6008C130.754 28.9308 133.834 29.0508 136.794 28.9308V28.9208Z" fill="#B2AEA7"/>
<path d="M133.784 55.1308C134.394 55.0808 134.914 55.0308 135.334 55.0108C135.754 54.9808 136.134 54.9708 136.464 54.9708C137.914 54.9708 138.304 55.3108 137.634 55.9708C136.964 56.6408 135.484 58.0108 133.194 60.0708C132.804 60.4008 132.004 61.1208 130.804 62.2008C129.604 63.2908 128.134 64.6008 126.404 66.1408C124.674 67.6808 122.804 69.3608 120.794 71.2008C118.784 73.0408 116.774 74.9109 114.764 76.8109C112.754 78.7109 110.844 80.5508 109.024 82.3308C107.204 84.1208 105.674 85.7208 104.414 87.1408C103.164 88.5608 102.264 89.7508 101.734 90.7008C101.204 91.6508 101.194 92.2108 101.694 92.3708C102.644 92.7008 104.104 92.4408 106.084 91.5708C108.064 90.7008 110.344 89.4608 112.904 87.8408C115.474 86.2208 118.234 84.3508 121.194 82.2308C124.154 80.1108 127.104 77.9008 130.064 75.6208H132.324C129.144 78.1308 125.874 80.5708 122.524 82.9508C119.174 85.3208 116.034 87.4108 113.104 89.2308C110.174 91.0508 107.554 92.4208 105.234 93.3708C102.914 94.3208 101.174 94.6008 100.004 94.2108C98.8336 93.8208 98.5836 92.7708 99.2536 91.0708C99.9236 89.3708 101.134 87.3208 102.894 84.9208C104.654 82.5208 106.764 79.9308 109.214 77.1308C111.674 74.3408 114.084 71.6708 116.454 69.1308C118.824 66.5908 120.964 64.3408 122.864 62.3908C124.764 60.4408 126.044 59.1008 126.714 58.3708C125.264 58.7008 123.884 59.0009 122.574 59.2509C121.264 59.5009 120.104 59.6808 119.104 59.7908C117.314 61.4108 114.724 63.6708 111.314 66.5708C107.914 69.4708 104.114 72.5408 99.9236 75.7808H97.6636C99.7336 74.1608 101.754 72.5608 103.734 70.9708C105.714 69.3808 107.554 67.8708 109.254 66.4508C110.954 65.0308 112.464 63.7408 113.774 62.6008C115.084 61.4608 116.164 60.5208 116.994 59.8008C115.984 59.6308 115.494 59.1308 115.524 58.2908C115.554 57.4508 115.954 56.4808 116.734 55.3608C117.184 54.7508 117.824 54.0208 118.654 53.1808C119.494 52.3408 120.384 51.5908 121.334 50.9208C123.004 49.6908 124.454 49.0808 125.684 49.0808C126.354 49.0808 126.754 49.3308 126.904 49.8308C127.044 50.3308 126.774 51.1108 126.104 52.1708C125.654 52.9008 125.004 53.7208 124.134 54.6408C123.264 55.5608 122.274 56.5808 121.164 57.7008C122.784 57.4808 124.084 57.2408 125.054 56.9908C126.034 56.7408 126.904 56.4908 127.694 56.2408C128.474 55.9908 129.314 55.7708 130.204 55.5708C131.094 55.3808 132.264 55.2208 133.724 55.1108L133.784 55.1308Z" fill="#B2AEA7"/>
<path d="M169.694 75.6407C168.404 76.6407 167.114 77.6107 165.804 78.5307C164.494 79.4507 163.184 80.2807 161.874 81.0007C160.564 81.7207 159.234 82.2707 157.894 82.6307C156.554 82.9907 155.274 83.1207 154.044 83.0107C152.704 82.9607 151.724 82.5107 151.114 81.6707C149.214 83.1207 147.234 84.5307 145.174 85.9007C143.104 87.2707 141.084 88.4807 139.104 89.5407C137.124 90.6007 135.224 91.4507 133.414 92.0907C131.604 92.7307 129.974 93.0507 128.514 93.0507C126.454 93.0507 124.954 92.6507 124.034 91.8407C123.114 91.0307 122.654 89.9907 122.654 88.7007C122.654 86.7507 123.534 84.3907 125.294 81.6207C127.054 78.8607 129.394 76.1207 132.324 73.4107C135.254 70.7007 138.574 68.1907 142.284 65.8807C145.994 63.5607 149.834 61.9007 153.794 60.9007C156.584 60.1207 159.094 59.7307 161.324 59.7307C163.054 59.7307 164.444 60.0107 165.514 60.5707C166.574 61.1307 167.104 62.0807 167.104 63.4107C167.104 64.1907 166.904 65.1007 166.514 66.1307C166.124 67.1607 165.454 68.3507 164.504 69.6907C164.004 70.4707 163.274 71.3407 162.324 72.2807C161.374 73.2307 160.354 74.1907 159.264 75.1707C158.174 76.1507 157.084 77.0707 155.994 77.9307C154.904 78.7907 153.974 79.5107 153.194 80.0707C153.584 80.6307 154.314 80.9907 155.374 81.1607C157.324 81.3307 159.324 80.8207 161.364 79.6507C163.404 78.4807 165.394 77.1407 167.354 75.6307H169.694V75.6407ZM150.524 80.4107C150.304 79.2407 150.534 77.8707 151.234 76.3107C151.934 74.7507 153.004 73.1807 154.454 71.6207C156.404 69.3907 158.344 67.8507 160.274 67.0207C162.194 66.1807 163.584 65.9607 164.414 66.3507C165.024 64.7307 165.074 63.6007 164.544 62.9607C164.014 62.3207 163.134 62.0007 161.904 62.0007C160.674 62.0007 159.374 62.2507 157.844 62.7507C156.304 63.2507 154.814 63.8907 153.364 64.6707C151.464 65.6707 149.494 66.8807 147.464 68.2707C145.424 69.6707 143.444 71.1507 141.524 72.7107C139.604 74.2707 137.774 75.8607 136.044 77.4807C134.314 79.1007 132.804 80.6607 131.524 82.1707C130.244 83.6807 129.224 85.0607 128.474 86.3107C127.724 87.5707 127.344 88.5907 127.344 89.3707C127.344 90.5407 128.124 91.1307 129.684 91.1307C130.964 91.1307 132.434 90.8207 134.074 90.2107C135.724 89.6007 137.464 88.7907 139.304 87.7807C141.144 86.7807 143.034 85.6307 144.954 84.3507C146.874 83.0707 148.734 81.7507 150.524 80.4107Z" fill="#B2AEA7"/>
<path d="M207.864 75.6408C204.684 78.1508 201.414 80.5908 198.064 82.9708C194.714 85.3408 191.574 87.4309 188.644 89.2509C185.714 91.0709 183.094 92.4408 180.774 93.3908C178.454 94.3408 176.714 94.6208 175.544 94.2308C174.374 93.9008 173.784 93.2008 173.784 92.1408C173.784 90.9108 174.504 89.3208 175.964 87.3708C177.414 85.4208 179.174 83.3208 181.234 81.0908C183.294 78.8608 185.464 76.6308 187.724 74.3908C189.984 72.1608 191.924 70.1208 193.544 68.2808C195.494 66.1108 196.474 64.4608 196.474 63.3408C196.474 62.5608 195.874 62.2708 194.674 62.4608C193.474 62.6608 191.754 63.4808 189.524 64.9308C187.454 66.2708 185.004 68.1408 182.154 70.5408C179.304 72.9408 176.434 75.4908 173.534 78.2008C170.634 80.9108 167.854 83.5908 165.204 86.2408C162.554 88.8908 160.364 91.0809 158.634 92.8109L150.764 92.7308C152.604 90.7808 154.534 88.7708 156.544 86.7008C158.554 84.6408 160.564 82.5708 162.574 80.5108C164.584 78.4408 166.564 76.3809 168.514 74.3109C170.464 72.2509 172.334 70.2408 174.124 68.2808C176.074 66.1108 177.054 64.4608 177.054 63.3408C177.054 62.0008 175.604 62.0308 172.704 63.4208C172.534 63.5308 172.434 63.5208 172.414 63.3808C172.384 63.2408 172.374 63.0908 172.374 62.9208C172.374 62.7508 172.334 62.6008 172.244 62.4608C172.164 62.3208 172.004 62.2808 171.784 62.3308C173.234 61.5508 174.534 60.9808 175.674 60.6108C176.814 60.2508 177.834 60.0708 178.734 60.0708C179.854 60.0708 180.714 60.3608 181.324 60.9508C181.934 61.5308 182.244 62.3308 182.244 63.3408C182.244 65.1308 181.374 67.3008 179.654 69.8708C179.204 70.6508 178.594 71.5208 177.814 72.4608C179.824 70.6708 181.794 69.0009 183.714 67.4409C185.644 65.8809 187.414 64.5908 189.034 63.5908C190.874 62.4208 192.554 61.5509 194.054 61.0009C195.564 60.4409 196.874 60.1608 197.994 60.1608C200.454 60.1608 201.674 61.2808 201.674 63.5108C201.674 65.2408 200.834 67.3608 199.164 69.8708C198.104 71.4308 196.774 73.0508 195.184 74.7308C193.594 76.4008 191.934 78.0508 190.204 79.6708C188.474 81.2908 186.754 82.8408 185.054 84.3208C183.354 85.8008 181.854 87.1108 180.574 88.2608C179.294 89.4108 178.324 90.3508 177.684 91.1108C177.044 91.8608 176.884 92.3008 177.224 92.4108C178.114 92.7408 179.554 92.4808 181.534 91.6108C183.514 90.7408 185.804 89.5008 188.394 87.8808C190.994 86.2608 193.764 84.3908 196.724 82.2708C199.684 80.1508 202.614 77.9408 205.514 75.6608H207.854L207.864 75.6408Z" fill="#B2AEA7"/>
<path d="M228.124 59.4008H237.164L235.914 61.2408H226.114C221.374 65.8208 216.284 70.6408 210.874 75.7208C208.754 77.7308 206.714 79.6808 204.764 81.5808C202.814 83.4808 201.134 85.2108 199.744 86.7708C198.344 88.3308 197.344 89.6208 196.724 90.6208C196.114 91.6208 196.084 92.2108 196.644 92.3808C197.594 92.7108 199.064 92.4508 201.044 91.5808C203.024 90.7108 205.304 89.4708 207.864 87.8508C210.434 86.2308 213.194 84.3608 216.154 82.2408C219.114 80.1208 222.044 77.9108 224.944 75.6308H227.284C224.104 78.1408 220.834 80.5808 217.484 82.9608C214.134 85.3308 210.994 87.4208 208.064 89.2408C205.134 91.0608 202.514 92.4308 200.194 93.3808C197.874 94.3308 196.134 94.6108 194.964 94.2208C194.014 93.9408 193.664 93.2208 193.914 92.0408C194.164 90.8708 194.824 89.4308 195.884 87.7308C196.944 86.0308 198.314 84.1308 199.984 82.0408C201.654 79.9508 203.474 77.8408 205.424 75.7208C207.494 73.4308 209.654 71.0909 211.914 68.6909C214.174 66.2909 216.554 63.8108 219.074 61.2408H213.134L214.304 59.3109H221.004L230.134 50.2708C230.584 49.8208 231.044 49.5308 231.514 49.3908C231.984 49.2508 232.504 49.1808 233.064 49.1808C234.014 49.1808 234.984 49.2608 235.994 49.4308C237.004 49.6008 237.944 49.4908 238.844 49.1008L228.124 59.4008Z" fill="#B2AEA7"/>
<path d="M297.444 0.790771C300.624 0.790771 303.754 1.16078 306.824 1.92078C309.894 2.67078 312.894 3.71075 315.824 5.02075C318.754 6.33075 321.614 7.84077 324.404 9.54077C327.194 11.2408 329.904 13.0108 332.524 14.8608C335.814 17.1508 339.554 19.1708 343.744 20.9308C347.934 22.6908 352.284 24.2108 356.804 25.4908C364.894 21.4208 372.934 19.3807 380.914 19.3807C381.864 19.3807 382.794 19.4108 383.724 19.4608C384.644 19.5208 385.574 19.6008 386.524 19.7108C389.314 20.0408 391.404 20.7008 392.804 21.6808C394.204 22.6608 394.894 23.7007 394.894 24.8207C394.894 26.2207 393.804 27.5307 391.624 28.7607C389.444 29.9907 386.154 30.6608 381.744 30.7708C378.454 30.8808 375.004 30.7408 371.404 30.3508C367.804 29.9608 364.164 29.3507 360.474 28.5107C358.074 29.9607 355.604 31.6808 353.064 33.6608C350.524 35.6408 347.984 37.7608 345.444 40.0208C342.904 42.2808 340.404 44.6107 337.954 47.0107C335.494 49.4107 333.154 51.7508 330.924 54.0408C331.924 54.3208 332.924 54.6308 333.894 54.9608C334.874 55.3008 335.864 55.5808 336.864 55.8008C337.984 54.6808 339.124 53.6408 340.294 52.6608C341.464 51.6808 342.614 50.8908 343.724 50.2708C345.904 48.9908 347.744 48.3408 349.254 48.3408C350.924 48.3408 351.764 48.9608 351.764 50.1808C351.764 50.9608 351.334 51.9008 350.464 52.9808C349.594 54.0708 348.164 55.2008 346.154 56.3708C344.484 57.3208 342.794 57.9907 341.094 58.3807C339.394 58.7707 337.704 58.9407 336.034 58.8807C334.804 60.1107 333.614 61.3408 332.474 62.5608C331.324 63.7908 330.174 65.0407 329.004 66.3307C328.724 66.6107 328.544 66.7108 328.454 66.6208C328.364 66.5308 328.274 66.4208 328.164 66.2908C328.054 66.1608 327.924 66.0208 327.794 65.9108C327.654 65.8008 327.414 65.8308 327.084 65.9908L333.784 58.7108C332.834 58.6008 331.854 58.4608 330.854 58.2908C329.854 58.1208 328.874 57.9008 327.924 57.6208C327.864 57.5708 327.754 57.5408 327.584 57.5408C324.684 60.5608 321.774 63.5808 318.884 66.6208C315.984 69.6608 313.094 72.6308 310.214 75.5408C307.344 78.4408 304.454 81.2007 301.554 83.8307C298.654 86.4507 295.724 88.8508 292.764 91.0308L290.334 92.7908C286.254 95.5808 282.144 97.8007 277.984 99.4507C273.824 101.101 269.574 101.921 265.214 101.921C264.374 101.921 263.544 101.881 262.704 101.801C261.864 101.721 261.034 101.621 260.194 101.511C257.624 101.171 255.434 100.551 253.624 99.6307C251.814 98.7107 250.334 97.5607 249.184 96.2007C248.044 94.8307 247.204 93.2608 246.674 91.4708C246.144 89.6908 245.874 87.7608 245.874 85.6908C245.874 82.5708 246.434 79.2308 247.544 75.6908C248.664 72.1508 250.184 68.6508 252.104 65.1808C254.024 61.7208 256.294 58.3908 258.884 55.1808C261.484 51.9708 264.284 49.1408 267.294 46.6808C266.064 44.5608 265.174 42.4008 264.614 40.1908C264.054 37.9908 263.774 35.8008 263.774 33.6208C263.774 29.5508 264.624 25.5408 266.324 21.6108C268.024 17.6708 270.384 14.1708 273.394 11.1008C276.404 8.03077 279.964 5.55076 284.064 3.65076C288.164 1.75076 292.614 0.810791 297.414 0.810791L297.444 0.790771ZM295.694 81.5008C299.714 77.6508 303.754 73.5208 307.834 69.1108C311.904 64.7008 316.094 60.2608 320.394 55.8008C318.664 55.5808 316.964 55.6907 315.284 56.1307C313.614 56.5807 311.964 57.6708 310.344 59.4008C310.124 59.6208 309.954 59.7208 309.844 59.6908C309.734 59.6608 309.624 59.5808 309.514 59.4408C309.404 59.3008 309.264 59.1807 309.094 59.0707C308.924 58.9607 308.704 58.9308 308.424 58.9908C310.824 56.2508 313.294 54.4707 315.834 53.6307C318.374 52.7907 320.924 52.4607 323.494 52.6307C325.724 50.3407 328.094 47.9808 330.614 45.5508C333.124 43.1208 335.694 40.7808 338.314 38.5208C340.934 36.2608 343.584 34.1308 346.264 32.1208C348.944 30.1108 351.564 28.3808 354.134 26.9308C349.894 25.6508 345.814 24.1408 341.914 22.4108C338.004 20.6808 334.464 18.7507 331.284 16.6307C326.264 13.2307 321.134 10.5908 315.924 8.72076C310.704 6.85076 304.974 5.92078 298.714 5.92078C294.194 5.92078 289.954 6.66075 285.994 8.14075C282.024 9.62075 278.574 11.6107 275.614 14.1307C272.654 16.6407 270.314 19.5708 268.584 22.9208C266.854 26.2708 265.994 29.8407 265.994 33.6407C265.994 35.5907 266.234 37.5508 266.704 39.5008C267.174 41.4508 267.974 43.4108 269.094 45.3608C271.884 43.2408 274.754 41.5807 277.714 40.3807C280.674 39.1807 283.624 38.5807 286.594 38.5807C287.314 38.5807 288.014 38.6108 288.684 38.6608C289.354 38.7208 290.024 38.8308 290.694 39.0008C292.704 39.4508 294.374 40.1708 295.714 41.1808C297.054 42.1808 298.124 43.4007 298.934 44.8207C299.744 46.2407 300.314 47.8208 300.654 49.5508C300.994 51.2808 301.154 53.1207 301.154 55.0807C301.154 56.7007 301.054 58.3508 300.864 60.0208C300.664 61.6908 300.404 63.4007 300.064 65.1307L298.224 64.6307C298.834 61.3907 299.144 58.3808 299.144 55.5908C299.144 53.8008 298.994 52.1008 298.684 50.4808C298.374 48.8608 297.864 47.4107 297.134 46.1307C296.404 44.8507 295.444 43.7407 294.244 42.8207C293.044 41.9007 291.554 41.2508 289.764 40.8508C288.864 40.6308 287.864 40.5208 286.744 40.5208C284.064 40.5208 281.374 41.1808 278.664 42.4908C275.954 43.8008 273.264 45.5708 270.584 47.8108C272.314 50.3208 274.524 52.6407 277.194 54.7607L275.854 56.4308C274.404 55.3108 273.124 54.1607 272.004 52.9507C270.884 51.7507 269.854 50.5108 268.904 49.2308C266.224 51.6908 263.724 54.4808 261.414 57.6008C259.094 60.7308 257.064 63.9508 255.304 67.2708C253.544 70.5908 252.164 73.9108 251.164 77.2308C250.164 80.5508 249.654 83.6408 249.654 86.4808C249.654 90.0008 250.534 92.9508 252.294 95.3508C254.054 97.7508 256.934 99.1708 260.954 99.6208C263.684 99.8408 266.394 99.6207 269.074 98.9507C271.754 98.2807 274.434 97.2508 277.114 95.8508C279.794 94.4508 282.444 92.7508 285.064 90.7408C287.684 88.7308 290.344 86.5008 293.024 84.0408L295.704 81.5308L295.694 81.5008ZM344.414 51.8608C342.744 52.8608 340.894 54.2907 338.884 56.1307C340.004 56.2407 341.114 56.2108 342.234 56.0508C343.354 55.8908 344.464 55.4608 345.584 54.7908C346.424 54.3408 347.004 53.9007 347.344 53.4507C347.674 53.0007 347.844 52.6108 347.844 52.2808C347.844 51.7208 347.494 51.3608 346.794 51.1908C346.094 51.0208 345.304 51.2508 344.404 51.8608H344.414ZM382.254 28.9208C385.934 28.8108 388.634 28.3808 390.334 27.6208C392.034 26.8708 392.884 26.0508 392.884 25.1508C392.884 24.3708 392.294 23.6608 391.124 23.0208C389.954 22.3808 388.224 21.9207 385.934 21.6407C385.484 21.5907 385.024 21.5408 384.554 21.5208C384.084 21.5008 383.594 21.4808 383.084 21.4808C379.904 21.4808 376.584 22.0008 373.124 23.0308C369.664 24.0608 366.344 25.4208 363.164 27.0908C366.514 27.7608 369.794 28.2608 373.004 28.6008C376.214 28.9308 379.294 29.0508 382.254 28.9308V28.9208Z" fill="#B2AEA7"/>
<path d="M357.804 60.2308C358.364 59.6208 358.894 59.2108 359.394 59.0208C359.894 58.8308 360.424 58.7308 360.984 58.7308C361.484 58.7308 362.034 58.7908 362.614 58.9008C363.194 59.0108 363.824 59.0708 364.494 59.0708C364.994 59.0708 365.514 59.0309 366.044 58.9409C366.574 58.8609 367.174 58.6808 367.844 58.4008L366.004 60.0708C365.614 60.4008 364.804 61.1208 363.574 62.2008C362.344 63.2908 360.884 64.6008 359.174 66.1408C357.474 67.6808 355.604 69.3608 353.564 71.2008C351.524 73.0408 349.514 74.9108 347.534 76.8108C345.554 78.7108 343.654 80.5508 341.844 82.3308C340.034 84.1208 338.494 85.7208 337.244 87.1408C335.984 88.5608 335.094 89.7508 334.564 90.7008C334.034 91.6508 334.014 92.2108 334.524 92.3708C335.424 92.7008 336.854 92.4408 338.834 91.5708C340.814 90.7008 343.104 89.4608 345.694 87.8408C348.284 86.2208 351.064 84.3508 354.024 82.2308C356.984 80.1108 359.914 77.9008 362.814 75.6208H365.154C361.974 78.1308 358.704 80.5708 355.354 82.9508C352.004 85.3308 348.864 87.4108 345.934 89.2308C343.004 91.0508 340.384 92.4208 338.064 93.3708C335.744 94.3208 334.004 94.6008 332.834 94.2108C331.774 93.8808 331.484 92.9808 331.954 91.5308C332.424 90.0808 333.374 88.3108 334.794 86.2208C336.214 84.1308 337.994 81.8408 340.114 79.3508C342.234 76.8708 344.394 74.4308 346.604 72.0208C348.804 69.6208 350.914 67.3808 352.924 65.2808C354.934 63.1908 356.554 61.5008 357.784 60.2208L357.804 60.2308ZM374.634 47.2608C375.084 47.8808 375.054 48.7108 374.554 49.7708C374.054 50.8308 373.154 51.8408 371.874 52.7808C370.644 53.7308 369.414 54.3308 368.194 54.5808C366.964 54.8308 366.124 54.6508 365.684 54.0408C365.184 53.4308 365.194 52.5908 365.724 51.5308C366.254 50.4708 367.164 49.4608 368.444 48.5108C369.674 47.5608 370.884 46.9608 372.084 46.7108C373.284 46.4608 374.134 46.6408 374.634 47.2508V47.2608Z" fill="#B2AEA7"/>
<path d="M403.354 75.6408C400.174 78.1508 396.904 80.5908 393.554 82.9708C390.204 85.3408 387.064 87.4309 384.134 89.2509C381.204 91.0709 378.584 92.4408 376.264 93.3908C373.944 94.3408 372.204 94.6208 371.034 94.2308C369.864 93.9008 369.274 93.2008 369.274 92.1408C369.274 90.9108 369.994 89.3208 371.454 87.3708C372.904 85.4208 374.664 83.3208 376.724 81.0908C378.794 78.8608 380.954 76.6308 383.214 74.3908C385.474 72.1608 387.414 70.1208 389.034 68.2808C390.984 66.1108 391.964 64.4608 391.964 63.3408C391.964 62.5608 391.364 62.2708 390.164 62.4608C388.964 62.6608 387.244 63.4808 385.014 64.9308C382.944 66.2708 380.494 68.1408 377.644 70.5408C374.794 72.9408 371.924 75.4908 369.024 78.2008C366.124 80.9108 363.344 83.5908 360.694 86.2408C358.044 88.8908 355.854 91.0809 354.124 92.8109L346.254 92.7308C348.094 90.7808 350.024 88.7708 352.034 86.7008C354.044 84.6408 356.054 82.5708 358.064 80.5108C360.074 78.4408 362.054 76.3809 364.004 74.3109C365.954 72.2509 367.824 70.2408 369.614 68.2808C371.564 66.1108 372.544 64.4608 372.544 63.3408C372.544 62.0008 371.094 62.0308 368.194 63.4208C368.024 63.5308 367.924 63.5208 367.904 63.3808C367.874 63.2408 367.864 63.0908 367.864 62.9208C367.864 62.7508 367.824 62.6008 367.734 62.4608C367.654 62.3208 367.494 62.2808 367.274 62.3308C368.724 61.5508 370.024 60.9808 371.164 60.6108C372.304 60.2508 373.324 60.0708 374.224 60.0708C375.344 60.0708 376.204 60.3608 376.814 60.9508C377.424 61.5308 377.734 62.3308 377.734 63.3408C377.734 65.1308 376.864 67.3008 375.144 69.8708C374.694 70.6508 374.084 71.5208 373.304 72.4608C375.314 70.6708 377.284 69.0009 379.204 67.4409C381.134 65.8809 382.904 64.5908 384.524 63.5908C386.364 62.4208 388.044 61.5509 389.544 61.0009C391.054 60.4409 392.364 60.1608 393.484 60.1608C395.944 60.1608 397.164 61.2808 397.164 63.5108C397.164 65.2408 396.324 67.3608 394.654 69.8708C393.594 71.4308 392.264 73.0508 390.674 74.7308C389.084 76.4008 387.424 78.0508 385.694 79.6708C383.964 81.2908 382.244 82.8408 380.544 84.3208C378.844 85.8008 377.344 87.1108 376.064 88.2608C374.784 89.4108 373.814 90.3508 373.174 91.1108C372.534 91.8608 372.374 92.3008 372.714 92.4108C373.604 92.7408 375.044 92.4808 377.024 91.6108C379.004 90.7408 381.294 89.5008 383.884 87.8808C386.484 86.2608 389.254 84.3908 392.214 82.2708C395.174 80.1508 398.104 77.9408 401.004 75.6608H403.344L403.354 75.6408Z" fill="#B2AEA7"/>
<path d="M450.904 60.0707C450.514 60.4007 449.704 61.1207 448.474 62.2007C447.244 63.2907 445.784 64.6007 444.084 66.1407C442.384 67.6807 440.514 69.3607 438.474 71.2007C436.434 73.0407 434.414 74.9107 432.404 76.8107C430.394 78.7107 428.494 80.5507 426.714 82.3307C424.924 84.1207 423.394 85.7207 422.114 87.1407C420.834 88.5607 419.924 89.7507 419.394 90.7007C418.864 91.6507 418.854 92.2107 419.354 92.3707C420.304 92.7007 421.764 92.4407 423.744 91.5707C425.724 90.7007 428.014 89.4607 430.614 87.8407C433.204 86.2207 435.984 84.3507 438.944 82.2307C441.904 80.1107 444.834 77.9007 447.734 75.6207H449.994C446.814 78.1307 443.564 80.5707 440.244 82.9507C436.924 85.3207 433.794 87.4107 430.864 89.2307C427.934 91.0507 425.294 92.4207 422.954 93.3707C420.614 94.3207 418.854 94.6007 417.684 94.2107C416.904 93.9907 416.554 93.4407 416.634 92.5807C416.714 91.7107 417.094 90.6307 417.764 89.3107C418.434 87.9907 419.364 86.5507 420.564 84.9607C421.764 83.3707 423.114 81.6807 424.624 79.9007C422.554 81.4607 420.384 83.0307 418.094 84.5907C415.804 86.1507 413.544 87.5607 411.314 88.8207C409.084 90.0707 406.934 91.0907 404.864 91.8807C402.794 92.6607 400.954 93.0507 399.334 93.0507C397.214 93.0507 395.684 92.6607 394.734 91.8807C393.784 91.1007 393.314 90.0707 393.314 88.7807C393.314 87.4907 393.724 86.0207 394.534 84.3407C395.344 82.6707 396.474 80.9207 397.924 79.1107C399.374 77.3007 401.094 75.4807 403.074 73.6707C405.054 71.8607 407.194 70.1307 409.474 68.4807C411.764 66.8307 414.174 65.3707 416.714 64.0807C419.254 62.8007 421.834 61.7907 424.464 61.0707C425.744 60.6807 427.104 60.3607 428.524 60.1107C429.944 59.8607 431.304 59.7307 432.584 59.7307C434.484 59.7307 436.014 60.0907 437.194 60.8207C438.364 61.5507 438.724 62.8907 438.284 64.8407L442.724 60.2307C443.284 59.6207 443.824 59.2307 444.354 59.0607C444.884 58.8907 445.424 58.8107 445.984 58.8107C446.544 58.8107 447.114 58.8507 447.704 58.9307C448.294 59.0107 448.914 59.0607 449.584 59.0607C450.034 59.0607 450.514 59.0307 451.054 58.9807C451.584 58.9307 452.124 58.7607 452.684 58.4807L450.924 60.0707H450.904ZM400.504 91.1307C402.404 91.1307 404.674 90.5207 407.324 89.2907C409.974 88.0607 412.694 86.5307 415.484 84.6907C418.274 82.8507 420.984 80.9107 423.604 78.8707C426.224 76.8307 428.434 75.0307 430.214 73.4707C430.934 72.6307 431.664 71.8107 432.394 71.0007C433.114 70.1907 433.874 69.4007 434.654 68.6107C435.714 66.8207 436.244 65.4007 436.244 64.3407C436.244 62.7807 435.214 62.0007 433.144 62.0007C431.974 62.0007 430.594 62.2507 429.004 62.7507C427.414 63.2507 425.754 63.9507 424.024 64.8407C421.124 66.3507 418.154 68.2607 415.104 70.5807C412.064 72.9007 409.294 75.2507 406.814 77.6507C404.324 80.0507 402.294 82.3307 400.704 84.4707C399.114 86.6207 398.314 88.2807 398.314 89.4507C398.314 90.6207 399.034 91.1207 400.494 91.1207L400.504 91.1307Z" fill="#B2AEA7"/>
<path d="M488.244 75.6408C485.064 78.1508 481.794 80.5908 478.444 82.9708C475.094 85.3408 471.954 87.4309 469.024 89.2509C466.094 91.0709 463.474 92.4408 461.154 93.3908C458.834 94.3408 457.094 94.6208 455.924 94.2308C454.754 93.9008 454.164 93.2008 454.164 92.1408C454.164 90.9108 454.884 89.3208 456.344 87.3708C457.794 85.4208 459.554 83.3208 461.614 81.0908C463.674 78.8608 465.844 76.6308 468.104 74.3908C470.364 72.1608 472.304 70.1208 473.924 68.2808C475.874 66.1108 476.854 64.4608 476.854 63.3408C476.854 62.5608 476.254 62.2708 475.054 62.4608C473.854 62.6608 472.134 63.4808 469.904 64.9308C467.834 66.2708 465.384 68.1408 462.534 70.5408C459.684 72.9408 456.814 75.4908 453.914 78.2008C451.014 80.9108 448.234 83.5908 445.584 86.2408C442.934 88.8908 440.744 91.0809 439.014 92.8109L431.144 92.7308C432.984 90.7808 434.914 88.7708 436.924 86.7008C438.934 84.6408 440.944 82.5708 442.954 80.5108C444.964 78.4408 446.944 76.3809 448.894 74.3109C450.844 72.2509 452.714 70.2408 454.504 68.2808C456.454 66.1108 457.434 64.4608 457.434 63.3408C457.434 62.0008 455.984 62.0308 453.084 63.4208C452.914 63.5308 452.814 63.5208 452.794 63.3808C452.764 63.2408 452.754 63.0908 452.754 62.9208C452.754 62.7508 452.714 62.6008 452.624 62.4608C452.544 62.3208 452.384 62.2808 452.164 62.3308C453.614 61.5508 454.914 60.9808 456.054 60.6108C457.194 60.2508 458.214 60.0708 459.114 60.0708C460.234 60.0708 461.094 60.3608 461.704 60.9508C462.314 61.5308 462.624 62.3308 462.624 63.3408C462.624 65.1308 461.754 67.3008 460.034 69.8708C459.584 70.6508 458.974 71.5208 458.194 72.4608C460.204 70.6708 462.174 69.0009 464.094 67.4409C466.024 65.8809 467.794 64.5908 469.414 63.5908C471.254 62.4208 472.934 61.5509 474.434 61.0009C475.944 60.4409 477.254 60.1608 478.374 60.1608C480.834 60.1608 482.054 61.2808 482.054 63.5108C482.054 65.2408 481.214 67.3608 479.544 69.8708C478.484 71.4308 477.154 73.0508 475.564 74.7308C473.974 76.4008 472.314 78.0508 470.584 79.6708C468.854 81.2908 467.134 82.8408 465.434 84.3208C463.734 85.8008 462.234 87.1108 460.954 88.2608C459.674 89.4108 458.704 90.3508 458.064 91.1108C457.424 91.8608 457.264 92.3008 457.604 92.4108C458.494 92.7408 459.934 92.4808 461.914 91.6108C463.894 90.7408 466.184 89.5008 468.774 87.8808C471.374 86.2608 474.144 84.3908 477.104 82.2708C480.064 80.1508 482.994 77.9408 485.894 75.6608H488.234L488.244 75.6408Z" fill="#B2AEA7"/>
<path d="M521.814 75.6409C519.414 77.4809 516.794 79.4309 513.944 81.5009C511.094 83.5709 508.204 85.4509 505.284 87.1509C502.354 88.8509 499.474 90.2609 496.664 91.3809C493.844 92.5009 491.264 93.0509 488.914 93.0509C485.954 92.9409 483.834 92.3309 482.554 91.2109C481.274 90.0909 480.634 88.6409 480.634 86.8609C480.634 85.2409 481.124 83.4309 482.104 81.4209C483.084 79.4109 484.404 77.4009 486.084 75.3909C487.754 73.3809 489.724 71.4109 491.984 69.4909C494.244 67.5609 496.684 65.8809 499.314 64.4309C501.934 62.9809 504.644 61.8309 507.434 61.0009C510.224 60.1609 513.014 59.8009 515.804 59.9109C517.474 59.9109 518.704 60.2909 519.484 61.0409C520.264 61.7909 520.654 62.7609 520.654 63.9309C520.654 65.1009 520.344 66.2909 519.734 67.6509C519.124 69.0209 518.254 70.4009 517.144 71.7909C516.024 73.1909 514.684 74.5309 513.124 75.8109C511.564 77.1009 509.834 78.1809 507.934 79.0809C507.324 79.3609 506.774 79.5509 506.304 79.6709C505.834 79.7809 505.394 79.8409 505.004 79.8409C504.224 79.8409 503.674 79.6709 503.374 79.3409C503.074 79.0109 502.914 78.6709 502.914 78.3409C502.864 77.8409 503.124 77.1009 503.714 76.1209C504.304 75.1509 505.484 74.2709 507.274 73.4809C508.614 72.8709 509.894 72.1309 511.124 71.2609C512.354 70.4009 513.454 69.5209 514.434 68.6209C515.404 67.7309 516.194 66.8509 516.774 65.9809C517.364 65.1209 517.654 64.3509 517.654 63.6809C517.654 62.4509 516.624 61.8409 514.554 61.8409C512.764 62.0109 510.814 62.6209 508.694 63.6809C506.574 64.7409 504.454 66.0509 502.334 67.6209C500.214 69.1809 498.174 70.9309 496.224 72.8509C494.274 74.7809 492.544 76.7009 491.034 78.6309C489.524 80.5509 488.324 82.3809 487.434 84.1109C486.544 85.8409 486.094 87.2909 486.094 88.4609C486.094 89.4109 486.394 90.1209 487.014 90.6009C487.624 91.0709 488.664 91.2609 490.114 91.1409C492.124 91.1409 494.394 90.6409 496.934 89.6309C499.474 88.6309 502.074 87.3609 504.724 85.8209C507.374 84.2909 509.984 82.6109 512.554 80.8009C515.124 78.9909 517.464 77.2709 519.584 75.6509H521.844L521.814 75.6409Z" fill="#B2AEA7"/>
<path d="M533.954 60.2308C534.514 59.6208 535.044 59.2108 535.544 59.0208C536.044 58.8308 536.574 58.7308 537.134 58.7308C537.634 58.7308 538.184 58.7908 538.764 58.9008C539.344 59.0108 539.974 59.0708 540.644 59.0708C541.144 59.0708 541.664 59.0309 542.194 58.9409C542.724 58.8609 543.324 58.6808 543.994 58.4008L542.154 60.0708C541.764 60.4008 540.954 61.1208 539.724 62.2008C538.494 63.2908 537.034 64.6008 535.324 66.1408C533.624 67.6808 531.754 69.3608 529.714 71.2008C527.674 73.0408 525.664 74.9108 523.684 76.8108C521.704 78.7108 519.804 80.5508 517.994 82.3308C516.184 84.1208 514.644 85.7208 513.394 87.1408C512.144 88.5608 511.244 89.7508 510.714 90.7008C510.184 91.6508 510.164 92.2108 510.674 92.3708C511.574 92.7008 513.004 92.4408 514.984 91.5708C516.964 90.7008 519.254 89.4608 521.844 87.8408C524.434 86.2208 527.214 84.3508 530.174 82.2308C533.134 80.1108 536.064 77.9008 538.964 75.6208H541.304C538.124 78.1308 534.854 80.5708 531.504 82.9508C528.154 85.3208 525.014 87.4108 522.084 89.2308C519.154 91.0508 516.534 92.4208 514.214 93.3708C511.894 94.3208 510.154 94.6008 508.984 94.2108C507.924 93.8808 507.634 92.9808 508.104 91.5308C508.574 90.0808 509.524 88.3108 510.944 86.2208C512.364 84.1308 514.144 81.8408 516.264 79.3508C518.384 76.8708 520.544 74.4308 522.754 72.0208C524.954 69.6208 527.064 67.3808 529.074 65.2808C531.084 63.1908 532.704 61.5008 533.934 60.2208L533.954 60.2308ZM550.774 47.2608C551.224 47.8808 551.194 48.7108 550.694 49.7708C550.194 50.8308 549.294 51.8408 548.014 52.7808C546.784 53.7308 545.554 54.3308 544.334 54.5808C543.104 54.8308 542.264 54.6508 541.824 54.0408C541.324 53.4308 541.334 52.5908 541.864 51.5308C542.394 50.4708 543.304 49.4608 544.584 48.5108C545.814 47.5608 547.024 46.9608 548.224 46.7108C549.424 46.4608 550.274 46.6408 550.774 47.2508V47.2608Z" fill="#B2AEA7"/>
<path d="M588.874 60.0707C588.484 60.4007 587.674 61.1207 586.444 62.2007C585.214 63.2907 583.754 64.6007 582.054 66.1407C580.354 67.6807 578.484 69.3607 576.444 71.2007C574.404 73.0407 572.384 74.9107 570.374 76.8107C568.364 78.7107 566.464 80.5507 564.684 82.3307C562.894 84.1207 561.364 85.7207 560.084 87.1407C558.804 88.5607 557.894 89.7507 557.364 90.7007C556.834 91.6507 556.824 92.2107 557.324 92.3707C558.274 92.7007 559.734 92.4407 561.714 91.5707C563.694 90.7007 565.984 89.4607 568.584 87.8407C571.174 86.2207 573.954 84.3507 576.914 82.2307C579.874 80.1107 582.804 77.9007 585.704 75.6207H587.964C584.784 78.1307 581.534 80.5707 578.214 82.9507C574.894 85.3207 571.764 87.4107 568.834 89.2307C565.904 91.0507 563.264 92.4207 560.924 93.3707C558.584 94.3207 556.824 94.6007 555.654 94.2107C554.874 93.9907 554.524 93.4407 554.604 92.5807C554.684 91.7107 555.064 90.6307 555.734 89.3107C556.404 88.0007 557.334 86.5507 558.534 84.9607C559.734 83.3707 561.084 81.6807 562.594 79.9007C560.524 81.4607 558.354 83.0307 556.064 84.5907C553.774 86.1507 551.514 87.5607 549.284 88.8207C547.054 90.0707 544.904 91.0907 542.834 91.8807C540.764 92.6607 538.924 93.0507 537.304 93.0507C535.184 93.0507 533.654 92.6607 532.704 91.8807C531.754 91.1007 531.284 90.0707 531.284 88.7807C531.284 87.4907 531.694 86.0207 532.504 84.3407C533.314 82.6607 534.444 80.9207 535.894 79.1107C537.344 77.3007 539.064 75.4807 541.044 73.6707C543.024 71.8607 545.164 70.1307 547.444 68.4807C549.734 66.8307 552.144 65.3707 554.684 64.0807C557.224 62.8007 559.804 61.7907 562.434 61.0707C563.714 60.6807 565.074 60.3607 566.494 60.1107C567.914 59.8607 569.274 59.7307 570.554 59.7307C572.454 59.7307 573.984 60.0907 575.164 60.8207C576.334 61.5507 576.694 62.8907 576.254 64.8407L580.694 60.2307C581.254 59.6207 581.794 59.2307 582.324 59.0607C582.854 58.8907 583.394 58.8107 583.954 58.8107C584.514 58.8107 585.084 58.8507 585.674 58.9307C586.264 59.0107 586.884 59.0607 587.554 59.0607C588.004 59.0607 588.484 59.0307 589.024 58.9807C589.554 58.9307 590.094 58.7607 590.654 58.4807L588.894 60.0707H588.874ZM538.474 91.1307C540.374 91.1307 542.644 90.5207 545.294 89.2907C547.944 88.0607 550.664 86.5307 553.454 84.6907C556.244 82.8507 558.954 80.9107 561.574 78.8707C564.194 76.8307 566.404 75.0307 568.184 73.4707C568.904 72.6307 569.634 71.8107 570.364 71.0007C571.084 70.1907 571.844 69.4007 572.624 68.6107C573.684 66.8207 574.214 65.4007 574.214 64.3407C574.214 62.7807 573.184 62.0007 571.114 62.0007C569.944 62.0007 568.564 62.2507 566.974 62.7507C565.384 63.2507 563.724 63.9507 561.994 64.8407C559.094 66.3507 556.124 68.2607 553.074 70.5807C550.034 72.9007 547.264 75.2507 544.784 77.6507C542.294 80.0507 540.264 82.3307 538.674 84.4707C537.084 86.6207 536.284 88.2807 536.284 89.4507C536.284 90.6207 537.004 91.1207 538.464 91.1207L538.474 91.1307Z" fill="#B2AEA7"/>
<path d="M576.814 92.3808C577.764 92.7108 579.234 92.4508 581.214 91.5808C583.194 90.7108 585.474 89.4708 588.034 87.8508C590.604 86.2308 593.364 84.3608 596.324 82.2408C599.284 80.1208 602.244 77.9108 605.204 75.6308H607.464C604.284 78.1408 601.014 80.5808 597.664 82.9608C594.314 85.3308 591.174 87.4208 588.244 89.2408C585.314 91.0608 582.694 92.4308 580.374 93.3808C578.054 94.3308 576.314 94.6108 575.144 94.2208C574.194 93.9408 573.844 93.2208 574.094 92.0408C574.344 90.8708 575.004 89.4308 576.064 87.7308C577.124 86.0308 578.494 84.1308 580.164 82.0408C581.834 79.9508 583.654 77.8408 585.604 75.7208C588.394 72.5908 591.434 69.3308 594.734 65.9208C598.034 62.5108 601.434 59.0608 604.944 55.5408C608.464 52.0208 612.034 48.5108 615.664 44.9908C619.294 41.4708 622.864 38.0108 626.384 34.6108C626.834 34.1608 627.314 33.8609 627.844 33.6909C628.374 33.5209 628.914 33.4409 629.474 33.4409C630.424 33.4409 631.394 33.5209 632.404 33.6909C633.404 33.8609 634.384 33.7408 635.334 33.3508C631.374 37.1508 627.574 40.7908 623.944 44.2708C620.314 47.7608 616.734 51.2208 613.184 54.6508C609.644 58.0808 606.044 61.5308 602.384 64.9908C598.724 68.4508 594.944 72.0208 591.034 75.7108C588.914 77.7208 586.874 79.6708 584.924 81.5708C582.974 83.4708 581.294 85.2008 579.904 86.7608C578.504 88.3208 577.504 89.6108 576.884 90.6108C576.274 91.6108 576.244 92.2008 576.804 92.3708L576.814 92.3808Z" fill="#B2AEA7"/>
</svg>
