<svg width="383" height="219" viewBox="0 0 383 219" fill="none" xmlns="http://www.w3.org/2000/svg">
<path d="M197.26 101.163V101.203L197.3 101.163H197.26ZM199.42 98.1227C199.12 98.3727 198.82 98.6726 198.6 98.9726C198.19 99.5326 197.86 100.093 197.57 100.693C197.5 100.833 197.38 100.983 197.31 101.133V101.173C197.5 101.023 197.65 100.873 197.8 100.703H197.84C198.01 100.513 198.2 100.363 198.35 100.213L198.8 99.7627C199.55 98.9727 199.96 98.3827 200.18 97.9827C200.33 97.7227 200.37 97.5327 200.4 97.4227C200.18 97.5327 199.8 97.7927 199.43 98.1327L199.42 98.1227ZM199.42 98.1227C199.12 98.3727 198.82 98.6726 198.6 98.9726C198.19 99.5326 197.86 100.093 197.57 100.693C197.5 100.833 197.38 100.983 197.31 101.133V101.173C197.5 101.023 197.65 100.873 197.8 100.703H197.84C198.01 100.513 198.2 100.363 198.35 100.213L198.8 99.7627C199.55 98.9727 199.96 98.3827 200.18 97.9827C200.33 97.7227 200.37 97.5327 200.4 97.4227C200.18 97.5327 199.8 97.7927 199.43 98.1327L199.42 98.1227ZM197.26 101.163V101.203L197.3 101.163H197.26ZM197.26 101.163V101.203L197.3 101.163H197.26ZM199.42 98.1227C199.12 98.3727 198.82 98.6726 198.6 98.9726C198.19 99.5326 197.86 100.093 197.57 100.693C197.5 100.833 197.38 100.983 197.31 101.133V101.173C197.5 101.023 197.65 100.873 197.8 100.703H197.84C198.01 100.513 198.2 100.363 198.35 100.213L198.8 99.7627C199.55 98.9727 199.96 98.3827 200.18 97.9827C200.33 97.7227 200.37 97.5327 200.4 97.4227C200.18 97.5327 199.8 97.7927 199.43 98.1327L199.42 98.1227ZM199.42 98.1227C199.12 98.3727 198.82 98.6726 198.6 98.9726C198.19 99.5326 197.86 100.093 197.57 100.693C197.5 100.833 197.38 100.983 197.31 101.133V101.173C197.5 101.023 197.65 100.873 197.8 100.703H197.84C198.01 100.513 198.2 100.363 198.35 100.213L198.8 99.7627C199.55 98.9727 199.96 98.3827 200.18 97.9827C200.33 97.7227 200.37 97.5327 200.4 97.4227C200.18 97.5327 199.8 97.7927 199.43 98.1327L199.42 98.1227ZM197.26 101.203L197.3 101.163H197.26V101.203ZM370.96 90.3727L211.47 5.03267C198.98 -1.64733 183.98 -1.64733 171.49 5.03267L12 90.3727C-2.93001 98.3627 -2.93001 119.763 12 127.743L171.49 213.083C183.98 219.763 198.98 219.763 211.47 213.083L370.96 127.743C385.89 119.753 385.89 98.3527 370.96 90.3727ZM157.1 142.363C157.62 141.853 158.15 141.333 158.63 140.763C163.13 135.893 167.08 130.723 170.72 125.433V132.683C170.72 136.113 171.65 139.453 173.4 142.353H157.1V142.363ZM178.73 114.863C178.36 114.863 177.98 114.933 177.61 115.053C177.87 114.683 178.13 114.313 178.36 113.943C179.62 111.963 180.85 110.103 182.07 108.283C182.78 108.323 183.49 108.353 184.24 108.433C184.79 108.473 185.39 108.503 185.98 108.543C183.71 112.443 181.92 114.753 178.73 114.863ZM188.48 114.093H188.44C188.25 114.283 188.07 114.463 187.88 114.603C187.69 114.753 187.51 114.943 187.36 115.053C187.17 115.203 186.99 115.353 186.81 115.543H186.77C185.72 116.363 184.68 117.043 183.57 117.473C183.35 117.583 183.12 117.693 182.9 117.773C181.55 118.333 180.15 118.593 178.74 118.523C178.52 118.523 178.37 118.453 178.22 118.303C178.07 118.193 178 118.003 178 117.813V117.773C178 117.583 178.11 117.403 178.26 117.303C178.33 117.233 178.45 117.193 178.56 117.153C178.6 117.113 178.63 117.113 178.67 117.113H178.77C179.07 117.113 179.41 117.073 179.7 117.043C180 117.003 180.26 116.933 180.56 116.853C180.86 116.773 181.12 116.703 181.38 116.593C182.08 116.333 182.68 115.993 183.27 115.543C183.79 115.173 184.27 114.753 184.72 114.283C186.18 112.713 187.36 110.703 188.6 108.553C188.67 108.443 188.71 108.333 188.79 108.213C189.05 107.763 189.31 107.313 189.57 106.833C189.68 106.683 189.74 106.513 189.86 106.363C189.31 106.383 188.79 106.383 188.27 106.383C186.94 106.383 185.7 106.313 184.43 106.213C183.84 106.173 183.28 106.103 182.69 106.063H182.17C181.76 106.023 181.32 106.023 180.91 106.023C179.45 108.183 178.01 110.413 176.59 112.603C175.97 113.573 175.33 114.583 174.7 115.543C174.21 116.293 173.73 117.043 173.25 117.773C173.14 117.923 173.06 118.033 172.99 118.143C172.24 119.263 171.53 120.373 170.75 121.493C168.18 125.333 165.47 129.153 162.49 132.883C160.78 135.003 159 137.083 157.13 139.143C157.09 139.143 157.09 139.183 157.09 139.183C157.09 139.183 157.067 139.216 157.02 139.283H156.98C156.21 140.143 155.46 140.963 154.67 141.753L154.41 142.003C152.7 143.763 151 145.313 149.28 146.773C145.01 150.373 140.64 153.063 136.26 154.923C135.81 155.143 135.33 155.333 134.88 155.483C133.51 156.033 132.09 156.443 130.72 156.743C130.57 156.783 130.46 156.813 130.31 156.813H130.27C128.56 157.183 126.84 157.333 125.17 157.333C124.57 157.333 123.97 157.293 123.39 157.223C122.83 157.153 122.27 157.033 121.71 156.883C121.52 156.843 121.34 156.773 121.15 156.733C120.86 156.663 120.6 156.543 120.3 156.473C120.15 156.403 119.96 156.323 119.78 156.283C119.71 156.243 119.63 156.243 119.56 156.213C119.11 156.023 118.7 155.853 118.29 155.623C117.93 155.403 117.52 155.173 117.14 154.913C117.03 154.843 116.95 154.843 116.88 154.763C116.81 154.763 116.77 154.763 116.73 154.723C116.69 154.683 116.66 154.683 116.62 154.653C116.58 154.613 116.51 154.583 116.47 154.503C115.72 154.013 115.06 153.383 114.46 152.643C114.27 152.423 114.09 152.153 113.94 151.893C113.6 151.403 113.3 150.843 113.08 150.263C112.97 149.923 112.86 149.593 112.78 149.253V149.183C112.71 148.843 112.64 148.543 112.61 148.213V148.023C112.54 147.553 112.5 147.023 112.57 146.503C112.53 146.353 112.57 146.203 112.57 146.053C112.57 145.833 112.61 145.603 112.64 145.383V145.343C112.68 144.853 112.78 144.383 112.93 143.893C113.23 142.923 113.64 141.923 114.16 140.993C114.16 140.993 114.183 140.969 114.23 140.923C114.23 140.923 114.23 140.883 114.27 140.883L114.38 140.773C114.38 140.773 114.45 140.703 114.49 140.703C114.6 140.633 114.71 140.593 114.86 140.593C115.01 140.593 115.16 140.593 115.27 140.663C115.38 140.733 115.44 140.853 115.48 140.923C115.59 141.073 115.63 141.263 115.55 141.483C115.59 141.553 115.55 141.593 115.51 141.673C115.34 142.043 115.15 142.373 115.04 142.743C114.22 144.573 113.96 146.203 114.14 147.723C114.18 147.763 114.18 147.793 114.14 147.793C114.14 147.943 114.18 148.133 114.21 148.283C114.28 148.773 114.4 149.213 114.58 149.633C115.22 151.263 116.32 152.503 117.71 153.383C118.63 153.983 119.64 154.463 120.65 154.803C122.21 155.293 123.8 155.513 125.26 155.513C127.38 155.513 129.46 155.023 131.52 154.283C132.37 153.983 133.19 153.643 134.01 153.313C134.46 153.163 134.86 152.993 135.27 152.803C141.64 149.483 147.48 144.503 154.1 136.643C154.4 136.283 154.74 135.903 155.03 135.533C155.82 134.603 156.56 133.643 157.3 132.633C162.4 125.963 166.91 118.603 171.93 110.303C172.15 109.933 172.38 109.553 172.6 109.153H172.64C172.83 108.813 173.03 108.483 173.21 108.143C173.41 107.803 173.62 107.473 173.82 107.133C173.93 106.943 174.04 106.763 174.16 106.573C172.79 106.913 171.59 107.323 170.52 107.843C169.81 108.213 169.17 108.633 168.61 109.073C168.31 109.283 168.01 109.513 167.79 109.773C167.65 109.923 167.5 110.073 167.35 110.263C167.28 110.333 167.2 110.413 167.09 110.523C166.9 110.823 166.68 111.123 166.49 111.423C166.42 111.533 166.34 111.643 166.23 111.723C166.16 111.763 166.08 111.793 165.97 111.793C165.93 111.813 165.9 111.813 165.86 111.813L165.82 111.863C165.67 111.863 165.52 111.813 165.45 111.753C165.34 111.683 165.23 111.603 165.19 111.493C165.05 111.233 165.05 110.893 165.23 110.593C165.75 109.803 166.35 109.073 167.02 108.433C167.36 108.093 167.73 107.793 168.09 107.503C168.88 106.903 169.7 106.423 170.62 106.023C172 105.423 173.6 104.973 175.39 104.673C175.76 104.113 176.13 103.563 176.5 102.963C176.99 102.213 177.51 101.463 178.03 100.693C179.7 98.1927 181.52 95.5827 183.58 92.7527H189.05C187.89 94.5127 186.82 96.3327 185.73 98.0727C185.21 98.9327 184.68 99.8327 184.17 100.693C183.68 101.463 183.24 102.213 182.71 102.963C182.45 103.453 182.15 103.883 181.85 104.333C182.3 104.333 182.71 104.373 183.16 104.403C183.65 104.443 184.17 104.473 184.64 104.513C186.73 104.703 188.81 104.883 190.86 104.583C191.2 104.063 191.53 103.513 191.91 102.953C191.98 102.843 192.06 102.733 192.13 102.613C192.57 101.973 193.05 101.303 193.54 100.683C194.03 100.043 194.59 99.4527 195.15 98.8527C195.74 98.2527 196.33 97.7427 196.97 97.2527C197.34 96.9927 198.15 96.4327 199.05 96.0927C199.87 95.7527 200.76 95.6027 201.39 96.0527C201.76 96.3527 201.95 96.7627 201.95 97.2127C201.95 97.6227 201.84 98.0627 201.65 98.5127C201.43 98.9627 201.13 99.4127 200.83 99.8627C200.58 100.123 200.36 100.423 200.13 100.683C199.79 101.043 199.46 101.423 199.08 101.793C198.86 101.983 198.63 102.203 198.41 102.393C198.19 102.583 197.96 102.763 197.75 102.953C197.64 103.063 197.49 103.173 197.34 103.253L197.3 103.293L197.26 103.333C196.81 103.653 196.4 103.923 195.99 104.183C195.77 104.293 195.54 104.443 195.35 104.553H195.31C195.1 104.963 194.87 105.373 194.69 105.823H194.65V105.863C194.28 106.453 193.94 107.083 193.57 107.683H193.53C193.53 107.683 193.53 107.723 193.52 107.733C193.52 107.733 193.51 107.743 193.5 107.753C193.13 108.393 192.68 108.983 192.28 109.613C192.17 109.803 192.02 109.983 191.91 110.133L191.87 110.173C191.72 110.393 191.57 110.583 191.42 110.813H191.38V110.853C190.89 111.413 190.45 111.963 189.96 112.483C189.52 113.043 189 113.563 188.48 114.093ZM221.68 116.653C218.74 115.903 215.72 115.533 212.71 115.533H190.15C193.5 112.293 195.88 108.313 197.04 106.163C197.83 105.673 198.86 104.963 199.91 104.073C200.28 103.733 200.7 103.373 201.09 102.963H212.71C214.21 102.963 215.73 102.853 217.22 102.663C218.74 102.473 220.22 102.213 221.68 101.843V116.663V116.653ZM227.07 92.7127C224.13 91.2627 220.89 90.4827 217.61 90.4827H170.71V96.1827C170.71 98.1927 170.9 100.173 171.31 102.063L171.5 102.963H172.73C168.52 103.993 165.39 106.133 163.31 109.353C162.67 110.473 162.67 111.673 163.24 112.593C163.8 113.523 164.74 114.093 165.81 114.093H165.88L165.99 114.053C166.4 114.053 166.85 113.903 167.22 113.713C163.83 119.223 160.66 124.243 157.28 128.893V83.5326C157.28 81.6226 157.09 79.7327 156.73 77.8727H193.72L193.68 77.9127H205.07L205.14 77.8727H209.71C209.9 78.0227 210.05 78.2427 210.16 78.5427C210.2 78.8327 210.27 79.0927 210.38 79.3527C210.83 80.4327 211.94 81.1827 213.17 81.1827C214.84 81.1827 216.19 79.8027 216.19 78.1327C216.19 78.0627 216.19 77.9427 216.15 77.8727H227.05V92.7127H227.07ZM210.88 74.2327C211.68 74.5827 212.38 75.0027 212.85 75.6427C213.37 76.2327 213.71 76.9727 213.9 77.8027C213.94 77.8027 213.94 77.8427 213.94 77.8727V77.9127C213.94 77.9127 213.98 78.0627 213.98 78.1327C213.98 78.5827 213.64 78.9427 213.19 78.9427C212.85 78.9427 212.55 78.7227 212.44 78.4727C212.4 78.3627 212.37 78.2527 212.37 78.1327C212.33 78.0227 212.33 77.9427 212.3 77.8727C212.08 77.1627 211.71 76.6027 211.23 76.1527C211.04 75.9827 210.86 75.8327 210.63 75.7127C210.59 75.6727 210.52 75.6427 210.48 75.6427C210.33 75.5327 210.14 75.4527 209.96 75.3827C209.62 75.2327 209.25 75.1627 208.89 75.1227C208.52 75.0127 208.11 74.9727 207.73 74.9727C207.66 74.9727 207.54 74.9727 207.43 75.0127H207.62C207.46 75.0127 207.3 75.0527 207.13 75.0627C206.79 75.1027 206.46 75.1327 206.13 75.2027C205.94 75.2027 205.72 75.2727 205.53 75.3127C205.46 75.3527 205.42 75.3527 205.34 75.3827H205.3C205.08 75.4527 204.89 75.5327 204.7 75.6427H204.66C204.66 75.6427 204.62 75.6827 204.59 75.6827H200.39L200.43 75.6427H200.47C200.47 75.6427 200.47 75.6027 200.51 75.6027C200.83 75.3827 202.07 74.5927 204 74.0727C204.67 73.8527 205.42 73.7027 206.28 73.5827C206.75 73.5427 207.24 73.5127 207.69 73.5127C207.91 73.5127 208.1 73.5127 208.29 73.5527C208.55 73.5527 208.81 73.5927 209.03 73.6227C209.55 73.6927 210.04 73.8427 210.56 74.0327C210.62 74.0527 210.67 74.1027 210.72 74.1427C210.76 74.1527 210.79 74.1827 210.83 74.1927C210.84 74.1927 210.84 74.2027 210.85 74.2027C210.86 74.2127 210.87 74.2127 210.89 74.2227L210.88 74.2327ZM266.93 61.9827C263.81 67.2327 257.41 71.5427 249.33 73.9227C244.31 75.4527 238.76 75.4227 234.51 75.2327C225.36 74.7827 216.73 72.7427 207.6 70.5427C201.46 69.0427 195.14 67.5227 188.62 66.5527C184.08 65.8427 179.76 65.5027 175.67 65.5027C169.23 65.5027 163.31 66.3627 157.76 68.0727C144.4 72.2827 133.5 81.5527 127.76 93.4627C125.19 98.9327 123.92 105.003 124.15 110.473C124.26 114.933 126.32 121.003 131.68 123.463C134.8 124.923 138.45 125.183 143.21 124.283C147.57 123.163 151.77 120.703 155.05 117.503V119.633C151.7 122.573 147.65 124.843 143.4 125.913C141.47 126.363 139.57 126.583 137.78 126.583C135.32 126.583 133.02 126.173 130.86 125.323C125.2 123.153 121.06 117.873 119.81 111.213C118.54 104.883 119.81 97.7826 123.42 91.2226C129.63 79.7526 141.99 70.7127 157.28 66.3927C166.81 63.7127 177.42 63.1127 188.88 64.7227C193.38 65.3827 197.93 66.3227 202.35 67.2527C204.39 67.6627 206.44 68.1027 208.49 68.5127C217.75 70.3027 225.54 71.7127 234.61 72.0527C243.43 72.3927 259.25 71.4127 265.62 61.1827C265.84 60.7727 266.29 60.6927 266.63 60.8427C266.99 61.0627 267.1 61.5527 266.92 61.9627L266.93 61.9827ZM197.82 100.693C197.99 100.503 198.18 100.353 198.33 100.203L198.78 99.7527C199.53 98.9627 199.94 98.3726 200.16 97.9726C200.31 97.7126 200.35 97.5227 200.38 97.4127C200.16 97.5227 199.78 97.7827 199.41 98.1227C199.11 98.3727 198.81 98.6726 198.59 98.9726C198.18 99.5326 197.85 100.093 197.56 100.693C197.49 100.833 197.37 100.983 197.3 101.133V101.173C197.49 101.023 197.64 100.873 197.79 100.703H197.83L197.82 100.693ZM197.26 101.163V101.203L197.3 101.163H197.26ZM197.26 101.163V101.203L197.3 101.163H197.26ZM199.42 98.1227C199.12 98.3727 198.82 98.6726 198.6 98.9726C198.19 99.5326 197.86 100.093 197.57 100.693C197.5 100.833 197.38 100.983 197.31 101.133V101.173C197.5 101.023 197.65 100.873 197.8 100.703H197.84C198.01 100.513 198.2 100.363 198.35 100.213L198.8 99.7627C199.55 98.9727 199.96 98.3827 200.18 97.9827C200.33 97.7227 200.37 97.5327 200.4 97.4227C200.18 97.5327 199.8 97.7927 199.43 98.1327L199.42 98.1227ZM199.42 98.1227C199.12 98.3727 198.82 98.6726 198.6 98.9726C198.19 99.5326 197.86 100.093 197.57 100.693C197.5 100.833 197.38 100.983 197.31 101.133V101.173C197.5 101.023 197.65 100.873 197.8 100.703H197.84C198.01 100.513 198.2 100.363 198.35 100.213L198.8 99.7627C199.55 98.9727 199.96 98.3827 200.18 97.9827C200.33 97.7227 200.37 97.5327 200.4 97.4227C200.18 97.5327 199.8 97.7927 199.43 98.1327L199.42 98.1227ZM197.26 101.163V101.203L197.3 101.163H197.26ZM197.26 101.163V101.203L197.3 101.163H197.26ZM199.42 98.1227C199.12 98.3727 198.82 98.6726 198.6 98.9726C198.19 99.5326 197.86 100.093 197.57 100.693C197.5 100.833 197.38 100.983 197.31 101.133V101.173C197.5 101.023 197.65 100.873 197.8 100.703H197.84C198.01 100.513 198.2 100.363 198.35 100.213L198.8 99.7627C199.55 98.9727 199.96 98.3827 200.18 97.9827C200.33 97.7227 200.37 97.5327 200.4 97.4227C200.18 97.5327 199.8 97.7927 199.43 98.1327L199.42 98.1227ZM199.42 98.1227C199.12 98.3727 198.82 98.6726 198.6 98.9726C198.19 99.5326 197.86 100.093 197.57 100.693C197.5 100.833 197.38 100.983 197.31 101.133V101.173C197.5 101.023 197.65 100.873 197.8 100.703H197.84C198.01 100.513 198.2 100.363 198.35 100.213L198.8 99.7627C199.55 98.9727 199.96 98.3827 200.18 97.9827C200.33 97.7227 200.37 97.5327 200.4 97.4227C200.18 97.5327 199.8 97.7927 199.43 98.1327L199.42 98.1227ZM197.26 101.163V101.203L197.3 101.163H197.26Z" fill="white"/>
<path d="M200.39 97.4127C200.35 97.5227 200.32 97.7127 200.17 97.9727C199.95 98.3727 199.53 98.9727 198.79 99.7527L198.34 100.203C198.19 100.353 198 100.503 197.83 100.693H197.79C197.64 100.833 197.49 100.983 197.3 101.133C197.37 100.983 197.49 100.833 197.56 100.693C197.86 100.093 198.18 99.5327 198.59 98.9727C198.81 98.6727 199.11 98.3727 199.41 98.1227C199.78 97.7827 200.16 97.5227 200.38 97.4127H200.39Z" fill="white"/>
<path d="M210.88 74.2227C210.88 74.2227 210.86 74.2227 210.84 74.2127C210.86 74.2127 210.86 74.2227 210.88 74.2227Z" fill="white"/>
<path d="M197.3 101.163C197.3 101.163 197.26 101.163 197.26 101.203V101.163H197.3Z" fill="white"/>
<path d="M191.42 110.813L191.38 110.853V110.813H191.42Z" fill="white"/>
<path d="M193.57 107.683C193.57 107.683 193.53 107.723 193.52 107.733C193.53 107.723 193.53 107.713 193.53 107.683H193.57Z" fill="white"/>
<path d="M194.7 105.823L194.66 105.863V105.823H194.7Z" fill="white"/>
<path d="M173.2 108.133C173.01 108.473 172.81 108.803 172.63 109.143H172.59C172.79 108.803 173 108.473 173.2 108.133Z" fill="white"/>
<path d="M195.36 104.553C195.15 104.963 194.92 105.413 194.7 105.823C194.89 105.373 195.11 104.963 195.32 104.553H195.36Z" fill="white"/>
<path d="M183.57 117.463C183.46 117.573 183.31 117.683 183.2 117.763H182.9C183.12 117.693 183.35 117.573 183.57 117.463Z" fill="white"/>
<path d="M179.69 117.033C179.39 117.073 179.05 117.103 178.76 117.103H178.66C178.66 117.103 178.76 117.063 178.8 117.063C179.14 117.063 179.44 117.023 179.7 117.023L179.69 117.033Z" fill="white"/>
<path d="M156.98 139.273C156.21 140.133 155.42 140.953 154.64 141.743C155.43 140.953 156.17 140.133 156.95 139.273H156.99H156.98Z" fill="white"/>
<path d="M200.83 99.8727C200.62 100.133 200.39 100.433 200.17 100.693C199.83 101.053 199.46 101.433 199.09 101.803C199.46 101.433 199.8 101.053 200.14 100.693C200.36 100.433 200.59 100.133 200.84 99.8727H200.83Z" fill="white"/>
<path d="M197.79 100.693C197.64 100.863 197.49 101.013 197.3 101.163V101.123C197.49 100.973 197.64 100.823 197.79 100.683V100.693Z" fill="white"/>
<path d="M189.07 92.7127C189.07 92.7127 189.03 92.7127 189.03 92.7527H183.56L183.6 92.7127H189.07Z" fill="white"/>
<path d="M205.15 77.8727L205.08 77.9127H193.69L193.72 77.8727H205.15Z" fill="white"/>
<path d="M206.12 75.1927C206.05 75.2127 206.01 75.2127 205.96 75.2327C205.94 75.2427 205.89 75.2527 205.86 75.2727C205.67 75.3127 205.49 75.3427 205.34 75.3827C205.41 75.3427 205.45 75.3427 205.53 75.3127C205.72 75.2727 205.94 75.2027 206.13 75.2027L206.12 75.1927Z" fill="white"/>
<path d="M208.88 75.1227C208.51 75.0527 208.13 75.0127 207.76 75.0127H207.42C207.53 74.9727 207.64 74.9727 207.72 74.9727C208.09 74.9727 208.51 75.0127 208.88 75.1227Z" fill="white"/>
</svg>
