<svg width="49" height="49" viewBox="0 0 49 49" fill="none" xmlns="http://www.w3.org/2000/svg">
<path d="M12.25 38.7916H18.375V28.5833C18.375 28.0048 18.571 27.5203 18.963 27.1296C19.355 26.739 19.8396 26.543 20.4167 26.5416H28.5833C29.1618 26.5416 29.647 26.7376 30.039 27.1296C30.431 27.5216 30.6264 28.0062 30.625 28.5833V38.7916H36.75V20.4166L24.5 11.2291L12.25 20.4166V38.7916ZM8.16666 38.7916V20.4166C8.16666 19.7701 8.31162 19.1576 8.60154 18.5791C8.89146 18.0007 9.29094 17.5243 9.8 17.15L22.05 7.96248C22.7646 7.41804 23.5812 7.14581 24.5 7.14581C25.4187 7.14581 26.2354 7.41804 26.95 7.96248L39.2 17.15C39.7104 17.5243 40.1106 18.0007 40.4005 18.5791C40.6904 19.1576 40.8347 19.7701 40.8333 20.4166V38.7916C40.8333 39.9146 40.4332 40.8762 39.6328 41.6765C38.8325 42.4769 37.8716 42.8763 36.75 42.875H28.5833C28.0049 42.875 27.5203 42.679 27.1297 42.287C26.739 41.895 26.543 41.4104 26.5417 40.8333V30.625H22.4583V40.8333C22.4583 41.4118 22.2623 41.897 21.8703 42.289C21.4783 42.681 20.9938 42.8763 20.4167 42.875H12.25C11.1271 42.875 10.1661 42.4755 9.36716 41.6765C8.56819 40.8776 8.16803 39.9159 8.16666 38.7916Z" fill="#D4D4D4"/>
</svg>
