<svg width="44" height="44" viewBox="0 0 44 44" fill="none" xmlns="http://www.w3.org/2000/svg">
<path d="M12.8333 33C9.77778 33 7.18056 31.9306 5.04167 29.7917C2.90278 27.6528 1.83334 25.0556 1.83334 22C1.83334 18.9444 2.90278 16.3472 5.04167 14.2083C7.18056 12.0694 9.77778 11 12.8333 11C14.85 11 16.6986 11.5042 18.3792 12.5125C20.0597 13.5208 21.3889 14.85 22.3667 16.5H38.5C39.5083 16.5 40.3718 16.8593 41.0905 17.578C41.8092 18.2967 42.1679 19.1596 42.1667 20.1667V23.8333C42.1667 24.8417 41.8079 25.7052 41.0905 26.4238C40.3731 27.1425 39.5096 27.5012 38.5 27.5V29.3333C38.5 30.3417 38.1413 31.2052 37.4238 31.9238C36.7064 32.6425 35.8429 33.0012 34.8333 33H31.1667C30.1583 33 29.2954 32.6413 28.578 31.9238C27.8606 31.2064 27.5012 30.3429 27.5 29.3333V27.5H22.3667C21.3889 29.15 20.0597 30.4792 18.3792 31.4875C16.6986 32.4958 14.85 33 12.8333 33ZM12.8333 29.3333C14.85 29.3333 16.4694 28.7149 17.6917 27.478C18.9139 26.2411 19.6472 25.0262 19.8917 23.8333H31.1667V29.3333H34.8333V23.8333H38.5V20.1667H19.8917C19.6472 18.975 18.9139 17.7607 17.6917 16.5238C16.4694 15.2869 14.85 14.6679 12.8333 14.6667C10.8167 14.6654 9.09028 15.3835 7.65417 16.8208C6.21806 18.2582 5.5 19.9846 5.5 22C5.5 24.0154 6.21806 25.7418 7.65417 27.1792C9.09028 28.6165 10.8167 29.3346 12.8333 29.3333ZM12.8333 25.6667C13.8417 25.6667 14.7052 25.3079 15.4238 24.5905C16.1425 23.8731 16.5012 23.0096 16.5 22C16.4988 20.9904 16.1401 20.1276 15.4238 19.4113C14.7076 18.6951 13.8441 18.3358 12.8333 18.3333C11.8226 18.3309 10.9597 18.6902 10.2447 19.4113C9.52967 20.1324 9.17034 20.9953 9.16667 22C9.163 23.0047 9.52234 23.8682 10.2447 24.5905C10.967 25.3128 11.8299 25.6716 12.8333 25.6667Z" fill="#D4D4D4"/>
</svg>
