<svg width="82" height="82" viewBox="0 0 82 82" fill="none" xmlns="http://www.w3.org/2000/svg">
<path fill-rule="evenodd" clip-rule="evenodd" d="M39.6443 0.359918C40.0572 0.124058 40.5245 0 41 0C41.4755 0 41.9428 0.124058 42.3557 0.359918L80.6224 22.2266C81.0407 22.4656 81.3885 22.8109 81.6304 23.2275C81.8723 23.6441 81.9998 24.1173 82 24.5991V28.5351C82.0002 40.5944 78.0715 52.3255 70.8088 61.9526C63.5461 71.5796 53.3447 78.5785 41.7489 81.8898C41.2594 82.0293 40.7406 82.0293 40.2511 81.8898C28.6553 78.5785 18.4539 71.5796 11.1912 61.9526C3.92848 52.3255 -0.000150275 40.5944 4.31126e-09 28.5351L4.31126e-09 24.5991C0.000155405 24.1173 0.127654 23.6441 0.369577 23.2275C0.6115 22.8109 0.959252 22.4656 1.3776 22.2266L39.6443 0.359918ZM38.6603 58.5526L62.2653 29.0381L58.0013 25.6269L37.8731 50.779L23.616 38.8999L20.1173 43.0983L38.6603 58.5526Z" fill="white"/>
</svg>
