<svg width="49" height="49" viewBox="0 0 49 49" fill="none" xmlns="http://www.w3.org/2000/svg">
<path d="M24.5 6.12499L25.5045 3.77912C25.1871 3.6432 24.8453 3.57312 24.5 3.57312C24.1547 3.57312 23.813 3.6432 23.4955 3.77912L24.5 6.12499ZM24.5 42.875L23.2342 45.0902C24.0182 45.5394 24.9818 45.5394 25.7658 45.0902L24.5 42.875ZM23.4955 3.77912L10.4411 9.37329L12.4501 14.065L25.5045 8.47087L23.4955 3.77912ZM7.65625 13.5975V27.6033H12.7604V13.5975H7.65625ZM15.1145 40.4515L23.2342 45.0922L25.7658 40.6618L17.6461 36.0211L15.1145 40.4515ZM25.7658 45.0922L33.8855 40.4536L31.3539 36.0232L23.2342 40.6618L25.7658 45.0922ZM41.3438 27.6013V13.5975H36.2396V27.6033L41.3438 27.6013ZM38.5589 9.37533L25.5045 3.78116L23.4955 8.47291L36.5479 14.0671L38.5589 9.37533ZM41.3438 13.5975C41.3438 11.76 40.2494 10.1001 38.5589 9.37533L36.5479 14.0671C36.4562 14.0275 36.3781 13.962 36.3233 13.8785C36.2685 13.795 36.2394 13.6973 36.2396 13.5975H41.3438ZM33.8855 40.4536C36.1513 39.1589 38.0345 37.2882 39.3443 35.0311C40.654 32.7741 41.3438 30.2109 41.3438 27.6013H36.2396C36.2396 29.3108 35.7877 30.99 34.9297 32.4686C34.0717 33.9473 32.8381 35.1749 31.3539 36.0232L33.8855 40.4536ZM7.65625 27.5992C7.65617 30.2088 8.34597 32.772 9.65575 35.0291C10.9655 37.2861 12.8487 39.1568 15.1145 40.4515L17.6461 36.0211C16.1616 35.1727 14.9278 33.9468 14.0698 32.4677C13.2118 30.9887 12.76 29.3091 12.7604 27.5992H7.65625ZM10.4411 9.37329C9.61434 9.72746 8.90975 10.3165 8.4147 11.0674C7.91966 11.8184 7.65594 12.6981 7.65625 13.5975H12.7604C12.7604 13.8017 12.6379 13.9834 12.4501 14.065L10.4411 9.37329Z" fill="#D4D4D4"/>
<path d="M30.625 20.4167L22.4583 28.5834L18.375 24.5" stroke="#D4D4D4" stroke-width="4.08333" stroke-linecap="round" stroke-linejoin="round"/>
</svg>
