<svg width="40" height="40" viewBox="0 0 40 40" fill="none" xmlns="http://www.w3.org/2000/svg">
<path fill-rule="evenodd" clip-rule="evenodd" d="M5.42285 30.7943C4.88674 31.3304 4.15961 31.6316 3.40143 31.6316C2.64324 31.6316 1.91611 31.3304 1.38 30.7943C0.843881 30.2581 0.542694 29.531 0.542694 28.7728C0.542694 28.0146 0.843881 27.2875 1.38 26.7514L10.9029 17.2314L10.9229 17.2114C11.7009 16.4493 12.7466 16.0225 13.8357 16.0225C14.9248 16.0225 15.9705 16.4493 16.7486 17.2114L16.7686 17.2314L21.6286 22.0914L28.3343 15L25.3629 12.0285C25.0635 11.7289 24.8598 11.3472 24.7772 10.9318C24.6947 10.5164 24.7371 10.0858 24.8992 9.69447C25.0612 9.30315 25.3356 8.96862 25.6876 8.73314C26.0397 8.49765 26.4536 8.37177 26.8771 8.3714H37.3143C37.8826 8.3714 38.4276 8.59716 38.8295 8.99903C39.2314 9.40089 39.4571 9.94594 39.4571 10.5143V20.9485C39.4568 21.3721 39.3309 21.786 39.0954 22.1381C38.8599 22.4901 38.5254 22.7645 38.1341 22.9265C37.7427 23.0885 37.3122 23.131 36.8968 23.0484C36.4813 22.9659 36.0997 22.7621 35.8 22.4628L32.3771 19.04L24.6514 27.2143L24.5743 27.2914C23.7962 28.0535 22.7505 28.4803 21.6614 28.4803C20.5723 28.4803 19.5266 28.0535 18.7486 27.2914L18.7286 27.2714L13.8343 22.38L5.42285 30.7943Z" fill="#D4D4D4"/>
</svg>
